<?xml version="1.0" encoding="UTF-8" standalone="no"?>
<!-- Created with Inkscape (http://www.inkscape.org/) -->

<svg
   width="271.02188mm"
   height="153.96419mm"
   viewBox="0 0 271.02188 153.96419"
   version="1.1"
   id="svg5"
   xml:space="preserve"
   xmlns:inkscape="http://www.inkscape.org/namespaces/inkscape"
   xmlns:sodipodi="http://sodipodi.sourceforge.net/DTD/sodipodi-0.dtd"
   xmlns="http://www.w3.org/2000/svg"
   xmlns:svg="http://www.w3.org/2000/svg"><sodipodi:namedview
     id="namedview7"
     pagecolor="#ffffff"
     bordercolor="#000000"
     borderopacity="0.25"
     inkscape:showpageshadow="2"
     inkscape:pageopacity="0.0"
     inkscape:pagecheckerboard="0"
     inkscape:deskcolor="#d1d1d1"
     inkscape:document-units="mm"
     showgrid="false" /><defs
     id="defs2" /><g
     inkscape:label="Layer 1"
     inkscape:groupmode="layer"
     id="layer1"
     transform="translate(-272.37314,-190.64509)"><g
       id="g949"
       transform="translate(-21.279735,120.58516)"><g
         id="g803"
         transform="translate(328.52714,-31.168877)"><path
           style="fill:#9d9aa7;stroke-width:0.264583"
           d="m -34.464036,255.04106 c -0.262084,-0.10575 -0.330729,-6.93272 -0.330729,-32.89196 v -32.75852 l 0.595312,-0.54749 c 0.327422,-0.30111 2.143125,-1.64051 4.034896,-2.97643 1.891771,-1.33592 4.273021,-3.02805 5.291667,-3.7603 2.788606,-2.00457 7.224114,-5.13843 17.5886546,-12.42708 5.1626159,-3.6305 9.9006973,-7.02219 10.5290694,-7.5371 l 1.1424973,-0.93619 6.2719717,0.58409 c 3.449584,0.32125 6.606296,0.6486 7.014918,0.72746 0.671746,0.12963 1.140839,-0.24857 4.894792,-3.94641 l 4.151844,-4.08978 1.852083,-0.16417 c 1.018646,-0.0903 2.784589,-0.24271 3.924319,-0.3387 l 2.072237,-0.17453 4.013179,-3.44844 c 3.589091,-3.08404 10.344261,-8.78128 12.416059,-10.47158 l 0.77892,-0.63549 6.786184,0.30884 c 9.895503,0.45035 9.064114,0.5253 10.409636,-0.93847 0.626476,-0.68152 2.482361,-2.67582 4.124185,-4.43177 3.270925,-3.49827 3.540384,-3.92959 7.955383,-12.7342 l 2.661777,-5.30824 4.972809,-4.5009 c 10.136102,-9.1742 11.563012,-10.4149 11.977992,-10.4149 0.23341,0 3.21757,2.39366 6.63147,5.31925 9.80097,8.39907 10.47153,9.04509 11.49199,11.07147 0.49195,0.97688 1.65743,3.13571 2.58996,4.7974 4.72563,8.42072 5.57296,9.77964 6.7702,10.85784 0.67647,0.60921 4.88805,4.66829 9.35906,9.02017 l 8.12912,7.91251 4.3063,-0.52775 c 2.36846,-0.29026 6.9852,-0.84689 10.25942,-1.23697 l 5.95313,-0.70922 5.0404,3.42051 c 2.77222,1.88128 7.95144,5.44651 11.50938,7.92272 3.55793,2.47621 8.13584,5.65169 10.17313,7.05663 l 3.70417,2.55442 6.14485,0.005 6.14484,0.005 6.95203,4.06571 c 10.55762,6.17433 19.0547,11.20602 19.71817,11.67647 l 0.59531,0.42211 v 35.01663 c 0,31.68651 -0.0398,35.03191 -0.41851,35.17723 -0.50094,0.1922 -269.707561,0.17763 -270.184076,-0.0147 z M 112.51132,207.52515 c 0.51177,-0.64468 2.51984,-5.63248 2.52986,-6.28386 0.0114,-0.73982 -6.45744,-17.27051 -6.97836,-17.83281 -0.20299,-0.21912 -4.82056,1.25574 -8.843064,2.82449 -1.883243,0.73445 -1.893734,0.75064 -5.966433,9.20875 l -2.672834,5.5509 0.45144,1.38111 c 0.248293,0.75961 0.678608,1.99726 0.956257,2.75035 l 0.504817,1.36924 1.642052,0.14603 c 0.903126,0.0803 4.737673,0.32892 8.521215,0.55245 6.68856,0.39515 8.6785,0.52781 9.29417,0.6196 0.16408,0.0245 0.41647,-0.10435 0.56088,-0.28625 z"
           id="path833" /><path
           style="fill:#7c9190;stroke-width:0.264583"
           d="m -34.794017,222.20952 7.48e-4,-32.74219 3.365328,-2.38125 c 1.850931,-1.30968 6.464266,-4.58847 10.251856,-7.2862 8.211238,-5.84848 15.5003178,-10.9935 19.85111,-14.01198 1.74624993,-1.2115 3.7388984,-2.6695 4.4281062,-3.23999 l 1.2531062,-1.03725 7.0650816,0.68202 7.065083,0.68202 2.397435,-2.29235 c 1.31859,-1.26079 3.171343,-3.09025 4.117228,-4.06546 l 1.719792,-1.77312 3.912243,-0.33412 c 4.484449,-0.38298 3.528732,0.11159 9.202432,-4.76211 1.778781,-1.52796 4.445209,-3.79015 5.925394,-5.02708 1.480185,-1.23693 3.452693,-2.88994 4.383347,-3.67335 l 1.6921,-1.4244 2.655782,0.16257 c 1.460682,0.0894 5.096565,0.23889 8.079742,0.33218 l 5.423958,0.1696 1.322917,-1.55098 c 0.727604,-0.85304 2.525998,-2.80232 3.996433,-4.33174 1.470435,-1.52941 2.97009,-3.257 3.332572,-3.83909 0.362482,-0.58208 2.171414,-4.03489 4.019854,-7.67291 l 3.360798,-6.61459 5.577322,-5.02708 c 3.067526,-2.76489 6.723009,-6.06816 8.123295,-7.3406 1.400286,-1.27243 2.686594,-2.31422 2.858454,-2.3151 0.17187,-7.9e-4 1.79121,1.27833 3.59853,2.84268 1.80732,1.56435 5.26091,4.54971 7.67463,6.63414 5.55953,4.80104 5.64423,4.88822 6.60008,6.79249 0.79991,1.59359 3.20157,5.91578 6.34164,11.41286 1.57703,2.76077 1.96356,3.21486 6.1723,7.25102 2.46946,2.3682 6.71023,6.50645 9.42393,9.19611 l 4.93402,4.8903 4.59098,-0.55764 c 2.52505,-0.30671 7.1572,-0.87102 10.29367,-1.25405 l 5.70268,-0.69641 5.54212,3.77223 c 3.04815,2.07472 8.04242,5.5193 11.09835,7.6546 3.05594,2.13531 6.80641,4.72422 8.33438,5.75314 1.52797,1.02892 3.37305,2.29937 4.10019,2.82323 l 1.32207,0.95246 h 6.17368 6.17367 l 4.80738,2.82776 c 2.64406,1.55527 8.68985,5.12714 13.43509,7.9375 4.74523,2.81035 8.76359,5.10974 8.9297,5.10974 0.22471,0 0.30196,8.96779 0.30196,35.05729 v 35.05729 H 100.67189 -34.794765 Z m 148.925417,-17.54318 1.38432,-3.45412 -2.03684,-5.21098 c -1.12027,-2.86605 -2.38523,-6.04443 -2.81104,-7.06307 -0.4258,-1.01865 -1.13133,-2.77482 -1.56784,-3.90261 -0.43651,-1.12778 -0.95036,-2.05052 -1.14189,-2.05052 -0.39909,0 -5.6416,1.78393 -8.661591,2.94738 l -2.036831,0.78469 -2.826734,5.74074 c -1.554705,3.1574 -3.110777,6.37396 -3.457942,7.14791 l -0.631212,1.40717 0.953286,2.89293 c 0.776184,2.35548 1.059688,2.91526 1.526027,3.0131 0.315007,0.0661 3.013522,0.25749 5.996699,0.42533 2.983178,0.16783 6.614578,0.39348 8.069788,0.50142 1.45521,0.10795 3.36846,0.21393 4.25166,0.23551 l 1.60583,0.0392 z"
           id="path831" /><path
           style="fill:#639876;stroke-width:0.264583"
           d="m -34.791606,222.08478 0.0034,-32.73463 0.568528,-0.30427 c 0.563047,-0.30133 3.743427,-2.54261 14.241582,-10.03636 2.983177,-2.12944 9.293489,-6.58612 14.0229159,-9.90373 4.7294269,-3.31761 9.0004949,-6.38318 9.4912625,-6.81238 0.7963244,-0.69642 1.0239957,-0.76342 2.1166666,-0.62284 1.4244954,0.18326 12.173127,1.20567 12.678224,1.20595 0.187748,1.1e-4 2.211811,-1.82554 4.497917,-4.05699 l 4.156553,-4.05718 3.819607,-0.31696 c 2.120294,-0.17595 3.999759,-0.46031 4.224541,-0.63917 0.222713,-0.17722 2.561405,-2.16769 5.197091,-4.42326 4.806381,-4.11322 9.985843,-8.46488 11.094908,-9.3217 0.544835,-0.42092 1.063871,-0.43761 6.384699,-0.20528 3.185409,0.13908 6.721271,0.32427 7.857469,0.41153 l 2.065816,0.15865 1.111282,-1.14399 c 0.611203,-0.6292 2.658149,-2.82279 4.548766,-4.87466 l 3.437486,-3.73065 3.658356,-7.18211 3.658359,-7.18211 4.279141,-3.91041 c 7.839106,-7.16363 12.131316,-10.93738 12.348086,-10.85656 0.28154,0.10497 7.20405,5.99828 12.47253,10.61818 4.08926,3.58585 4.20143,3.71282 5.60974,6.35 0.79037,1.48004 2.82621,5.13177 4.52409,8.11495 2.6745,4.69911 3.34213,5.67146 4.99579,7.27604 1.0498,1.01864 5.33959,5.17636 9.53286,9.23936 l 7.62412,7.38728 2.82242,-0.32142 c 1.55233,-0.17679 6.20513,-0.73558 10.33955,-1.24177 7.38893,-0.90465 7.52655,-0.9118 8.06979,-0.4195 0.30396,0.27547 2.39813,1.72848 4.6537,3.2289 2.25557,1.50043 6.84579,4.65298 10.20048,7.00568 3.35469,2.3527 7.52188,5.23617 9.26042,6.4077 1.73854,1.17154 3.75621,2.55904 4.48372,3.08333 l 1.32274,0.95327 5.9533,-0.16949 c 5.85985,-0.16683 5.96783,-0.16017 6.87934,0.42413 0.50932,0.32649 2.47385,1.49188 4.36562,2.58976 1.89178,1.09789 7.4681,4.37343 12.39185,7.27899 4.92373,2.90555 9.18021,5.34244 9.45885,5.41531 0.49585,0.12966 0.50659,0.87422 0.50659,35.09276 v 34.96028 H 100.67178 -34.795003 Z M 112.99833,207.92202 c 0.0765,-0.25466 0.68541,-1.8605 1.35324,-3.56853 l 1.21424,-3.1055 -0.53359,-1.39241 c -1.33939,-3.4952 -4.37493,-11.1887 -5.45588,-13.82783 -1.1895,-2.90414 -1.19397,-2.91034 -2.0717,-2.87587 -0.48379,0.019 -2.96321,0.79291 -5.50983,1.71979 l -4.630207,1.68525 -1.240549,2.38125 c -0.682299,1.30968 -2.276009,4.54465 -3.541572,7.1888 l -2.301023,4.80755 1.006621,3.06021 c 1.171167,3.56044 0.54021,3.20792 6.208815,3.46896 1.964531,0.0905 5.774535,0.31938 8.466665,0.5087 6.95743,0.48925 6.8726,0.48986 7.03477,-0.0504 z"
           id="path829" /><path
           style="fill:#707289;stroke-width:0.264583"
           d="m -34.794765,235.2002 v -19.61921 l 2.976562,-0.15191 c 1.63711,-0.0836 5.119688,-0.21789 7.739062,-0.29853 2.619375,-0.0806 7.262813,-0.2606 10.31875,-0.3999 5.8847907,-0.26826 25.726338,-0.852 44.846873,-1.31941 6.330156,-0.15474 16.660589,-0.46026 22.956521,-0.67893 9.112096,-0.31648 13.294854,-0.3411 20.505208,-0.12068 10.713042,0.32749 19.122722,0.70391 23.874726,1.06864 6.740523,0.51735 10.382223,0.80723 14.985933,1.19287 14.3953,1.20586 23.59136,1.56467 40.17969,1.5677 8.94953,0.002 19.96281,-0.14872 24.47396,-0.33413 12.60192,-0.51793 24.92768,-1.08514 29.89791,-1.37584 5.25998,-0.30764 26.27037,-1.31875 27.40319,-1.31875 h 0.77493 v 20.70365 20.70364 H 100.67189 -34.794765 Z m 0.330729,-25.1383 c -0.256624,-0.10355 -0.330729,-2.4385 -0.330729,-10.42085 0,-10.27231 8.38e-4,-10.28784 0.571807,-10.59341 0.566128,-0.30298 3.736755,-2.53727 14.244859,-10.03812 2.983177,-2.12944 9.293489,-6.58612 14.0229159,-9.90373 4.7294269,-3.31761 9.0004949,-6.38318 9.4912625,-6.81238 0.7963244,-0.69642 1.0239957,-0.76342 2.1166666,-0.62284 1.4244954,0.18326 12.173127,1.20567 12.678224,1.20595 0.187748,1.1e-4 2.211811,-1.82554 4.497917,-4.05699 l 4.156553,-4.05718 3.819607,-0.31696 c 2.120294,-0.17595 3.999759,-0.46031 4.224541,-0.63917 0.222713,-0.17722 2.561405,-2.16769 5.197091,-4.42326 4.806381,-4.11322 9.985843,-8.46488 11.094908,-9.3217 0.544835,-0.42092 1.063871,-0.43761 6.384699,-0.20528 3.185409,0.13908 6.721271,0.32427 7.857469,0.41153 l 2.065816,0.15865 1.111282,-1.14399 c 0.611203,-0.6292 2.658149,-2.82279 4.548766,-4.87466 l 3.437486,-3.73065 3.658356,-7.18211 3.658359,-7.18211 4.279141,-3.91041 c 7.839106,-7.16363 12.131319,-10.93738 12.348089,-10.85656 0.28154,0.10497 7.20405,5.99828 12.47253,10.61818 4.08926,3.58585 4.20143,3.71282 5.60974,6.35 0.79037,1.48004 2.82621,5.13177 4.52409,8.11495 2.6745,4.69911 3.34213,5.67146 4.99579,7.27604 1.0498,1.01864 5.33959,5.17636 9.53286,9.23936 l 7.62412,7.38728 2.82242,-0.32142 c 1.55233,-0.17679 6.20513,-0.73558 10.33955,-1.24177 7.38893,-0.90465 7.52655,-0.9118 8.06979,-0.4195 0.30396,0.27547 2.39813,1.72848 4.6537,3.2289 2.25557,1.50043 6.84579,4.65298 10.20048,7.00568 3.35469,2.3527 7.52188,5.23617 9.26042,6.4077 1.73854,1.17154 3.75621,2.55904 4.48372,3.08333 l 1.32274,0.95327 5.9533,-0.16949 c 5.85985,-0.16683 5.96783,-0.16017 6.87934,0.42413 0.50932,0.32649 2.47385,1.49188 4.36562,2.58976 1.89178,1.09789 7.4681,4.37343 12.39185,7.27899 4.92373,2.90555 9.18021,5.34244 9.45885,5.41531 0.48863,0.12778 0.50659,0.51538 0.50659,10.9317 0,10.05795 -0.0318,10.80835 -0.46302,10.93217 -0.25466,0.0731 -1.71317,0.20277 -3.24114,0.28811 -9.10882,0.50876 -24.18362,1.26814 -34.39583,1.73267 -6.47568,0.29457 -13.73849,0.65256 -16.13959,0.79553 -17.91862,1.06695 -37.89883,0.81426 -63.23541,-0.79973 -5.10717,-0.32534 -5.55625,-0.40166 -5.55625,-0.94422 0,-0.22427 0.53578,-1.71592 1.19063,-3.31476 0.65484,-1.59885 1.19062,-3.02382 1.19062,-3.16659 0,-0.29025 -2.27467,-6.13943 -5.1883,-13.34142 l -1.92671,-4.7625 -0.87426,0.0345 c -0.48085,0.019 -2.95786,0.79291 -5.50448,1.71979 l -4.630207,1.68525 -1.240549,2.38125 c -0.682299,1.30968 -2.278411,4.54968 -3.546911,7.19998 l -2.306362,4.81874 0.882234,2.60624 c 1.014614,2.99729 0.956234,3.59082 -0.333393,3.38947 -0.474843,-0.0741 -5.387726,-0.27126 -10.917518,-0.43806 -10.440764,-0.31493 -16.204185,-0.26765 -29.633332,0.24309 -11.028838,0.41946 -19.887929,0.75101 -32.543748,1.21795 -5.966354,0.22013 -15.9676033,0.64073 -22.2249988,0.93466 -31.1001892,1.46087 -29.3632002,1.39411 -29.9640612,1.15166 z"
           id="path827" /><path
           style="fill:#715270;stroke-width:0.264583"
           d="m -34.794765,235.13406 v -19.55307 l 2.976562,-0.15191 c 1.63711,-0.0836 5.119688,-0.21789 7.739062,-0.29853 2.619375,-0.0806 7.262813,-0.2606 10.31875,-0.3999 5.8847907,-0.26826 25.726338,-0.852 44.846873,-1.31941 6.330156,-0.15474 16.660589,-0.46026 22.956521,-0.67893 9.112096,-0.31648 13.294854,-0.3411 20.505208,-0.12068 10.713042,0.32749 19.122722,0.70391 23.874726,1.06864 6.740523,0.51735 10.382223,0.80723 14.985933,1.19287 14.3953,1.20586 23.59136,1.56467 40.17969,1.5677 8.94953,0.002 19.96281,-0.14872 24.47396,-0.33413 12.60192,-0.51793 24.92768,-1.08514 29.89791,-1.37584 5.25998,-0.30764 26.27037,-1.31875 27.40319,-1.31875 h 0.77493 v 20.6375 20.6375 H 100.67189 -34.794765 Z m 0.330729,-25.07216 c -0.42993,-0.17349 -0.488564,-20.72686 -0.05913,-20.72686 0.14938,0 1.905552,-1.16842 3.902604,-2.59649 7.749394,-5.54152 18.497847,-13.15822 25.4591279,-18.04115 4.0018227,-2.80705 7.7645547,-5.50317 8.361624,-5.99137 0.6736027,-0.55079 1.3764736,-0.88835 1.8520832,-0.88949 0.7398015,-0.002 7.1342299,0.59033 11.2175419,1.03871 1.091406,0.11985 2.129454,0.1413 2.306769,0.0477 0.177319,-0.0936 2.108229,-1.92376 4.290915,-4.06697 2.182685,-2.14321 4.1212,-3.90061 4.307813,-3.90534 0.186611,-0.005 1.973241,-0.16615 3.970287,-0.35873 l 3.630994,-0.35014 1.486836,-1.29492 c 1.951514,-1.69961 4.947494,-4.24638 9.771472,-8.30637 2.161305,-1.81901 4.336452,-3.65239 4.833662,-4.07419 l 0.904018,-0.76689 8.088836,0.33737 8.088839,0.33738 1.610299,-1.81944 c 0.885663,-1.00069 2.860455,-3.13919 4.388424,-4.75223 l 2.778125,-2.9328 3.767266,-7.38595 3.767265,-7.38596 5.742469,-5.15937 c 3.158357,-2.83766 6.755378,-6.08211 7.993382,-7.2099 1.238001,-1.12778 2.375964,-2.04984 2.528804,-2.04901 0.28634,0.002 3.98007,3.11767 12.05974,10.17388 l 4.6381,4.05058 1.76302,3.29983 c 0.96965,1.81491 2.37827,4.35884 3.13025,5.65317 0.75198,1.29433 2.02048,3.50787 2.8189,4.91898 0.97016,1.71465 1.94774,3.02447 2.94727,3.94895 0.82259,0.76081 5.08622,4.87404 9.47474,9.14051 l 7.97912,7.75721 7.6313,-0.93111 c 4.1972,-0.51211 8.84354,-1.06599 10.32518,-1.23084 l 2.69389,-0.29972 0.87798,0.70538 c 0.48289,0.38796 3.08064,2.1746 5.77278,3.97031 4.14253,2.76315 9.77613,6.64539 21.54558,14.84752 l 2.09871,1.46259 h 6.15194 6.15194 l 1.27435,0.75458 c 0.70089,0.41502 2.40544,1.41083 3.78789,2.21291 1.38245,0.80208 6.79979,3.99488 12.03854,7.09511 5.23875,3.10022 9.73336,5.62416 9.98802,5.60874 0.43387,-0.0263 0.46302,0.65261 0.46302,10.78561 0,10.07167 -0.0318,10.82276 -0.46302,10.94658 -0.25466,0.0731 -1.71317,0.20277 -3.24114,0.28811 -9.10882,0.50876 -24.18362,1.26814 -34.39583,1.73267 -6.47568,0.29457 -13.73849,0.65256 -16.13959,0.79553 -10.78454,0.64215 -25.1376,0.78149 -32.12417,0.31186 -2.81574,-0.18927 -4.0784,-0.1826 -4.40809,0.0233 -0.43939,0.27441 -17.49828,-0.4608 -26.57086,-1.14516 -1.74625,-0.13172 -3.59172,-0.24402 -4.10104,-0.24955 -1.8109,-0.0196 -1.83061,-0.17918 -0.4478,-3.6247 0.68961,-1.71827 1.25107,-3.33699 1.24769,-3.59717 -0.009,-0.72154 -6.33205,-16.72836 -7.05568,-17.86251 -0.45326,-0.71039 0.0491,-0.8211 -6.04733,1.33264 -2.473858,0.87396 -4.723692,1.78292 -4.999634,2.01993 -0.592352,0.50876 -7.038911,13.6149 -7.038911,14.31042 0,0.2623 0.37326,1.63 0.829471,3.03934 0.466362,1.4407 0.726966,2.65156 0.595312,2.76606 -0.128788,0.112 -4.044158,0.0564 -8.700825,-0.12344 -15.002824,-0.57958 -21.80292,-0.68437 -24.473957,-0.37717 -1.382448,0.159 -5.430573,0.39337 -8.995833,0.52082 -3.56526,0.12745 -9.816041,0.3582 -13.890624,0.51276 -4.074583,0.15456 -12.230364,0.45895 -18.123958,0.67642 -5.893593,0.21746 -15.8353113,0.63589 -22.0927068,0.92983 -31.0949392,1.4607 -29.3632052,1.39414 -29.9640612,1.15169 z"
           id="path825" /><path
           style="fill:#4a8067;stroke-width:0.264583"
           d="m -34.794765,235.13406 v -19.55307 l 2.976562,-0.15191 c 1.63711,-0.0836 5.119688,-0.21789 7.739062,-0.29853 2.619375,-0.0806 7.262813,-0.2606 10.31875,-0.3999 5.8847907,-0.26826 25.726338,-0.852 44.846873,-1.31941 6.330156,-0.15474 16.660589,-0.46026 22.956521,-0.67893 9.112096,-0.31648 13.294854,-0.3411 20.505208,-0.12068 10.713042,0.32749 19.122722,0.70391 23.874726,1.06864 6.740523,0.51735 10.382223,0.80723 14.985933,1.19287 14.3953,1.20586 23.59136,1.56467 40.17969,1.5677 8.94953,0.002 19.96281,-0.14872 24.47396,-0.33413 12.60192,-0.51793 24.92768,-1.08514 29.89791,-1.37584 5.25998,-0.30764 26.27037,-1.31875 27.40319,-1.31875 h 0.77493 v 20.6375 20.6375 H 100.67189 -34.794765 Z m 0.330729,-25.07216 c -0.2565,-0.1035 -0.330729,-2.40687 -0.330729,-10.26271 v -10.12925 l 1.124479,-0.73846 c 1.055983,-0.69347 10.589039,-7.43041 16.470312,-11.63944 3.740595,-2.67702 10.9584192,-7.76222 15.5522762,-10.95709 2.15083746,-1.49583 4.3941283,-3.12366 4.985091,-3.6174 0.912114,-0.76205 1.220761,-0.87653 2.0425145,-0.7576 1.3464301,0.19486 11.9437863,1.18092 12.6940333,1.18115 0.435379,1.4e-4 1.818087,-1.1817 4.762499,-4.07065 l 4.149,-4.07084 3.704167,-0.31491 c 2.55864,-0.21753 3.922291,-0.45188 4.409495,-0.75781 0.38793,-0.24359 2.779898,-2.22882 5.315484,-4.41164 6.46321,-5.56398 10.177878,-8.65856 11.001192,-9.16473 0.644816,-0.39644 1.281713,-0.4034 7.451952,-0.0815 3.710781,0.19361 7.211478,0.35891 7.779324,0.36734 1.165392,0.0173 1.134152,0.0453 6.938198,-6.23163 l 3.207467,-3.46881 3.742671,-7.28575 3.742671,-7.28574 4.029731,-3.67899 c 7.747127,-7.07283 11.817648,-10.66293 12.089798,-10.66293 0.41368,0 0.3525,0.47373 -0.64281,4.97786 -2.273598,10.28884 -2.32937,10.61634 -1.915424,11.2481 0.210346,0.32103 2.995814,3.11728 6.189934,6.21389 l 5.80748,5.63019 1.79271,7.19779 c 0.986,3.95878 1.90538,7.55498 2.04307,7.99154 0.17101,0.54218 1.00816,1.38076 2.64133,2.64583 1.31503,1.01865 4.07013,3.1989 6.12244,4.845 2.05232,1.64611 3.95704,3.11364 4.23272,3.26118 0.45983,0.24609 0.47404,0.21741 0.17194,-0.34709 -0.18111,-0.33844 -1.98686,-2.98543 -4.01277,-5.88221 -2.02592,-2.89678 -3.8429,-5.63522 -4.03774,-6.08542 -0.19484,-0.4502 -0.66202,-2.00917 -1.03818,-3.46437 -3.80173,-14.70719 -3.83959,-14.87194 -3.34747,-14.56779 0.13155,0.0813 1.5746,2.49934 3.20679,5.37343 1.6322,2.87408 3.25004,5.72147 3.59522,6.32752 0.41781,0.73359 1.87525,2.1026 4.36016,4.09562 3.34445,2.68241 4.09497,3.44822 7.21772,7.36475 1.91683,2.40408 3.89322,4.90683 4.39197,5.56167 2.74807,3.60815 4.70268,5.87277 5.66808,6.56709 1.3784,0.99134 10.05546,7.86705 13.47043,10.67398 2.60051,2.13748 3.32414,2.46409 2.41409,1.08959 -1.81298,-2.73827 -13.03063,-21.63319 -12.93509,-21.78777 0.0653,-0.1056 1.10155,-0.32442 2.30287,-0.48628 3.50469,-0.47218 17.38527,-2.14202 17.80564,-2.14202 0.23628,0 1.59628,2.42345 3.53913,6.30658 l 3.15539,6.30657 3.17636,2.29606 c 2.43243,1.75829 3.244,2.49659 3.46513,3.15227 2.4503,7.26539 2.53295,7.46749 3.18943,7.79818 0.3638,0.18326 1.93961,0.83941 3.5018,1.45812 l 2.84034,1.12492 7.28888,7.1128 c 4.00889,3.91203 7.35461,7.04706 7.43494,6.96673 0.0803,-0.0803 -0.50987,-2.15 -1.31157,-4.59925 -3.81418,-11.65259 -5.24508,-16.56626 -4.88984,-16.79151 0.19194,-0.12171 2.80496,-0.22311 5.8067,-0.22534 4.14194,-0.003 5.5261,0.0784 5.7414,0.33778 0.15603,0.18801 0.45607,1.50023 0.66675,2.91605 0.45529,3.05964 0.39093,2.96185 5.28961,8.03723 3.46184,3.5867 3.55908,3.72028 5.2918,7.26891 1.64795,3.37504 1.87484,3.70141 3.41727,4.91553 1.82266,1.43469 12.12045,10.56965 12.42985,11.02628 0.10692,0.15778 0.19621,0.8444 0.19844,1.52582 0.005,1.48326 0.0817,1.44876 -3.70012,1.65999 -8.49723,0.4746 -23.76239,1.24683 -31.61771,1.59948 -4.94771,0.22212 -12.38911,0.57497 -16.53646,0.78412 -14.08137,0.71012 -29.41817,1.1231 -30.37935,0.81803 -0.32152,-0.10204 -0.51409,-0.29959 -0.42794,-0.43898 0.18433,-0.29825 -0.36243,-1.2739 -3.98826,-7.11679 -1.49,-2.4011 -3.26739,-5.28081 -3.94974,-6.39937 -0.94384,-1.5472 -2.10692,-2.84318 -4.86174,-5.41726 -1.9916,-1.86093 -4.84687,-4.57531 -6.34505,-6.03194 -3.03335,-2.94923 -2.74367,-2.44908 -8.51119,-14.69518 -1.33645,-2.83766 -2.58212,-5.27844 -2.76817,-5.42396 -0.18605,-0.14552 -1.69532,-0.54449 -3.35393,-0.8866 -5.74047,-1.18406 -9.91945,-2.39438 -15.14921,-4.38753 -2.889,-1.10105 -5.541747,-2.00191 -5.894992,-2.00191 -0.76544,0 -11.968038,2.78309 -13.074393,3.24811 -0.718497,0.30199 -9.69996,9.91006 -10.284163,11.00165 -0.145727,0.2723 -1.451406,3.42976 -2.901508,7.0166 -1.815624,4.49094 -2.910268,6.84108 -3.51564,7.54786 -0.4835,0.56449 -1.712527,1.96924 -2.731172,3.12166 -1.018646,1.15243 -2.923646,3.33427 -4.233333,4.84854 -1.309688,1.51427 -3.31505,3.76541 -4.456359,5.00253 -2.312373,2.50648 -2.190916,2.00827 -1.390999,5.70576 0.246862,1.14107 0.261678,1.63337 0.05269,1.75061 -0.159914,0.0897 -3.564969,0.24252 -7.566792,0.33956 -4.001823,0.0971 -10.07401,0.28547 -13.493749,0.41872 -3.41974,0.13325 -11.218333,0.42707 -17.330208,0.65294 -6.111875,0.22587 -16.1726554,0.64906 -22.3572905,0.94043 -30.5600765,1.43972 -29.2315375,1.38867 -29.8317695,1.14647 z m 171.251556,-0.38629 c -2.03729,-0.12108 -7.03792,-0.40596 -11.1125,-0.63306 -10.03473,-0.55929 -11.94759,-0.70236 -12.29963,-0.91993 -0.20802,-0.12856 0.11531,-1.21841 1.04691,-3.52879 l 1.34788,-3.34278 -2.14047,-5.49498 c -3.71775,-9.54419 -5.09988,-12.81817 -5.47148,-12.96076 -0.35967,-0.13802 -5.72274,1.62515 -9.215257,3.02962 -2.132621,0.85761 -1.609125,0.0602 -5.981361,9.11049 l -2.897315,5.99725 0.95045,2.84078 c 0.522745,1.56244 0.855628,2.92126 0.739735,3.0196 -0.11589,0.0984 -3.901649,0.03 -8.412794,-0.15188 -4.511146,-0.18188 -9.749896,-0.35398 -11.641667,-0.38244 -1.89177,-0.0285 -3.213941,-0.10952 -2.938158,-0.18014 0.33251,-0.0851 0.397791,-0.19244 0.193786,-0.31852 -0.169198,-0.10457 -0.618812,-1.40295 -0.99914,-2.88528 l -0.691507,-2.69515 0.63001,-0.90055 c 0.346506,-0.49531 1.701572,-2.42811 3.011259,-4.29511 3.534278,-5.03824 4.521851,-6.70521 5.577504,-9.41454 0.525486,-1.34866 1.492607,-3.82132 2.149155,-5.49481 0.667829,-1.70224 1.639342,-3.62577 2.205217,-4.36619 0.556318,-0.72791 2.954544,-3.3257 5.329391,-5.77286 l 4.317899,-4.44938 6.35,0.95542 c 9.786113,1.47243 16.410623,2.42432 19.314583,2.77537 1.45521,0.17591 2.82396,0.41157 3.04167,0.52369 0.4125,0.21243 1.59592,2.19764 5.29277,8.87874 4.81707,8.7056 3.94908,7.60016 7.961,10.13883 1.95157,1.23492 4.67128,2.93928 6.04379,3.78747 1.37251,0.84819 2.59709,1.64377 2.72128,1.76796 0.12418,0.12418 0.62465,1.88252 1.11215,3.90743 0.4875,2.0249 1.34144,5.32623 1.89765,7.33628 0.82084,2.96639 0.9439,3.6963 0.65344,3.87581 -0.27868,0.17223 -0.24691,0.24957 0.14357,0.34956 0.78259,0.20039 -4.13187,0.13641 -8.22982,-0.10715 z"
           id="path823" /><path
           style="fill:#477d66;stroke-width:0.264583"
           d="m -34.794765,239.64813 c 0,-8.27145 0.07706,-16.99277 0.171234,-19.38073 l 0.171233,-4.34173 2.276162,-0.006 c 1.251889,-0.003 5.856925,-0.10011 10.233412,-0.2153 8.515222,-0.22412 8.323119,-0.24813 8.648515,1.08107 0.13764,0.56224 0.06582,0.59531 -1.293006,0.59531 -1.034806,0 -1.4815,-0.11142 -1.591037,-0.39687 -0.362775,-0.94538 -1.595544,0.2163 -1.281053,1.20717 0.125134,0.39427 0.03641,0.51262 -0.384298,0.51262 -0.370607,0 -0.546996,0.17064 -0.546996,0.52917 0,0.35277 0.176389,0.52916 0.529167,0.52916 0.291041,0 0.529166,0.11907 0.529166,0.26459 0,0.14552 0.238125,0.26458 0.529167,0.26458 0.291041,0 0.529166,-0.11906 0.529166,-0.26458 0,-0.14699 0.705556,-0.26459 1.5875,-0.26459 0.881945,0 1.5875,0.1176 1.5875,0.26459 0,0.14699 0.705556,0.26458 1.5875,0.26458 0.881945,0 1.5875001,-0.11759 1.5875001,-0.26458 0,-0.1542 0.8773353,-0.26459 2.1028394,-0.26459 h 2.1028395 l 0.079973,-1.38906 0.079973,-1.38906 h 1.4552083 c 1.4483767,0 1.4555972,0.004 1.538118,0.8599 0.078145,0.81047 0.1427692,0.85989 1.1244792,0.85989 0.93461937,0 1.04156924,0.0679 1.04156924,0.66146 v 0.66146 l 12.89843726,-0.0274 c 7.09414,-0.015 14.862968,-0.13597 17.264061,-0.2687 2.401094,-0.13274 5.199062,-0.22918 6.217708,-0.21432 1.018646,0.0149 2.745052,0.0429 3.836458,0.0623 1.091407,0.0194 8.09263,-0.002 15.558277,-0.047 10.139429,-0.0615 13.548468,-0.15991 13.473374,-0.38894 -0.05529,-0.16864 -0.480573,-0.34409 -0.945073,-0.38989 -0.464828,-0.0458 -0.772829,-0.19932 -0.685043,-0.34136 0.09559,-0.15467 0.797705,-0.18587 1.752301,-0.0779 1.222406,0.1383 1.647875,0.0946 1.829623,-0.18781 0.187116,-0.29078 0.397017,-0.1874 1.000159,0.49259 0.757465,0.85398 0.78141,0.8604 3.109132,0.83373 1.290185,-0.0148 4.369853,0.0974 6.843707,0.24935 2.473854,0.15192 7.474478,0.40609 11.112499,0.56483 3.638021,0.15874 8.638643,0.39927 11.112503,0.53453 2.47385,0.13525 6.16479,0.30648 8.20208,0.38049 4.48101,0.1628 11.16963,0.58501 14.94896,0.94364 5.8998,0.55984 12.76993,0.82918 24.87083,0.97508 10.81209,0.13035 13.95372,0.0733 22.48958,-0.40826 5.45703,-0.30788 12.71984,-0.68882 16.13958,-0.84652 3.41974,-0.15771 8.59896,-0.39833 11.50938,-0.53471 2.91041,-0.13638 7.3034,-0.31098 9.76219,-0.38799 4.31925,-0.1353 5.8922,-0.29782 8.80746,-0.91001 1.55361,-0.32625 14.21672,-0.23827 14.96628,0.10398 0.43405,0.19818 0.46302,1.28594 0.46302,17.38102 v 17.16961 H 100.67189 -34.794765 Z M 122.10314,220.55587 c 0,-0.29398 0.17639,-0.52916 0.39688,-0.52916 0.44531,0 0.4632,0.0485 0.23627,0.63982 -0.22685,0.59118 -0.63315,0.52018 -0.63315,-0.11066 z m -77.258326,-1.85208 c 0,-0.14552 0.178594,-0.26458 0.396875,-0.26458 0.218282,0 0.396875,0.11906 0.396875,0.26458 0,0.14552 -0.178593,0.26458 -0.396875,0.26458 -0.218281,0 -0.396875,-0.11906 -0.396875,-0.26458 z m 1.995676,0.0183 c -0.08373,-0.13546 -0.03122,-0.32108 0.116676,-0.41249 0.315745,-0.19514 0.798065,0.0525 0.798065,0.40983 0,0.32194 -0.716127,0.32403 -0.914741,0.003 z m -52.9173788,-2.39105 c -4.9690802,-0.13245 -5.2426282,-0.16587 -4.6302082,-0.56567 0.8318702,-0.54305 3.3248626,-0.84467 4.3550389,-0.52689 l 0.79375,0.24485 -0.7276041,0.0228 c -1.1535542,0.0361 -0.8444309,0.5519 0.3307291,0.5519 0.5820833,0 1.0583333,-0.10616 1.0583333,-0.2359 0,-0.12975 0.3227546,-0.31691 0.7172325,-0.41592 0.5223933,-0.13111 0.8076458,-0.0564 1.0500624,0.27516 0.2728727,0.37318 0.405294,0.39504 0.7350627,0.12136 0.2212287,-0.18361 0.3369865,-0.4394 0.2572385,-0.56843 -0.079745,-0.12903 0.1559533,-0.23461 0.5237771,-0.23461 0.4864205,0 0.62714975,0.10846 0.5161332,0.39777 -0.1093417,0.28493 0.080629,0.44441 0.6697636,0.56224 0.94029473,0.18805 1.1271858,0.65702 0.22708393,0.56982 -0.32742186,-0.0317 -2.97179983,-0.12101 -5.87639293,-0.19843 z m -2.3918358,-0.53765 c -0.089937,-0.14552 -0.2755572,-0.26458 -0.4124899,-0.26458 -0.1369327,0 -0.2489684,0.11906 -0.2489684,0.26458 0,0.14553 0.1856205,0.26459 0.4124899,0.26459 0.2268693,0 0.3389053,-0.11906 0.2489684,-0.26459 z M -34.794765,199.86192 v -10.19198 l 1.124479,-0.73846 c 1.055983,-0.69347 10.589039,-7.43041 16.470312,-11.63944 3.740595,-2.67702 10.9584192,-7.76222 15.5522762,-10.95709 2.15083746,-1.49583 4.3941283,-3.12366 4.985091,-3.6174 0.912114,-0.76205 1.220761,-0.87653 2.0425145,-0.7576 1.3464301,0.19486 11.9437863,1.18092 12.6940333,1.18115 0.435379,1.4e-4 1.818087,-1.1817 4.762499,-4.07065 l 4.149,-4.07084 3.704167,-0.31491 c 2.55864,-0.21753 3.922291,-0.45188 4.409495,-0.75781 0.38793,-0.24359 2.779898,-2.22882 5.315484,-4.41164 6.46321,-5.56398 10.177878,-8.65856 11.001192,-9.16473 0.644816,-0.39644 1.281713,-0.4034 7.451952,-0.0815 3.710781,0.19361 7.211478,0.35891 7.779324,0.36734 1.165392,0.0173 1.134152,0.0453 6.938198,-6.23163 l 3.207467,-3.46881 3.742671,-7.28575 3.742671,-7.28574 4.029731,-3.67899 c 7.747127,-7.07283 11.817648,-10.66293 12.089798,-10.66293 0.41368,0 0.3525,0.47373 -0.64281,4.97786 -2.273598,10.28884 -2.32937,10.61634 -1.915424,11.2481 0.210346,0.32103 2.995814,3.11728 6.189934,6.21389 l 5.80748,5.63019 1.79271,7.19779 c 0.986,3.95878 1.90538,7.55498 2.04307,7.99154 0.17101,0.54218 1.00816,1.38076 2.64133,2.64583 1.31503,1.01865 4.07013,3.1989 6.12244,4.845 2.05232,1.64611 3.95704,3.11364 4.23272,3.26118 0.45983,0.24609 0.47404,0.21741 0.17194,-0.34709 -0.18111,-0.33844 -1.98686,-2.98543 -4.01277,-5.88221 -2.02592,-2.89678 -3.8429,-5.63522 -4.03774,-6.08542 -0.19484,-0.4502 -0.66202,-2.00917 -1.03818,-3.46437 -3.80173,-14.70719 -3.83959,-14.87194 -3.34747,-14.56779 0.13155,0.0813 1.5746,2.49934 3.20679,5.37343 1.6322,2.87408 3.25004,5.72147 3.59522,6.32752 0.41781,0.73359 1.87525,2.1026 4.36016,4.09562 3.34445,2.68241 4.09497,3.44822 7.21772,7.36475 1.91683,2.40408 3.89322,4.90683 4.39197,5.56167 2.74807,3.60815 4.70268,5.87277 5.66808,6.56709 1.3784,0.99134 10.05546,7.86705 13.47043,10.67398 2.60051,2.13748 3.32414,2.46409 2.41409,1.08959 -1.81298,-2.73827 -13.03063,-21.63319 -12.93509,-21.78777 0.0653,-0.1056 1.10155,-0.32442 2.30287,-0.48628 3.50469,-0.47218 17.38527,-2.14202 17.80564,-2.14202 0.23628,0 1.59628,2.42345 3.53913,6.30658 l 3.15539,6.30657 3.17636,2.29606 c 2.43243,1.75829 3.244,2.49659 3.46513,3.15227 2.4503,7.26539 2.53295,7.46749 3.18943,7.79818 0.3638,0.18326 1.93961,0.83941 3.5018,1.45812 l 2.84034,1.12492 7.28888,7.1128 c 4.00889,3.91203 7.35461,7.04706 7.43494,6.96673 0.0803,-0.0803 -0.50987,-2.15 -1.31157,-4.59925 -3.81418,-11.65259 -5.24508,-16.56626 -4.88984,-16.79151 0.19194,-0.12171 2.80496,-0.22311 5.8067,-0.22534 4.14194,-0.003 5.5261,0.0784 5.7414,0.33778 0.15603,0.18801 0.45607,1.50023 0.66675,2.91605 0.45529,3.05964 0.39093,2.96185 5.28961,8.03723 3.46184,3.5867 3.55908,3.72028 5.2918,7.26891 1.64795,3.37504 1.87484,3.70141 3.41727,4.91553 1.82266,1.43469 12.12045,10.56965 12.42985,11.02628 0.17439,0.25735 0.29773,2.79475 0.13634,2.80436 -3.38654,0.20149 -27.42538,1.4369 -33.53594,1.72347 -4.72942,0.2218 -13.3304,0.63699 -19.11328,0.92266 -5.78288,0.28566 -14.77987,0.599 -19.9933,0.69632 l -9.47897,0.17693 -0.8734,-1.56322 c -0.48036,-0.85978 -2.09482,-3.52776 -3.58767,-5.92885 -1.49285,-2.4011 -3.27257,-5.28081 -3.95492,-6.39937 -0.94384,-1.5472 -2.10692,-2.84318 -4.86174,-5.41726 -1.9916,-1.86093 -4.84687,-4.57531 -6.34505,-6.03194 -3.03335,-2.94923 -2.74367,-2.44908 -8.51119,-14.69518 -1.33645,-2.83766 -2.58212,-5.27844 -2.76817,-5.42396 -0.18605,-0.14552 -1.69532,-0.54449 -3.35393,-0.8866 -5.74047,-1.18406 -9.91945,-2.39438 -15.14921,-4.38753 -2.889,-1.10105 -5.541747,-2.00191 -5.894992,-2.00191 -0.76544,0 -11.968038,2.78309 -13.074393,3.24811 -0.718497,0.30199 -9.69996,9.91006 -10.284163,11.00165 -0.145727,0.2723 -1.4537,3.43544 -2.906607,7.02921 -2.030544,5.02256 -2.874435,6.79995 -3.647932,7.68325 -0.553455,0.63201 -2.129041,2.44055 -3.501299,4.01897 -1.372259,1.57842 -3.693978,4.21569 -5.159375,5.86061 -1.465398,1.64492 -3.132114,3.52226 -3.703817,4.17187 l -1.039461,1.18111 0.44754,1.91355 c 0.744363,3.18268 0.785093,3.10414 -1.609765,3.10434 -3.048981,2.6e-4 -25.145419,0.76433 -26.524477,0.91719 -0.654844,0.0726 -5.060156,0.25734 -9.789583,0.41057 -7.646643,0.24775 -20.462996,0.79704 -36.777082,1.57622 -2.983177,0.14248 -7.775442,0.33955 -10.649478,0.43792 l -5.225521,0.17887 z m 174.025265,9.68729 c -0.0873,-0.0873 -0.61317,-0.14929 -1.16857,-0.13773 -3.36896,0.0701 -24.44995,-1.20536 -24.72805,-1.49616 -0.10084,-0.10546 0.40607,-1.64805 1.12648,-3.42799 l 1.30983,-3.23626 -2.14047,-5.49499 c -3.71776,-9.5442 -5.09989,-12.81818 -5.47149,-12.96077 -0.35967,-0.13802 -5.72274,1.62515 -9.215257,3.02962 -2.132621,0.85761 -1.609133,0.0603 -5.981303,9.11037 l -2.897256,5.99713 0.918191,2.73412 c 0.505005,1.50376 0.817676,2.83765 0.694822,2.96418 -0.122854,0.12654 -1.453343,0.15685 -2.956639,0.0674 -1.503296,-0.0895 -6.431507,-0.23772 -10.951577,-0.3294 -5.964854,-0.12099 -8.343312,-0.25811 -8.6742,-0.50006 -0.271026,-0.19818 -0.734491,-1.4192 -1.14295,-3.01117 l -0.687059,-2.67782 0.63001,-0.90055 c 0.346506,-0.49531 1.701572,-2.42811 3.011259,-4.29511 3.534278,-5.03824 4.521851,-6.70521 5.577504,-9.41454 0.525486,-1.34866 1.492607,-3.82132 2.149155,-5.49481 0.667829,-1.70224 1.639342,-3.62577 2.205217,-4.36619 0.556318,-0.72791 2.954544,-3.3257 5.329391,-5.77286 l 4.317899,-4.44938 6.35,0.95542 c 9.786113,1.47243 16.410623,2.42432 19.314583,2.77537 1.45521,0.17591 2.82396,0.41157 3.04167,0.52369 0.4125,0.21243 1.59592,2.19764 5.29277,8.87874 4.81707,8.7056 3.94908,7.60016 7.961,10.13883 1.95157,1.23492 4.67128,2.93928 6.04379,3.78747 1.37251,0.84819 2.59709,1.64377 2.72128,1.76796 0.12418,0.12418 0.62465,1.88252 1.11215,3.90743 0.4875,2.0249 1.34144,5.32623 1.89765,7.33628 0.86101,3.11155 0.95399,3.69089 0.6257,3.89856 -0.4225,0.26725 -5.35954,0.34924 -5.61553,0.0933 z"
           id="path821" /><path
           style="fill:#376d5c;stroke-width:0.264583"
           d="m -34.732247,238.26888 c 0.07812,-9.03004 0.186063,-16.46228 0.239884,-16.5161 0.245159,-0.24516 53.761196,-1.28817 83.305927,-1.6236 11.683711,-0.13265 30.468344,0.13787 39.555207,0.56963 1.309687,0.0622 4.881562,0.23539 7.937499,0.38479 3.055938,0.14941 8.23516,0.39216 11.50937,0.53944 3.27422,0.14729 9.64407,0.50271 14.15521,0.78981 21.03201,1.33856 35.80577,1.66313 47.91694,1.05269 5.61517,-0.28303 24.31403,-1.14985 34.36847,-1.59323 3.34698,-0.14759 9.53823,-0.44309 13.75834,-0.65666 4.2201,-0.21357 10.0244,-0.46808 12.89843,-0.56559 l 5.22552,-0.17728 v 17.10717 17.10717 H 100.63214 -34.874275 Z m -0.06252,-38.44764 v -10.1513 l 1.124479,-0.73846 c 1.055983,-0.69347 10.589039,-7.43041 16.470312,-11.63944 3.740595,-2.67702 10.9584192,-7.76222 15.5522762,-10.95709 2.15083746,-1.49583 4.3941283,-3.12366 4.985091,-3.6174 0.912114,-0.76205 1.220761,-0.87653 2.0425145,-0.7576 1.3464301,0.19486 11.9437863,1.18092 12.6940333,1.18115 0.435379,1.4e-4 1.818087,-1.1817 4.762499,-4.07065 l 4.149,-4.07084 3.704167,-0.31491 c 2.55864,-0.21753 3.922291,-0.45188 4.409495,-0.75781 0.38793,-0.24359 2.779898,-2.22882 5.315484,-4.41164 6.46321,-5.56398 10.177878,-8.65856 11.001192,-9.16473 0.644816,-0.39644 1.281713,-0.4034 7.451952,-0.0815 3.710781,0.19361 7.211478,0.35891 7.779324,0.36734 1.165392,0.0173 1.134152,0.0453 6.938198,-6.23163 l 3.207467,-3.46881 3.742671,-7.28575 3.742671,-7.28574 4.029731,-3.67899 c 7.747127,-7.07283 11.81765,-10.66293 12.0898,-10.66293 0.41368,0 0.3525,0.47373 -0.642812,4.97786 -2.273598,10.28884 -2.32937,10.61634 -1.915424,11.2481 0.210346,0.32103 2.995816,3.11728 6.189936,6.21389 l 5.80748,5.63019 1.79271,7.19779 c 0.986,3.95878 1.90538,7.55498 2.04307,7.99154 0.17101,0.54218 1.00816,1.38076 2.64133,2.64583 1.31503,1.01865 4.07013,3.1989 6.12244,4.845 2.05232,1.64611 3.95704,3.11364 4.23272,3.26118 0.45983,0.24609 0.47404,0.21741 0.17194,-0.34709 -0.18111,-0.33844 -1.98686,-2.98543 -4.01277,-5.88221 -2.02592,-2.89678 -3.8429,-5.63522 -4.03774,-6.08542 -0.19484,-0.4502 -0.66202,-2.00917 -1.03818,-3.46437 -3.80173,-14.70719 -3.83959,-14.87194 -3.34747,-14.56779 0.13155,0.0813 1.5746,2.49934 3.20679,5.37343 1.6322,2.87408 3.25004,5.72147 3.59522,6.32752 0.41781,0.73359 1.87525,2.1026 4.36016,4.09562 3.34445,2.68241 4.09497,3.44822 7.21772,7.36475 1.91683,2.40408 3.89322,4.90683 4.39197,5.56167 2.74807,3.60815 4.70268,5.87277 5.66808,6.56709 1.3784,0.99134 10.05546,7.86705 13.47043,10.67398 2.60051,2.13748 3.32414,2.46409 2.41409,1.08959 -1.81298,-2.73827 -13.03063,-21.63319 -12.93509,-21.78777 0.0653,-0.1056 1.10155,-0.32442 2.30287,-0.48628 3.50469,-0.47218 17.38527,-2.14202 17.80564,-2.14202 0.23628,0 1.59628,2.42345 3.53913,6.30658 l 3.15539,6.30657 3.17636,2.29606 c 2.43243,1.75829 3.244,2.49659 3.46513,3.15227 2.4503,7.26539 2.53295,7.46749 3.18943,7.79818 0.3638,0.18326 1.93961,0.83941 3.5018,1.45812 l 2.84034,1.12492 7.28888,7.1128 c 4.00889,3.91203 7.35461,7.04706 7.43494,6.96673 0.0803,-0.0803 -0.50987,-2.15 -1.31157,-4.59925 -3.81418,-11.65259 -5.24508,-16.56626 -4.88984,-16.79151 0.19194,-0.12171 2.80496,-0.22311 5.8067,-0.22534 4.14194,-0.003 5.5261,0.0784 5.7414,0.33778 0.15603,0.18801 0.45607,1.50023 0.66675,2.91605 0.45529,3.05964 0.39093,2.96185 5.28961,8.03723 3.46184,3.5867 3.55908,3.72028 5.2918,7.26891 1.64795,3.37504 1.87484,3.70141 3.41727,4.91553 1.82266,1.43469 12.12045,10.56965 12.42985,11.02628 0.10692,0.15778 0.19621,0.83579 0.19844,1.50667 l 0.004,1.21981 -4.0349,0.1809 c -2.21919,0.0995 -7.01146,0.35386 -10.64948,0.56525 -3.63802,0.2114 -14.41318,0.73747 -23.94479,1.16907 -9.53161,0.43159 -18.28271,0.85048 -19.44687,0.93088 -3.48797,0.24087 -23.58507,0.68761 -23.97776,0.53301 -0.20015,-0.0788 -0.70455,-0.7654 -1.12088,-1.52579 -0.41625,-0.76038 -1.97894,-3.34704 -3.47256,-5.74813 -1.49362,-2.4011 -3.27396,-5.28081 -3.95631,-6.39937 -0.94384,-1.5472 -2.10692,-2.84318 -4.86174,-5.41726 -1.9916,-1.86093 -4.84687,-4.57531 -6.34505,-6.03194 -3.03335,-2.94923 -2.74367,-2.44908 -8.51119,-14.69518 -1.33645,-2.83766 -2.58212,-5.27844 -2.76817,-5.42396 -0.18605,-0.14552 -1.69532,-0.54449 -3.35393,-0.8866 -5.74047,-1.18406 -9.91945,-2.39438 -15.14921,-4.38753 -2.889,-1.10105 -5.541749,-2.00191 -5.894994,-2.00191 -0.76544,0 -11.968038,2.78309 -13.074393,3.24811 -0.718497,0.30199 -9.69996,9.91006 -10.284163,11.00165 -0.145727,0.2723 -1.4537,3.43544 -2.906607,7.02921 -2.030544,5.02256 -2.874435,6.79995 -3.647932,7.68325 -0.553455,0.63201 -2.129041,2.44055 -3.501299,4.01897 -1.372259,1.57842 -3.693978,4.21569 -5.159375,5.86061 -1.465398,1.64492 -3.132114,3.52226 -3.703817,4.17187 l -1.039461,1.18111 0.44754,1.91355 c 0.682093,2.91643 0.76907,2.76954 -1.742056,2.94198 -1.200547,0.0824 -5.099844,0.21887 -8.665104,0.30317 -3.56526,0.0843 -8.923072,0.26623 -11.906249,0.4043 -2.983177,0.13805 -11.555677,0.48613 -19.049999,0.77349 -7.494323,0.28736 -15.8882288,0.64334 -18.6531245,0.79107 -2.7648957,0.14773 -8.0036455,0.39207 -11.6416665,0.54298 -3.63802,0.15091 -8.936301,0.38802 -11.773957,0.52691 -2.837656,0.13889 -5.605859,0.25418 -6.151563,0.25619 l -0.992187,0.004 z m 176.984197,9.7868 c -0.0606,-0.0549 -2.01525,-0.17303 -4.34358,-0.26239 -4.7631,-0.18282 -12.1366,-0.5614 -19.51302,-1.00186 -4.33529,-0.25888 -4.96094,-0.35185 -4.96094,-0.7372 0,-0.24254 0.54036,-1.76986 1.20079,-3.39405 l 1.20078,-2.95309 -2.1421,-5.49918 c -3.71947,-9.54858 -5.10149,-12.82235 -5.47313,-12.96496 -0.35967,-0.13802 -5.72274,1.62515 -9.215259,3.02962 -2.132621,0.85761 -1.609133,0.0603 -5.981303,9.11037 l -2.897256,5.99713 0.918191,2.73412 c 0.505005,1.50376 0.837861,2.80907 0.73968,2.90067 -0.09818,0.0916 -2.202577,0.0681 -4.676431,-0.0522 -2.473854,-0.12031 -7.497786,-0.3033 -11.164294,-0.40665 -3.666506,-0.10336 -6.793989,-0.26679 -6.949961,-0.36319 -0.155972,-0.0964 -0.594762,-1.38808 -0.97509,-2.87041 l -0.691507,-2.69515 0.63001,-0.90055 c 0.346506,-0.49531 1.701572,-2.42811 3.011259,-4.29511 3.534278,-5.03824 4.521851,-6.70521 5.577504,-9.41454 0.525486,-1.34866 1.492607,-3.82132 2.149155,-5.49481 0.667829,-1.70224 1.639342,-3.62577 2.205217,-4.36619 0.556318,-0.72791 2.954544,-3.3257 5.329391,-5.77286 l 4.317899,-4.44938 6.35,0.95542 c 9.786115,1.47243 16.410625,2.42432 19.314585,2.77537 1.45521,0.17591 2.82396,0.41157 3.04167,0.52369 0.4125,0.21243 1.59592,2.19764 5.29277,8.87874 4.81707,8.7056 3.94908,7.60016 7.961,10.13883 1.95157,1.23492 4.67128,2.93928 6.04379,3.78747 1.37251,0.84819 2.59709,1.64377 2.72128,1.76796 0.12418,0.12418 0.62465,1.88252 1.11215,3.90743 0.4875,2.0249 1.34144,5.32623 1.89765,7.33628 1.13304,4.09462 1.12401,4.13915 -0.84028,4.14652 -0.59421,0.002 -1.12999,-0.0409 -1.19062,-0.0959 z"
           id="path819" /><path
           style="fill:#483556;stroke-width:0.264583"
           d="m -34.737718,242.25171 0.07525,-12.30313 3.571874,-0.16506 c 6.832308,-0.31574 105.640678,-0.31662 110.860412,-0.001 14.191521,0.85813 18.519438,1.17857 25.532282,1.89041 16.5569,1.68059 32.26139,2.8216 45.64063,3.31601 5.03731,0.18614 20.2869,-0.34092 50.40312,-1.74205 23.24407,-1.0814 28.64956,-1.30478 31.68385,-1.3093 l 3.10885,-0.005 v 11.31093 11.31094 H 100.6628 -34.812963 Z m -0.05705,-42.41264 v -10.16913 l 1.124479,-0.73846 c 1.055983,-0.69347 10.589039,-7.43041 16.470312,-11.63944 3.740595,-2.67702 10.9584192,-7.76222 15.5522762,-10.95709 2.15083746,-1.49583 4.3941283,-3.12366 4.985091,-3.6174 0.912114,-0.76205 1.220761,-0.87653 2.0425145,-0.7576 1.3464301,0.19486 11.9437863,1.18092 12.6940333,1.18115 0.435379,1.4e-4 1.818087,-1.1817 4.762499,-4.07065 l 4.149,-4.07084 3.704167,-0.31491 c 2.55864,-0.21753 3.922291,-0.45188 4.409495,-0.75781 0.38793,-0.24359 2.779898,-2.22882 5.315484,-4.41164 6.46321,-5.56398 10.177878,-8.65856 11.001192,-9.16473 0.644816,-0.39644 1.281713,-0.4034 7.451952,-0.0815 3.710781,0.19361 7.211478,0.35891 7.779324,0.36734 1.165392,0.0173 1.134152,0.0453 6.938198,-6.23163 l 3.207467,-3.46881 3.742671,-7.28575 3.742671,-7.28574 4.029731,-3.67899 c 7.747127,-7.07283 11.817651,-10.66293 12.089801,-10.66293 0.41368,0 0.3525,0.47373 -0.642813,4.97786 -2.273598,10.28884 -2.32937,10.61634 -1.915424,11.2481 0.210346,0.32103 2.995817,3.11728 6.189937,6.21389 l 5.80748,5.63019 1.79271,7.19779 c 0.986,3.95878 1.90538,7.55498 2.04307,7.99154 0.17101,0.54218 1.00816,1.38076 2.64133,2.64583 1.31503,1.01865 4.07013,3.1989 6.12244,4.845 2.05232,1.64611 3.95704,3.11364 4.23272,3.26118 0.45983,0.24609 0.47404,0.21741 0.17194,-0.34709 -0.18111,-0.33844 -1.98686,-2.98543 -4.01277,-5.88221 -2.02592,-2.89678 -3.8429,-5.63522 -4.03774,-6.08542 -0.19484,-0.4502 -0.66202,-2.00917 -1.03818,-3.46437 -3.80173,-14.70719 -3.83959,-14.87194 -3.34747,-14.56779 0.13155,0.0813 1.5746,2.49934 3.20679,5.37343 1.6322,2.87408 3.25004,5.72147 3.59522,6.32752 0.41781,0.73359 1.87525,2.1026 4.36016,4.09562 3.34445,2.68241 4.09497,3.44822 7.21772,7.36475 1.91683,2.40408 3.89322,4.90683 4.39197,5.56167 2.74807,3.60815 4.70268,5.87277 5.66808,6.56709 1.3784,0.99134 10.05546,7.86705 13.47043,10.67398 2.60051,2.13748 3.32414,2.46409 2.41409,1.08959 -1.81298,-2.73827 -13.03063,-21.63319 -12.93509,-21.78777 0.0653,-0.1056 1.10155,-0.32442 2.30287,-0.48628 3.50469,-0.47218 17.38527,-2.14202 17.80564,-2.14202 0.23628,0 1.59628,2.42345 3.53913,6.30658 l 3.15539,6.30657 3.17636,2.29606 c 2.43243,1.75829 3.244,2.49659 3.46513,3.15227 2.4503,7.26539 2.53295,7.46749 3.18943,7.79818 0.3638,0.18326 1.93961,0.83941 3.5018,1.45812 l 2.84034,1.12492 7.28888,7.1128 c 4.00889,3.91203 7.35461,7.04706 7.43494,6.96673 0.0803,-0.0803 -0.50987,-2.15 -1.31157,-4.59925 -3.81418,-11.65259 -5.24508,-16.56626 -4.88984,-16.79151 0.19194,-0.12171 2.80496,-0.22311 5.8067,-0.22534 4.14194,-0.003 5.5261,0.0784 5.7414,0.33778 0.15603,0.18801 0.45607,1.50023 0.66675,2.91605 0.45529,3.05964 0.39093,2.96185 5.28961,8.03723 3.46184,3.5867 3.55908,3.72028 5.2918,7.26891 1.64795,3.37504 1.87484,3.70141 3.41727,4.91553 1.82266,1.43469 12.12045,10.56965 12.42985,11.02628 0.10692,0.15778 0.19621,0.77761 0.19844,1.3774 l 0.004,1.09053 -3.50573,0.1798 c -1.92815,0.0989 -7.73245,0.4097 -12.89844,0.69068 -9.1605,0.49826 -15.01759,0.77999 -38.1,1.83258 -6.18463,0.28204 -14.96118,0.5904 -19.50343,0.68527 l -8.25864,0.17247 -0.73719,-1.25001 c -0.40546,-0.68751 -1.75348,-2.8724 -2.9956,-4.8553 -1.24212,-1.98291 -3.02806,-4.89584 -3.96875,-6.47316 -1.53331,-2.57102 -2.10746,-3.24022 -5.5468,-6.46501 -2.11005,-1.97843 -5.00207,-4.73601 -6.4267,-6.12796 -2.87583,-2.80994 -2.68883,-2.48485 -8.38025,-14.56937 -1.33645,-2.83766 -2.58212,-5.27844 -2.76817,-5.42396 -0.18605,-0.14552 -1.69532,-0.54449 -3.35393,-0.8866 -5.74047,-1.18406 -9.91945,-2.39438 -15.14921,-4.38753 -2.889,-1.10105 -5.54175,-2.00191 -5.894995,-2.00191 -0.76544,0 -11.968038,2.78309 -13.074393,3.24811 -0.718497,0.30199 -9.69996,9.91006 -10.284163,11.00165 -0.145727,0.2723 -1.4537,3.43544 -2.906607,7.02921 -2.030544,5.02256 -2.874435,6.79995 -3.647932,7.68325 -0.553455,0.63201 -2.129041,2.44055 -3.501299,4.01897 -1.372259,1.57842 -3.693978,4.21569 -5.159375,5.86061 -1.465398,1.64492 -3.132114,3.52226 -3.703817,4.17187 l -1.039461,1.18111 0.468897,1.98896 c 0.257895,1.09393 0.401968,2.16339 0.320162,2.37657 -0.120359,0.31365 -0.819206,0.38719 -3.662773,0.38546 -4.112976,-0.003 -15.914908,0.40826 -23.093197,0.80379 -2.764896,0.15234 -9.789583,0.45069 -15.610416,0.66299 -5.8208328,0.2123 -14.39333235,0.56565 -19.0499988,0.78523 -15.7680302,0.74353 -19.5692092,0.91293 -24.0770822,1.07304 -2.473854,0.0879 -4.706276,0.21762 -4.960937,0.28834 -0.435171,0.12085 -0.463021,-0.48307 -0.463021,-10.04055 z m 171.979158,9.42997 c -2.74782,-0.18898 -10.82547,-0.64186 -15.875,-0.89005 -6.44577,-0.31682 -7.9375,-0.4864 -7.9375,-0.90233 0,-0.17107 0.54036,-1.63993 1.20079,-3.26412 l 1.20078,-2.95309 -2.1421,-5.49918 c -3.71947,-9.54858 -5.10149,-12.82235 -5.47313,-12.96496 -0.35967,-0.13802 -5.72274,1.62515 -9.21526,3.02962 -2.132762,0.85767 -1.608463,0.0589 -5.985661,9.11939 l -2.901614,6.00616 0.810181,2.35962 c 1.213588,3.53452 1.382958,3.31673 -2.430963,3.12596 -1.78263,-0.0892 -6.832086,-0.23903 -11.22101,-0.33303 -4.388927,-0.094 -8.111722,-0.2524 -8.27288,-0.352 -0.161155,-0.0996 -0.604189,-1.39391 -0.984517,-2.87624 l -0.691507,-2.69515 0.63001,-0.90055 c 0.346506,-0.49531 1.701572,-2.42811 3.011259,-4.29511 3.534278,-5.03824 4.521851,-6.70521 5.577504,-9.41454 0.525486,-1.34866 1.492607,-3.82132 2.149155,-5.49481 0.667829,-1.70224 1.639342,-3.62577 2.205217,-4.36619 0.556318,-0.72791 2.954544,-3.3257 5.329391,-5.77286 l 4.317899,-4.44938 6.35,0.95542 c 9.786116,1.47243 16.410626,2.42432 19.314586,2.77537 1.45521,0.17591 2.82396,0.41157 3.04167,0.52369 0.4125,0.21243 1.59592,2.19764 5.29277,8.87874 4.81707,8.7056 3.94908,7.60016 7.961,10.13883 1.95157,1.23492 4.67128,2.93928 6.04379,3.78747 1.37251,0.84819 2.59709,1.64377 2.72128,1.76796 0.12418,0.12418 0.62363,1.88252 1.10989,3.90743 0.48626,2.0249 1.31551,5.22297 1.84279,7.10681 0.52727,1.88384 0.95868,3.58048 0.95868,3.77031 0,0.26817 -0.75231,0.33484 -3.37343,0.29892 -1.8554,-0.0254 -3.90922,-0.0831 -4.56407,-0.12811 z"
           id="path817" /><path
           style="fill:#2e3761;stroke-width:0.264583"
           d="m -34.737718,242.25171 0.07525,-12.30313 3.571874,-0.16506 c 6.832308,-0.31574 105.640678,-0.31662 110.860412,-0.001 14.191521,0.85813 18.519438,1.17857 25.532282,1.89041 16.5569,1.68059 32.26139,2.8216 45.64063,3.31601 5.03731,0.18614 20.2869,-0.34092 50.40312,-1.74205 23.24407,-1.0814 28.64956,-1.30478 31.68385,-1.3093 l 3.10885,-0.005 v 11.31093 11.31094 H 100.6628 -34.812963 Z m -0.05705,-42.42166 v -10.17816 l 0.992187,-0.58255 c 0.545704,-0.32041 2.54,-1.6863 4.431771,-3.03531 8.095561,-5.77291 16.775724,-11.92754 21.828124,-15.47715 2.9831769,-2.09585 6.83227686,-4.81086 8.5535528,-6.03334 1.7212759,-1.22249 3.1784553,-2.17385 3.2381717,-2.11413 0.2014061,0.2014 -1.5494661,5.09156 -2.0619401,5.75897 -0.2793497,0.3638 -2.04209114,2.28346 -3.9172064,4.2659 l -3.4093016,3.60445 -1.2119768,4.06242 c -0.7563696,2.53528 -1.4318799,4.29899 -1.796952,4.69172 -0.3217344,0.34612 -2.4006756,2.2411 -4.6198686,4.21106 -2.219192,1.96997 -4.034895,3.69183 -4.034895,3.82635 0,0.34708 0.861783,0.037 3.439583,-1.23755 1.236927,-0.61158 4.3782557,-2.05437 6.9807292,-3.20618 3.9054668,-1.7285 4.8526486,-2.25593 5.42395809,-3.02026 1.45708945,-1.94936 6.13325571,-7.40197 10.76172021,-12.54861 1.3181405,-1.46571 3.6148905,-4.12182 5.1038885,-5.90247 1.489001,-1.78065 2.970369,-3.37226 3.291925,-3.53691 0.321559,-0.16466 2.430121,-2.11572 4.685694,-4.33571 l 4.101041,-4.03634 2.645833,-0.17611 c 5.076973,-0.33795 5.038437,-0.32648 7.099364,-2.11297 8.981098,-7.78519 14.993344,-12.68997 14.993344,-12.23155 0,0.0644 -0.487699,1.88431 -1.083773,4.04421 -0.596075,2.1599 -1.182233,4.34381 -1.30257,4.85313 -0.120338,0.50932 -0.38943,1.58089 -0.597985,2.38125 -0.208555,0.80037 -0.531125,2.11005 -0.71682,2.91042 -0.185695,0.80036 -0.488815,1.75286 -0.673603,2.11666 -0.395218,0.77809 -4.487015,4.9828 -6.25843,6.43113 -0.677513,0.55394 -1.417682,1.2908 -1.644821,1.63746 -0.448006,0.68374 -1.155912,3.73404 -2.026608,8.73245 -0.835004,4.79352 -0.875488,5.15938 -0.570894,5.15938 0.151482,0 1.797079,-1.63711 3.656883,-3.63802 1.859803,-2.00091 5.53631,-5.90021 8.170012,-8.6651 5.063173,-5.31539 6.394072,-6.97443 9.995974,-12.46054 3.123393,-4.75728 6.546818,-10.03213 7.589432,-11.69387 0.483201,-0.77013 1.214173,-1.5738 1.624389,-1.78593 0.410215,-0.21213 0.84106,-0.55496 0.957434,-0.76183 0.116372,-0.20688 1.921716,-2.21906 4.011872,-4.47152 2.090157,-2.25245 4.096368,-4.61327 4.45825,-5.24626 0.361878,-0.63299 2.073153,-3.95335 3.802829,-7.37859 l 3.144869,-6.2277 4.946658,-4.48792 c 7.620746,-6.91402 10.732116,-9.6473 10.981814,-9.6473 0.12568,0 0.16402,0.26789 0.0852,0.59531 -0.732098,3.04117 -3.041781,14.2516 -3.041781,14.76375 0,0.47802 4.504861,5.14963 10.185321,10.56233 0.98819,0.94162 1.94174,2.07271 2.119,2.51355 0.17726,0.44083 1.13149,4.05555 2.12052,8.03269 l 1.79823,7.23117 1.21503,1.01834 c 2.79705,2.34427 11.84449,9.46624 12.39367,9.75606 1.08739,0.57385 0.69181,-0.48743 -1.17192,-3.14404 -7.15168,-10.19416 -6.85011,-9.67743 -7.75647,-13.29037 -0.41137,-1.63983 -1.12445,-4.41025 -1.58461,-6.1565 -1.51475,-5.74829 -1.59169,-6.06074 -1.59169,-6.46446 0,-0.52169 0.40687,0.0661 1.72756,2.49571 0.55372,1.01865 1.50314,2.68552 2.10984,3.70417 0.60669,1.01864 1.47255,2.50692 1.92413,3.30729 0.62559,1.10876 1.52559,2.02211 3.78037,3.83646 4.36875,3.51537 4.72008,3.83162 5.7694,5.19332 0.52832,0.6856 2.21073,2.81866 3.7387,4.74012 1.52797,1.92146 3.54016,4.46108 4.47154,5.6436 2.79533,3.54911 3.68992,4.36629 10.47742,9.57093 1.30969,1.00426 4.1034,3.22798 6.20824,4.94158 2.10485,1.71361 3.98008,3.11565 4.16719,3.11565 0.49111,0 0.41597,-0.54442 -0.20084,-1.45521 -2.22708,-3.28849 -12.98108,-21.64064 -12.7913,-21.82888 0.22672,-0.22489 3.74087,-0.70251 13.59692,-1.84801 2.54661,-0.29598 4.94461,-0.603 5.32889,-0.68227 0.67611,-0.13948 0.78411,0.0294 3.34272,5.22835 1.45421,2.95487 2.85148,5.82206 3.10503,6.37154 0.3186,0.69045 1.12493,1.48444 2.61041,2.57046 4.84058,3.53892 4.20583,2.73146 5.72104,7.27768 0.74471,2.23442 1.4959,4.17988 1.66932,4.32324 0.17341,0.14336 1.61837,0.75586 3.21101,1.36112 3.28184,1.2472 3.92059,1.64167 5.98713,3.69745 9.90851,9.85688 12.72215,12.51141 12.9839,12.24967 0.20405,-0.20406 -0.0578,-1.32826 -0.91911,-3.94659 -0.66244,-2.01369 -1.93425,-5.98297 -2.82625,-8.82063 -0.892,-2.83766 -1.91004,-6.04355 -2.26232,-7.12421 -0.35228,-1.08066 -0.60762,-1.99772 -0.56743,-2.03791 0.0402,-0.0402 2.51101,-0.1549 5.4907,-0.2549 4.46711,-0.14993 5.46994,-0.11732 5.71579,0.18582 0.164,0.20221 0.43573,1.41547 0.60385,2.69614 0.16812,1.28066 0.40997,2.60281 0.53745,2.93811 0.23394,0.61532 4.72145,5.62938 7.00798,7.83028 0.92572,0.89105 1.65962,2.06178 2.91676,4.65286 1.68877,3.4807 1.99639,3.88003 4.80819,6.24175 0.74907,0.62916 3.36968,2.92987 5.82356,5.11268 2.45391,2.18282 4.78782,4.22401 5.1865,4.536 0.57356,0.44883 0.72487,0.78695 0.72487,1.61969 v 1.05245 l -3.50572,0.1798 c -1.92815,0.0989 -7.73245,0.4097 -12.89844,0.69068 -9.17699,0.49916 -15.19033,0.78833 -38.1,1.83214 -6.18463,0.28178 -14.88494,0.58911 -19.33402,0.68295 l -8.08923,0.17062 -2.0727,-3.39779 c -1.13999,-1.86878 -3.21413,-5.30279 -4.60921,-7.63112 -1.81028,-3.02129 -3.02935,-4.72756 -4.25786,-5.95955 -2.42511,-2.43196 -10.0231,-9.57614 -10.66022,-10.02352 -0.49216,-0.34559 -2.16671,-3.67152 -7.07248,-14.04714 -1.06647,-2.25557 -2.06739,-4.23436 -2.22426,-4.39732 -0.15687,-0.16295 -1.05913,-0.43862 -2.00502,-0.61259 -3.02874,-0.55708 -9.32944,-2.08559 -11.37708,-2.76001 -1.0914,-0.35948 -3.88937,-1.38623 -6.21771,-2.28168 -2.32833,-0.89545 -4.59052,-1.62913 -5.027083,-1.6304 -1.372714,-0.004 -13.29869,3.12756 -13.994182,3.67463 -0.355481,0.27962 -1.280911,1.21341 -2.056508,2.07508 -0.775597,0.86167 -2.7358,3.00364 -4.356002,4.75994 -1.620203,1.75629 -3.131137,3.55162 -3.357629,3.98961 -0.226494,0.43799 -1.546788,3.623 -2.933988,7.0778 -1.387202,3.4548 -2.83772,6.6601 -3.223374,7.12289 -1.621332,1.9456 -11.481902,13.16063 -12.720205,14.46747 -0.919882,0.97079 -1.144693,2.16902 -0.654516,3.4885 0.125153,0.3369 0.309142,1.05902 0.408863,1.60473 l 0.181314,0.99218 -3.51772,-0.002 c -4.116194,-0.003 -15.9162,0.40814 -23.096883,0.80379 -2.764896,0.15235 -9.789583,0.45069 -15.610416,0.66299 -5.8208328,0.2123 -14.39333235,0.56565 -19.0499988,0.78524 -15.7680302,0.74352 -19.5692092,0.91293 -24.0770822,1.07304 -2.473854,0.0879 -4.706276,0.21761 -4.960937,0.28833 -0.435176,0.12082 -0.463021,-0.48353 -0.463021,-10.0496 z m 150.977618,8.27809 c -1.29163,-0.11718 -2.45625,-0.32089 -2.58804,-0.45268 -0.1431,-0.14311 0.24332,-1.39232 0.95936,-3.10139 0.65944,-1.57398 1.19897,-3.05724 1.19897,-3.29613 0,-0.45827 -1.86874,-5.33245 -5.2052,-13.57654 -1.92096,-4.74651 -2.03915,-4.96094 -2.73435,-4.96094 -0.39963,0 -2.49742,0.64133 -4.66176,1.42517 -6.958249,2.52003 -5.74093,1.37768 -9.34896,8.77321 -1.723877,3.53349 -3.281397,6.83127 -3.461157,7.32839 -0.292148,0.80792 -0.238676,1.1685 0.503753,3.39701 0.456827,1.37124 0.830593,2.60045 0.830593,2.73159 0,0.26464 -6.988529,0.0374 -7.741345,-0.25171 -0.255919,-0.0983 -0.543931,-0.49299 -0.64003,-0.87712 -0.0961,-0.38413 -0.690383,-1.92989 -1.320633,-3.43503 -0.630248,-1.50513 -1.145908,-2.88207 -1.145908,-3.05985 0,-0.56887 12.720258,-21.54937 13.484465,-22.24097 0.669317,-0.60572 6.306932,-1.96968 8.195422,-1.98278 1.44747,-0.0101 10.34326,1.68882 11.18002,2.1351 0.24665,0.13155 1.3027,1.75654 2.34678,3.6111 1.04408,1.85456 2.5235,4.44349 3.28759,5.75318 0.7641,1.30969 2.18367,3.7806 3.1546,5.49092 0.97094,1.71032 2.3633,4.09157 3.09415,5.29167 0.95721,1.57181 1.29239,2.36697 1.19857,2.84345 -0.0716,0.3638 -1.06162,2.4474 -2.19998,4.63021 l -2.06974,3.96875 -1.98438,0.0342 c -1.0914,0.0188 -3.04116,-0.0616 -4.33279,-0.17884 z"
           id="path815" /><path
           style="fill:#23514e;stroke-width:0.264583"
           d="m -34.737718,242.25171 0.07525,-12.30313 3.571874,-0.16506 c 6.832308,-0.31574 105.640678,-0.31662 110.860412,-0.001 14.191521,0.85813 18.519438,1.17857 25.532282,1.89041 16.5569,1.68059 32.26139,2.8216 45.64063,3.31601 5.03731,0.18614 20.2869,-0.34092 50.40312,-1.74205 23.24407,-1.0814 28.64956,-1.30478 31.68385,-1.3093 l 3.10885,-0.005 v 11.31093 11.31094 H 100.6628 -34.812963 Z m -0.0564,-36.81492 c 9.57e-4,-6.77066 0.317882,-16.08172 0.545339,-16.0217 0.108883,0.0287 4.217755,-2.80526 9.130825,-6.29776 11.557645,-8.21585 14.401018,-10.22452 21.2794355,-15.0326 3.12869774,-2.187 6.1975812,-4.38936 6.8197409,-4.89415 0.6221571,-0.50478 1.1863678,-0.86262 1.2537968,-0.79519 0.2116561,0.21165 -1.5149617,5.0789 -2.0479198,5.77299 -0.2793497,0.3638 -2.04209114,2.28346 -3.9172064,4.2659 l -3.4093016,3.60445 -1.2119768,4.06242 c -0.7563696,2.53528 -1.4318799,4.29899 -1.796952,4.69172 -0.3217344,0.34612 -2.4006756,2.2411 -4.6198686,4.21106 -2.219192,1.96997 -4.034895,3.69183 -4.034895,3.82635 0,0.34042 0.862944,0.0378 3.175,-1.11336 1.881306,-0.9367 10.4872728,-4.78494 11.415238,-5.10443 0.2392653,-0.0824 0.7750465,-0.60483 1.1906249,-1.16101 1.51826905,-2.03194 6.1088267,-7.38949 10.8251276,-12.6338 1.3181405,-1.46571 3.6228075,-4.13123 5.1214815,-5.92336 1.498676,-1.79214 3.017234,-3.3696 3.374569,-3.50546 0.357339,-0.13586 2.463864,-2.02845 4.681165,-4.20577 l 4.031458,-3.95875 3.161938,-0.2836 c 4.796742,-0.43023 4.764195,-0.42045 6.435693,-1.93536 1.789787,-1.62213 7.657774,-6.63558 9.968954,-8.51721 0.893707,-0.7276 2.37123,-1.9542 3.283389,-2.72577 0.912162,-0.77157 1.706242,-1.35508 1.764628,-1.2967 0.05839,0.0584 -0.371009,1.8803 -0.954209,4.04869 l -1.060363,3.94253 -1.523494,1.37875 c -0.837923,0.75831 -1.620735,1.38339 -1.739585,1.38906 -1.578587,0.0754 -14.400159,13.33106 -18.304742,18.92454 -0.582084,0.83386 -2.30849,3.18874 -3.836459,5.23307 -1.527968,2.04432 -3.50231,4.74008 -4.387423,5.99056 -0.885114,1.25048 -1.778082,2.2736 -1.984375,2.2736 -0.46205,0 -0.405056,-1.511 0.161758,-4.28832 0.418539,-2.0508 0.512659,-4.04658 0.19077,-4.04521 -0.109141,5.3e-4 -0.912813,0.47633 -1.785938,1.05749 -0.873124,0.58116 -1.678823,1.05703 -1.79044,1.05749 -0.111617,5.3e-4 -1.064117,0.52276 -2.116667,1.16066 -1.052549,0.63789 -2.378456,1.42002 -2.9464604,1.73805 -0.5680048,0.31802 -2.294411,1.3274 -3.8364582,2.24307 -4.0610576,2.41145 -7.12321,4.11948 -7.385383,4.11948 -0.1255051,0 -0.3506284,0.26872 -0.5002741,0.59716 -0.2232792,0.49004 -2.4023213,3.10035 -5.165148,6.18741 l -0.50732,0.56685 5.1126176,-0.12154 c 5.8333532,-0.13869 9.6406569,-0.81974 16.8483011,-3.01384 2.850628,-0.86777 3.083811,-0.79894 5.213304,1.53879 1.027256,1.12771 2.149171,2.43489 2.493145,2.90485 0.712679,0.97372 1.531573,1.28799 3.973491,1.52495 3.755536,0.36443 7.294605,0.97197 7.63687,1.311 0.457157,0.45284 -0.02673,2.00271 -1.832851,5.87059 -1.473486,3.15551 -1.300059,3.06461 -6.068602,3.18094 -1.673489,0.0408 -4.590521,0.13711 -6.482291,0.21395 -1.891771,0.0769 -4.927865,0.18929 -6.746875,0.24987 -1.81901,0.0606 -4.7360414,0.18084 -6.4822913,0.26726 -1.7462499,0.0864 -4.813067,0.20929 -6.81514778,0.27306 -2.00208082,0.0638 -3.72848702,0.17033 -3.83645812,0.23682 -0.1689365,0.10403 -6.5662778,0.38227 -13.6900598,0.59543 -1.164166,0.0348 -3.843073,0.13486 -5.953125,0.22227 -2.110051,0.0874 -5.086614,0.20157 -6.614583,0.25369 -1.527968,0.0521 -2.986484,0.18155 -3.241145,0.2876 -0.430609,0.17934 -0.462976,-0.12864 -0.462372,-4.39953 z m 150.976968,2.67135 c -1.29163,-0.11718 -2.45625,-0.32089 -2.58804,-0.45268 -0.1431,-0.14311 0.24332,-1.39232 0.95936,-3.10139 0.65944,-1.57398 1.19897,-3.05724 1.19897,-3.29613 0,-0.45827 -1.86874,-5.33245 -5.2052,-13.57654 -1.92096,-4.74651 -2.03915,-4.96094 -2.73435,-4.96094 -0.63353,0 -6.4188,1.9679 -9.735164,3.3115 l -1.138258,0.46115 -3.312219,6.77878 c -1.821719,3.72833 -3.369161,7.07643 -3.438762,7.44024 -0.0696,0.3638 0.236476,1.72558 0.680164,3.02619 0.44369,1.30061 0.806709,2.47976 0.806709,2.62034 0,0.28098 -6.947069,0.0705 -7.741345,-0.23454 -0.255919,-0.0983 -0.543931,-0.49299 -0.64003,-0.87712 -0.0961,-0.38413 -0.690383,-1.92989 -1.320633,-3.43503 -0.630248,-1.50513 -1.145908,-2.88207 -1.145908,-3.05985 0,-0.56887 12.720258,-21.54937 13.484465,-22.24097 0.669317,-0.60572 6.306931,-1.96968 8.195421,-1.98278 1.44747,-0.0101 10.34326,1.68882 11.18002,2.1351 0.24665,0.13155 1.3027,1.75654 2.34678,3.6111 1.04408,1.85456 2.5235,4.44349 3.28759,5.75318 0.7641,1.30969 2.18367,3.7806 3.1546,5.49092 0.97094,1.71032 2.3633,4.09157 3.09415,5.29167 0.95721,1.57181 1.29239,2.36697 1.19857,2.84345 -0.0716,0.3638 -1.06162,2.4474 -2.19998,4.63021 l -2.06974,3.96875 -1.98438,0.0342 c -1.0914,0.0188 -3.04116,-0.0616 -4.33279,-0.17884 z m 87.9767,-17.11945 c -0.24563,-0.4593 -3.24522,-9.70779 -5.48593,-16.91456 -0.64154,-2.06335 -1.2382,-3.93858 -1.32593,-4.16719 -0.14194,-0.36988 0.46823,-0.41565 5.54173,-0.41565 3.13568,0 5.75437,0.0893 5.81931,0.19844 0.0649,0.10914 0.26988,1.45288 0.45542,2.98609 l 0.33734,2.78764 -1.19155,1.84256 c -1.26893,1.96221 -1.27606,1.9887 -2.90065,10.77149 -0.34312,1.85497 -0.70897,3.37301 -0.81299,3.37343 -0.10402,5.3e-4 -0.30056,-0.20759 -0.43675,-0.46225 z m -33.44074,-2.24896 c -0.6418,-0.76398 -1.89978,-2.34156 -2.7955,-3.50573 -0.89573,-1.16417 -2.98956,-3.84307 -4.65296,-5.95312 -1.66341,-2.11006 -3.09118,-4.16693 -3.17282,-4.57084 -0.0816,-0.4039 -0.60622,-1.41594 -1.16571,-2.24895 -2.55465,-3.80358 -12.8019,-21.2794 -12.5904,-21.47187 0.12963,-0.11796 1.84302,-0.40567 3.80756,-0.63935 1.96453,-0.23368 6.13171,-0.73412 9.26041,-1.11207 3.1287,-0.37796 5.91816,-0.70828 6.1988,-0.73404 0.38323,-0.0352 0.58706,0.21661 0.81882,1.01149 0.38739,1.32867 0.49522,8.28622 0.15582,10.05417 -0.13968,0.7276 -0.4572,3.65412 -0.70559,6.50338 l -0.45163,5.18046 2.16682,5.79975 c 1.19176,3.18986 2.45748,6.46947 2.81273,7.28804 0.35524,0.81856 0.6459,1.55917 0.6459,1.6458 0,0.0866 0.28368,0.78612 0.63041,1.55441 0.34673,0.7683 0.71194,1.6648 0.81158,1.99222 0.32365,1.0635 -0.53775,0.67813 -1.77424,-0.79375 z M 40.540187,175.18434 c 0.120769,-0.21581 2.954422,-3.264 6.297001,-6.77377 3.342579,-3.50977 6.776606,-7.29203 7.63117,-8.40503 1.69205,-2.20374 6.732563,-9.75967 11.631189,-17.4356 0.673295,-1.05503 1.386429,-1.91823 1.58474,-1.91823 0.198313,0 1.4175,-1.16086 2.709307,-2.57969 1.291809,-1.41882 3.256986,-3.53218 4.367064,-4.69635 2.057191,-2.15743 3.435805,-4.53568 8.219543,-14.17956 1.232476,-2.48464 1.351999,-2.62344 5.695875,-6.61459 2.440339,-2.24217 4.990142,-4.55293 5.666227,-5.13502 0.676087,-0.58208 2.260494,-1.99818 3.520905,-3.14688 1.260414,-1.1487 2.342652,-2.03755 2.404982,-1.97522 0.0623,0.0623 -0.18424,1.41889 -0.547914,3.01458 -0.363678,1.5957 -1.137126,5.22299 -1.718775,8.06065 l -1.05754,5.15937 -1.972492,3.47766 c -1.084869,1.91272 -1.97249,3.66186 -1.97249,3.88699 0,0.22513 -0.100433,0.4714 -0.223184,0.54727 -0.122751,0.0759 -0.731028,1.72 -1.351725,3.65363 -1.653561,5.15128 -2.092248,6.18534 -3.347331,7.89025 -1.942576,2.6388 -3.519146,5.59189 -3.809079,7.13483 -0.426291,2.26856 -0.428717,2.2718 -2.718609,3.61997 -1.190921,0.70115 -2.405867,1.41898 -2.69988,1.59517 -0.294013,0.1762 -0.71316,0.40759 -0.931442,0.51422 -0.218281,0.10663 -1.201327,0.71289 -2.184548,1.34724 -1.300363,0.83896 -1.939745,1.45609 -2.345552,2.2639 -0.306832,0.6108 -0.948224,1.76538 -1.425316,2.56575 -1.359291,2.28034 -5.153392,9.26858 -5.558308,10.23767 -0.20099,0.48104 -0.69437,1.30587 -1.096396,1.83296 l -0.730962,0.95834 -2.780262,-0.12365 c -4.615704,-0.20529 -5.905503,0.038 -12.189071,2.29901 -3.128698,1.12581 -6.433933,2.33258 -7.34497,2.68171 -1.947103,0.74618 -2.008952,0.75489 -1.722157,0.24242 z"
           id="path813" /><path
           style="fill:#2b3057;stroke-width:0.264583"
           d="m -34.584074,247.28858 c 0.04312,-3.99643 0.102652,-7.28573 0.132292,-7.30956 0.258582,-0.20784 102.670591,-0.29087 107.47472,-0.0871 17.640691,0.74811 30.628272,1.85396 43.523952,3.70591 1.55134,0.22279 6.29893,0.77381 13.22917,1.53543 15.99246,1.75753 29.70961,2.0212 51.06458,0.98157 4.58391,-0.22316 12.56109,-0.59178 17.72708,-0.81916 8.56574,-0.37703 14.84609,-0.70256 20.50521,-1.06285 5.75697,-0.36653 12.17086,-0.65787 14.48594,-0.658 l 2.57968,-1.6e-4 v 5.49011 5.4901 H 100.73804 -34.662473 Z m -0.210042,-41.99253 c 9.7e-4,-6.65086 0.319966,-15.94043 0.545339,-15.88096 0.108883,0.0287 4.217755,-2.80526 9.130825,-6.29776 11.557645,-8.21585 14.401018,-10.22452 21.2794355,-15.0326 3.12869774,-2.187 6.1975812,-4.38936 6.8197409,-4.89415 0.6221571,-0.50478 1.1863678,-0.86262 1.2537968,-0.79519 0.2116561,0.21165 -1.5149617,5.0789 -2.0479198,5.77299 -0.2793497,0.3638 -2.04209114,2.28346 -3.9172064,4.2659 l -3.4093016,3.60445 -1.2119768,4.06242 c -0.7563696,2.53528 -1.4318799,4.29899 -1.796952,4.69172 -0.3217344,0.34612 -2.4006756,2.2411 -4.6198686,4.21106 -2.219192,1.96997 -4.034895,3.69183 -4.034895,3.82635 0,0.34042 0.862944,0.0378 3.175,-1.11336 1.881306,-0.9367 10.4872728,-4.78494 11.415238,-5.10443 0.2392653,-0.0824 0.7750465,-0.60483 1.1906249,-1.16101 1.51826905,-2.03194 6.1088267,-7.38949 10.8251276,-12.6338 1.3181405,-1.46571 3.6228075,-4.13123 5.1214815,-5.92336 1.498676,-1.79214 3.017234,-3.3696 3.374569,-3.50546 0.357339,-0.13586 2.463864,-2.02845 4.681165,-4.20577 l 4.031458,-3.95875 3.161938,-0.2836 c 4.796742,-0.43023 4.764195,-0.42045 6.435693,-1.93536 1.789787,-1.62213 7.657774,-6.63558 9.968954,-8.51721 0.893707,-0.7276 2.37123,-1.9542 3.283389,-2.72577 0.912162,-0.77157 1.706242,-1.35508 1.764628,-1.2967 0.05839,0.0584 -0.371009,1.8803 -0.954209,4.04869 l -1.060363,3.94253 -1.523494,1.37875 c -0.837923,0.75831 -1.620735,1.38339 -1.739585,1.38906 -1.578587,0.0754 -14.400159,13.33106 -18.304742,18.92454 -0.582084,0.83386 -2.30849,3.18874 -3.836459,5.23307 -1.527968,2.04432 -3.50231,4.74008 -4.387423,5.99056 -0.885114,1.25048 -1.778082,2.2736 -1.984375,2.2736 -0.46205,0 -0.405056,-1.511 0.161758,-4.28832 0.418539,-2.0508 0.512659,-4.04658 0.19077,-4.04521 -0.109141,5.3e-4 -0.912813,0.47633 -1.785938,1.05749 -0.873124,0.58116 -1.678823,1.05703 -1.79044,1.05749 -0.111617,5.3e-4 -1.064117,0.52276 -2.116667,1.16066 -1.052549,0.63789 -2.378456,1.42002 -2.9464604,1.73805 -0.5680048,0.31802 -2.294411,1.3274 -3.8364582,2.24307 -4.0610576,2.41145 -7.12321,4.11948 -7.385383,4.11948 -0.1255051,0 -0.3506284,0.26872 -0.5002741,0.59716 -0.2232792,0.49004 -2.4023213,3.10035 -5.165148,6.18741 l -0.50732,0.56685 5.1126176,-0.12154 c 5.8333532,-0.13869 9.6406569,-0.81974 16.8483011,-3.01384 2.850628,-0.86777 3.083811,-0.79894 5.213304,1.53879 1.027256,1.12771 2.149171,2.43489 2.493145,2.90485 0.712679,0.97372 1.531573,1.28799 3.973491,1.52495 3.755536,0.36443 7.294605,0.97197 7.63687,1.311 0.457475,0.45316 -0.0268,2.00287 -1.837889,5.88137 -1.491749,3.19463 -0.727794,2.90286 -8.180231,3.12421 -2.837656,0.0843 -7.83828,0.26874 -11.112499,0.40991 -3.2742186,0.14116 -8.7510933,0.37752 -12.17083272,0.52523 -3.41973938,0.14772 -8.53942668,0.38237 -11.37708228,0.52146 -2.837657,0.13909 -8.255,0.37496 -12.038542,0.52415 -3.783541,0.14919 -7.920963,0.33994 -9.19427,0.42389 l -2.315104,0.15263 z m 152.134756,2.76823 c -1.96453,-0.13922 -3.66492,-0.34208 -3.77866,-0.45079 -0.11373,-0.10871 0.33275,-1.48545 0.99219,-3.05942 0.65944,-1.57398 1.19897,-3.05724 1.19897,-3.29613 0,-0.45827 -1.86874,-5.33245 -5.2052,-13.57654 -1.92096,-4.74651 -2.03915,-4.96094 -2.73435,-4.96094 -0.63353,0 -6.4188,1.9679 -9.735162,3.3115 l -1.138258,0.46115 -3.312219,6.77878 c -1.821719,3.72833 -3.369161,7.07643 -3.438762,7.44024 -0.0696,0.3638 0.235846,1.72372 0.678767,3.02205 0.44292,1.29833 0.747818,2.4181 0.677547,2.48836 -0.170817,0.17082 -7.229167,0.0479 -7.703602,-0.13418 -0.20487,-0.0786 -0.451115,-0.45723 -0.547214,-0.84136 -0.0961,-0.38413 -0.690383,-1.92989 -1.320633,-3.43503 -0.630248,-1.50513 -1.145908,-2.88207 -1.145908,-3.05985 0,-0.56887 12.720258,-21.54937 13.484465,-22.24097 0.669317,-0.60572 6.306929,-1.96968 8.195419,-1.98278 1.44747,-0.0101 10.34326,1.68882 11.18002,2.1351 0.24665,0.13155 1.3027,1.75654 2.34678,3.6111 1.04408,1.85456 2.5235,4.44349 3.28759,5.75318 0.7641,1.30969 2.18367,3.7806 3.1546,5.49092 0.97094,1.71032 2.3633,4.09157 3.09415,5.29167 0.95721,1.57181 1.29239,2.36697 1.19857,2.84345 -0.0716,0.3638 -1.06162,2.4474 -2.19998,4.63021 -2.39554,4.59346 -1.60293,4.17899 -7.22912,3.78028 z m 86.81891,-17.07559 c -0.24563,-0.4593 -3.24522,-9.70779 -5.48593,-16.91456 -0.64154,-2.06335 -1.2382,-3.93858 -1.32593,-4.16719 -0.14194,-0.36988 0.46823,-0.41565 5.54173,-0.41565 3.13568,0 5.75437,0.0893 5.81931,0.19844 0.0649,0.10914 0.26988,1.45288 0.45542,2.98609 l 0.33734,2.78764 -1.19155,1.84256 c -1.26893,1.96221 -1.27606,1.9887 -2.90065,10.77149 -0.34312,1.85497 -0.70897,3.37301 -0.81299,3.37343 -0.10402,5.3e-4 -0.30056,-0.20759 -0.43675,-0.46225 z m -33.44074,-2.24896 c -0.6418,-0.76398 -1.89978,-2.34156 -2.7955,-3.50573 -0.89573,-1.16417 -2.98956,-3.84307 -4.65296,-5.95312 -1.66341,-2.11006 -3.09118,-4.16693 -3.17282,-4.57084 -0.0816,-0.4039 -0.60622,-1.41594 -1.16571,-2.24895 -2.55465,-3.80358 -12.8019,-21.2794 -12.5904,-21.47187 0.12963,-0.11796 1.84302,-0.40567 3.80756,-0.63935 1.96453,-0.23368 6.13171,-0.73412 9.26041,-1.11207 3.1287,-0.37796 5.91816,-0.70828 6.1988,-0.73404 0.38323,-0.0352 0.58706,0.21661 0.81882,1.01149 0.38739,1.32867 0.49522,8.28622 0.15582,10.05417 -0.13968,0.7276 -0.4572,3.65412 -0.70559,6.50338 l -0.45163,5.18046 2.16682,5.79975 c 1.19176,3.18986 2.45748,6.46947 2.81273,7.28804 0.35524,0.81856 0.6459,1.55917 0.6459,1.6458 0,0.0866 0.28368,0.78612 0.63041,1.55441 0.34673,0.7683 0.71194,1.6648 0.81158,1.99222 0.32365,1.0635 -0.53775,0.67813 -1.77424,-0.79375 z M 40.540187,175.18434 c 0.120769,-0.21581 2.954422,-3.264 6.297001,-6.77377 3.342579,-3.50977 6.776606,-7.29203 7.63117,-8.40503 1.69205,-2.20374 6.732563,-9.75967 11.631189,-17.4356 0.673295,-1.05503 1.386429,-1.91823 1.58474,-1.91823 0.198313,0 1.4175,-1.16086 2.709307,-2.57969 1.291809,-1.41882 3.256986,-3.53218 4.367064,-4.69635 2.057191,-2.15743 3.435805,-4.53568 8.219543,-14.17956 1.232476,-2.48464 1.351999,-2.62344 5.695875,-6.61459 2.440339,-2.24217 4.990142,-4.55293 5.666227,-5.13502 0.676087,-0.58208 2.260494,-1.99818 3.520905,-3.14688 1.260414,-1.1487 2.342652,-2.03755 2.404982,-1.97522 0.0623,0.0623 -0.18424,1.41889 -0.547914,3.01458 -0.363678,1.5957 -1.137126,5.22299 -1.718775,8.06065 l -1.05754,5.15937 -1.972492,3.47766 c -1.084869,1.91272 -1.97249,3.66186 -1.97249,3.88699 0,0.22513 -0.100433,0.4714 -0.223184,0.54727 -0.122751,0.0759 -0.731028,1.72 -1.351725,3.65363 -1.653561,5.15128 -2.092248,6.18534 -3.347331,7.89025 -1.942576,2.6388 -3.519146,5.59189 -3.809079,7.13483 -0.426291,2.26856 -0.428717,2.2718 -2.718609,3.61997 -1.190921,0.70115 -2.405867,1.41898 -2.69988,1.59517 -0.294013,0.1762 -0.71316,0.40759 -0.931442,0.51422 -0.218281,0.10663 -1.201327,0.71289 -2.184548,1.34724 -1.300363,0.83896 -1.939745,1.45609 -2.345552,2.2639 -0.306832,0.6108 -0.948224,1.76538 -1.425316,2.56575 -1.359291,2.28034 -5.153392,9.26858 -5.558308,10.23767 -0.20099,0.48104 -0.69437,1.30587 -1.096396,1.83296 l -0.730962,0.95834 -2.780262,-0.12365 c -4.615704,-0.20529 -5.905503,0.038 -12.189071,2.29901 -3.128698,1.12581 -6.433933,2.33258 -7.34497,2.68171 -1.947103,0.74618 -2.008952,0.75489 -1.722157,0.24242 z"
           id="path811" /><path
           style="fill:#1b4042;stroke-width:0.264583"
           d="m -34.584074,247.28858 c 0.04312,-3.99643 0.102652,-7.28573 0.132292,-7.30956 0.258582,-0.20784 102.670591,-0.29087 107.47472,-0.0871 17.640691,0.74811 30.628272,1.85396 43.523952,3.70591 1.55134,0.22279 6.29893,0.77381 13.22917,1.53543 15.99246,1.75753 29.70961,2.0212 51.06458,0.98157 4.58391,-0.22316 12.56109,-0.59178 17.72708,-0.81916 8.56574,-0.37703 14.84609,-0.70256 20.50521,-1.06285 5.75697,-0.36653 12.17086,-0.65787 14.48594,-0.658 l 2.57968,-1.6e-4 v 5.49011 5.4901 H 100.73804 -34.662473 Z m 0.01191,-47.83628 c 0.04967,-5.63725 0.146927,-10.10661 0.216123,-9.93191 0.07719,0.19489 1.576021,-0.71741 3.878438,-2.36072 17.492393,-12.48483 20.8741902,-14.88149 26.7976281,-18.99129 1.9925161,-1.38245 4.46269246,-3.13461 5.489281,-3.8937 1.0265886,-0.75908 1.9011132,-1.34556 1.9433883,-1.30328 0.1392741,0.13927 -1.3904276,4.28135 -1.7938405,4.85731 -0.2172044,0.3101 -1.77845233,1.99916 -3.469444,3.75348 -1.6909917,1.75431 -3.3039366,3.4813 -3.5843208,3.83775 -0.2803843,0.35645 -1.0237973,2.44792 -1.6520292,4.6477 -1.2454096,4.36086 -1.2809881,4.41495 -4.8967859,7.444 -2.691309,2.25458 -6.482292,5.89314 -6.482292,6.22166 0,0.20033 0.04966,0.36424 0.110357,0.36424 0.176609,0 2.195986,-0.9025 5.049018,-2.2565 4.1477882,-1.96849 9.4874657,-4.35808 9.7383462,-4.35808 0.278257,0 -0.7443734,1.30015 -3.2256569,4.10104 -1.0313247,1.16417 -1.8767901,2.31215 -1.8788089,2.55107 -0.00333,0.3932 0.529598,0.4225 5.6187232,0.30897 5.5841818,-0.12458 5.655532,-0.13359 10.4979544,-1.32469 2.681557,-0.65959 5.527931,-1.42371 6.325274,-1.69803 2.652676,-0.91266 2.746957,-0.87153 5.83502,2.5455 1.511597,1.67263 2.761753,3.04163 2.778125,3.04224 0.831125,0.0307 10.338689,1.35608 10.437603,1.455 0.07959,0.0796 -0.01352,0.58819 -0.206922,1.13024 -0.578975,1.62276 -2.667739,6.32009 -3.006511,6.76121 -0.265282,0.34543 -1.950323,0.47497 -10.633982,0.81751 -5.675312,0.22387 -11.6879682,0.46934 -13.3614577,0.54548 -16.0192703,0.72891 -32.6104873,1.4687 -35.8510403,1.59857 -2.182812,0.0875 -4.147343,0.20984 -4.365624,0.27191 -0.348993,0.0993 -0.385979,-1.12372 -0.306564,-10.13668 z m 153.009514,8.6501 c -3.5906,-0.2367 -4.80087,-0.44092 -4.80087,-0.81007 0,-0.15124 0.47625,-1.41479 1.05833,-2.80788 0.58208,-1.39308 1.05833,-2.87803 1.05833,-3.29987 0,-0.42185 -0.42991,-1.80205 -0.95535,-3.06712 -0.52545,-1.26507 -1.52829,-3.78841 -2.22854,-5.60742 -2.28061,-5.92421 -3.73664,-9.38516 -4.11314,-9.77682 -0.32165,-0.33459 -0.79868,-0.23719 -3.70041,0.75555 -1.83214,0.62682 -4.30417,1.51639 -5.49342,1.97683 l -2.162262,0.83717 -1.043519,1.97916 c -2.656917,5.03916 -5.967939,12.08837 -5.967939,12.70584 0,0.37588 0.349639,1.71779 0.776973,2.98201 0.427336,1.26423 0.695227,2.30778 0.595312,2.31901 -0.09991,0.0112 -1.723868,0.002 -3.608789,-0.0194 -3.473588,-0.0404 -4.378079,-0.23446 -4.378079,-0.93936 0,-0.21482 -0.535781,-1.72351 -1.190625,-3.35264 -0.654843,-1.62914 -1.190625,-3.09774 -1.190625,-3.26357 0,-0.16583 2.042652,-3.68334 4.539229,-7.81669 2.496576,-4.13336 5.397058,-8.94096 6.445517,-10.68357 1.048456,-1.7426 2.190726,-3.37453 2.538372,-3.62651 0.34765,-0.25197 2.253443,-0.83222 4.235098,-1.28943 l 3.603007,-0.83129 4.86366,0.98892 c 2.67501,0.5439 5.19911,1.04656 5.60912,1.11701 0.90244,0.15508 0.6976,-0.16149 6.54627,10.11697 2.52553,4.43838 5.16252,9.01218 5.85997,10.16399 0.69745,1.15181 1.26809,2.30191 1.26809,2.55577 0,0.25385 -0.8928,2.2285 -1.984,4.38809 -1.0912,2.15959 -2.01394,4.00008 -2.05052,4.08999 -0.1419,0.34869 -1.23883,0.4059 -4.12919,0.21535 z m 84.40403,-21.75874 c -4.40557,-13.70953 -5.1872,-16.2916 -4.99111,-16.48769 0.0887,-0.0887 2.47563,-0.22406 5.30431,-0.30081 5.93809,-0.16111 5.26326,-0.5362 5.74785,3.19479 l 0.30297,2.33262 -1.23423,1.85611 c -1.48861,2.23867 -1.76644,3.33242 -3.23284,12.72709 -0.0852,0.5457 -0.23489,0.99219 -0.3327,0.99219 -0.0978,0 -0.80172,-1.94144 -1.56425,-4.3143 z m -33.7747,-0.50262 c -1.16416,-1.47808 -2.30782,-2.87418 -2.54145,-3.10244 -0.7839,-0.76589 -6.32209,-8.21531 -6.32209,-8.50386 0,-0.15684 -0.55297,-1.13945 -1.22883,-2.18357 -2.17908,-3.36644 -12.17061,-19.99792 -12.4476,-20.71974 -0.13372,-0.34847 1.56089,-0.65719 7.06185,-1.2865 1.96453,-0.22474 5.51625,-0.65445 7.8927,-0.95492 2.37646,-0.30046 4.39905,-0.46808 4.49466,-0.37247 0.27557,0.27557 0.46049,5.44502 0.2861,7.99776 -0.0874,1.27872 -0.42407,5.00386 -0.74826,8.27808 -0.65059,6.57092 -0.68246,6.2081 0.90632,10.31875 0.47808,1.23692 1.408,3.6777 2.0665,5.42395 0.65849,1.74625 1.61258,4.2168 2.1202,5.49011 0.50762,1.27331 0.84501,2.31221 0.74975,2.30868 -0.0952,-0.004 -1.12568,-1.21575 -2.28985,-2.69383 z M -0.13435004,185.01297 c 0,-0.2066 0.19711987,-0.53904 0.43804415,-0.73876 0.24092692,-0.19972 1.05690719,-1.13703 1.81329269,-2.08292 0.7563881,-0.94588 2.0773151,-2.50271 2.9353932,-3.45962 0.8580807,-0.95691 2.6317071,-2.97497 3.9413945,-4.48458 1.3096875,-1.5096 2.6601685,-3.03507 3.0010705,-3.38993 0.340903,-0.35485 1.518883,-1.73007 2.617735,-3.05605 1.098851,-1.32597 2.375521,-2.76805 2.837042,-3.20461 0.461523,-0.43656 2.837391,-2.69875 5.27971,-5.02708 l 4.440576,-4.23333 1.892141,-0.17891 c 1.040678,-0.0984 2.794648,-0.25548 3.897712,-0.34909 l 2.005568,-0.17019 1.986526,-1.76757 c 1.092586,-0.97217 4.113794,-3.55351 6.713794,-5.73633 2.599996,-2.18281 5.310544,-4.48223 6.023435,-5.10982 0.71289,-0.62758 1.35188,-1.08535 1.419979,-1.01725 0.102581,0.10258 -0.232016,1.46236 -1.64818,6.69806 -0.09566,0.35366 -2.491785,2.34043 -4.868653,4.03689 -1.509207,1.07718 -5.671,5.06255 -8.888719,8.51192 -4.582607,4.91252 -5.837576,6.51607 -15.253342,19.4901 -2.153605,2.96746 -2.717311,3.50976 -2.475238,2.38125 0.815687,-3.80262 1.2652,-7.27394 0.965885,-7.45893 -0.267049,-0.16504 -1.665287,0.55754 -5.978292,3.08947 -13.9814158,8.20771 -13.09687404,7.71757 -13.09687404,7.25728 z M 41.986174,174.23076 c 0.04714,-0.14142 2.644383,-2.94782 5.771652,-6.23644 6.050217,-6.36238 7.686524,-8.38086 11.490677,-14.17443 3.109018,-4.73491 3.27094,-4.98558 5.942486,-9.19943 1.245497,-1.96453 2.386113,-3.61744 2.534703,-3.67314 0.14859,-0.0557 1.044069,-0.9456 1.989955,-1.97756 0.945885,-1.03196 2.902801,-3.10112 4.348702,-4.59812 2.36202,-2.44549 2.839897,-3.11771 4.707117,-6.62139 1.143013,-2.14477 2.894573,-5.57186 3.892356,-7.61576 1.549448,-3.17394 2.001491,-3.86751 3.098091,-4.75334 1.166932,-0.94264 3.336285,-2.90952 11.425227,-10.35883 1.503124,-1.38427 2.784152,-2.46565 2.84673,-2.40308 0.0626,0.0626 -0.23479,1.5315 -0.660809,3.26427 -0.426019,1.73277 -1.030857,4.46018 -1.344083,6.06091 -0.973884,4.97698 -1.303354,5.9277 -3.291226,9.49715 -2.487986,4.46745 -2.519299,4.5406 -4.127379,9.64079 -1.283507,4.07078 -1.488286,4.50789 -3.532658,7.54062 -2.256975,3.34813 -3.339153,5.49508 -3.339153,6.62462 0,1.41065 -0.461891,1.94702 -2.827779,3.28373 -1.282377,0.72454 -3.396829,1.97227 -4.69878,2.77275 l -2.367182,1.4554 -1.953868,3.40497 c -2.06052,3.59082 -2.804385,4.93949 -5.088538,9.2258 -0.775475,1.45521 -1.635969,2.97326 -1.91221,3.37344 l -0.502258,0.7276 -4.14917,8e-5 c -4.593814,9e-5 -3.698017,-0.21221 -11.954379,2.83313 -3.858996,1.42338 -6.39291,2.19031 -6.298224,1.90626 z"
           id="path809" /><path
           style="fill:#1d2b49;stroke-width:0.264583"
           d="m -34.572162,199.4523 c 0.04967,-5.63725 0.146927,-10.10661 0.216123,-9.93191 0.07719,0.19489 1.576021,-0.71741 3.878438,-2.36072 17.492393,-12.48483 20.8741902,-14.88149 26.7976281,-18.99129 1.9925161,-1.38245 4.46269246,-3.13461 5.489281,-3.8937 1.0265886,-0.75908 1.9011132,-1.34556 1.9433883,-1.30328 0.1392741,0.13927 -1.3904276,4.28135 -1.7938405,4.85731 -0.2172044,0.3101 -1.77845233,1.99916 -3.469444,3.75348 -1.6909917,1.75431 -3.3039366,3.4813 -3.5843208,3.83775 -0.2803843,0.35645 -1.0237973,2.44792 -1.6520292,4.6477 -1.2454096,4.36086 -1.2809881,4.41495 -4.8967859,7.444 -2.691309,2.25458 -6.482292,5.89314 -6.482292,6.22166 0,0.20033 0.04966,0.36424 0.110357,0.36424 0.176609,0 2.195986,-0.9025 5.049018,-2.2565 4.1477882,-1.96849 9.4874657,-4.35808 9.7383462,-4.35808 0.278257,0 -0.7443734,1.30015 -3.2256569,4.10104 -1.0313247,1.16417 -1.8767901,2.31215 -1.8788089,2.55107 -0.00333,0.3932 0.529598,0.4225 5.6187232,0.30897 5.5841818,-0.12458 5.655532,-0.13359 10.4979544,-1.32469 2.681557,-0.65959 5.527931,-1.42371 6.325274,-1.69803 2.652676,-0.91266 2.746957,-0.87153 5.83502,2.5455 1.511597,1.67263 2.761753,3.04163 2.778125,3.04224 0.831125,0.0307 10.338689,1.35608 10.437603,1.455 0.07959,0.0796 -0.01352,0.58819 -0.206922,1.13024 -0.578975,1.62276 -2.667739,6.32009 -3.006511,6.76121 -0.265282,0.34543 -1.950323,0.47497 -10.633982,0.81751 -5.675312,0.22387 -11.6879682,0.46934 -13.3614577,0.54548 -16.0192703,0.72891 -32.6104873,1.4687 -35.8510403,1.59857 -2.182812,0.0875 -4.147343,0.20984 -4.365624,0.27191 -0.348993,0.0993 -0.385979,-1.12372 -0.306564,-10.13668 z m 150.669122,8.41979 c -1.19335,-0.0915 -2.25806,-0.25477 -2.36603,-0.36274 -0.10797,-0.10797 0.30321,-1.41362 0.91373,-2.90145 0.61052,-1.48783 1.10969,-3.03931 1.10926,-3.44773 -5.3e-4,-0.40842 -0.43069,-1.77764 -0.95613,-3.04271 -0.52545,-1.26507 -1.52829,-3.78841 -2.22854,-5.60742 -2.28061,-5.92421 -3.73664,-9.38516 -4.11314,-9.77682 -0.32165,-0.33459 -0.79868,-0.23719 -3.70041,0.75555 -1.83214,0.62682 -4.30417,1.51639 -5.493418,1.97683 l -2.162262,0.83717 -1.043519,1.97916 c -2.656917,5.03916 -5.967939,12.08837 -5.967939,12.70584 0,0.37588 0.349639,1.71779 0.776973,2.98201 l 0.776973,2.29859 h -3.572492 c -3.577518,0 -4.596037,-0.20794 -4.596037,-0.93836 0,-0.21482 -0.535781,-1.72351 -1.190625,-3.35264 -0.654843,-1.62914 -1.190625,-3.09774 -1.190625,-3.26357 0,-0.16583 2.042652,-3.68334 4.539229,-7.81669 2.496576,-4.13336 5.397058,-8.94096 6.445517,-10.68357 1.048456,-1.7426 2.190726,-3.37453 2.538372,-3.62651 0.34765,-0.25197 2.253443,-0.83222 4.235098,-1.28943 l 3.603005,-0.83129 4.86366,0.98892 c 2.67501,0.5439 5.19911,1.04656 5.60912,1.11701 0.90244,0.15508 0.6976,-0.16149 6.54627,10.11697 2.52553,4.43838 5.16252,9.01218 5.85997,10.16399 0.69745,1.15181 1.27047,2.28291 1.27338,2.51355 0.003,0.23063 -0.91982,2.29154 -2.05052,4.5798 l -2.05581,4.16047 -2.11667,-0.0343 c -1.16416,-0.0188 -3.09304,-0.10914 -4.28639,-0.20068 z m 86.74442,-21.52843 c -4.40557,-13.70953 -5.1872,-16.2916 -4.99111,-16.48769 0.0887,-0.0887 2.47563,-0.22406 5.30431,-0.30081 5.93809,-0.16111 5.26326,-0.5362 5.74785,3.19479 l 0.30297,2.33262 -1.23423,1.85611 c -1.48861,2.23867 -1.76644,3.33242 -3.23284,12.72709 -0.0852,0.5457 -0.23489,0.99219 -0.3327,0.99219 -0.0978,0 -0.80172,-1.94144 -1.56425,-4.3143 z m -33.7747,-0.50262 c -1.16416,-1.47808 -2.30782,-2.87418 -2.54145,-3.10244 -0.7839,-0.76589 -6.32209,-8.21531 -6.32209,-8.50386 0,-0.15684 -0.55297,-1.13945 -1.22883,-2.18357 -2.17908,-3.36644 -12.17061,-19.99792 -12.4476,-20.71974 -0.13372,-0.34847 1.56089,-0.65719 7.06185,-1.2865 1.96453,-0.22474 5.51625,-0.65445 7.8927,-0.95492 2.37646,-0.30046 4.39905,-0.46808 4.49466,-0.37247 0.27557,0.27557 0.46049,5.44502 0.2861,7.99776 -0.0874,1.27872 -0.42407,5.00386 -0.74826,8.27808 -0.65059,6.57092 -0.68246,6.2081 0.90632,10.31875 0.47808,1.23692 1.408,3.6777 2.0665,5.42395 0.65849,1.74625 1.61258,4.2168 2.1202,5.49011 0.50762,1.27331 0.84501,2.31221 0.74975,2.30868 -0.0952,-0.004 -1.12568,-1.21575 -2.28985,-2.69383 z M -0.13435004,185.01297 c 0,-0.2066 0.19711987,-0.53904 0.43804415,-0.73876 0.24092692,-0.19972 1.05690719,-1.13703 1.81329269,-2.08292 0.7563881,-0.94588 2.0773151,-2.50271 2.9353932,-3.45962 0.8580807,-0.95691 2.6317071,-2.97497 3.9413945,-4.48458 1.3096875,-1.5096 2.6601685,-3.03507 3.0010705,-3.38993 0.340903,-0.35485 1.518883,-1.73007 2.617735,-3.05605 1.098851,-1.32597 2.375521,-2.76805 2.837042,-3.20461 0.461523,-0.43656 2.837391,-2.69875 5.27971,-5.02708 l 4.440576,-4.23333 1.892141,-0.17891 c 1.040678,-0.0984 2.794648,-0.25548 3.897712,-0.34909 l 2.005568,-0.17019 1.986526,-1.76757 c 1.092586,-0.97217 4.113794,-3.55351 6.713794,-5.73633 2.599996,-2.18281 5.310544,-4.48223 6.023435,-5.10982 0.71289,-0.62758 1.35188,-1.08535 1.419979,-1.01725 0.102581,0.10258 -0.232016,1.46236 -1.64818,6.69806 -0.09566,0.35366 -2.491785,2.34043 -4.868653,4.03689 -1.509207,1.07718 -5.671,5.06255 -8.888719,8.51192 -4.582607,4.91252 -5.837576,6.51607 -15.253342,19.4901 -2.153605,2.96746 -2.717311,3.50976 -2.475238,2.38125 0.815687,-3.80262 1.2652,-7.27394 0.965885,-7.45893 -0.267049,-0.16504 -1.665287,0.55754 -5.978292,3.08947 -13.9814158,8.20771 -13.09687404,7.71757 -13.09687404,7.25728 z M 41.986174,174.23076 c 0.04714,-0.14142 2.644383,-2.94782 5.771652,-6.23644 6.050217,-6.36238 7.686524,-8.38086 11.490677,-14.17443 3.109018,-4.73491 3.27094,-4.98558 5.942486,-9.19943 1.245497,-1.96453 2.386113,-3.61744 2.534703,-3.67314 0.14859,-0.0557 1.044069,-0.9456 1.989955,-1.97756 0.945885,-1.03196 2.902801,-3.10112 4.348702,-4.59812 2.36202,-2.44549 2.839897,-3.11771 4.707117,-6.62139 1.143013,-2.14477 2.894573,-5.57186 3.892356,-7.61576 1.549448,-3.17394 2.001491,-3.86751 3.098091,-4.75334 1.166932,-0.94264 3.336285,-2.90952 11.425227,-10.35883 1.503124,-1.38427 2.784152,-2.46565 2.84673,-2.40308 0.0626,0.0626 -0.23479,1.5315 -0.660809,3.26427 -0.426019,1.73277 -1.030857,4.46018 -1.344083,6.06091 -0.973884,4.97698 -1.303354,5.9277 -3.291226,9.49715 -2.487986,4.46745 -2.519299,4.5406 -4.127379,9.64079 -1.283507,4.07078 -1.488286,4.50789 -3.532658,7.54062 -2.256975,3.34813 -3.339153,5.49508 -3.339153,6.62462 0,1.41065 -0.461891,1.94702 -2.827779,3.28373 -1.282377,0.72454 -3.396829,1.97227 -4.69878,2.77275 l -2.367182,1.4554 -1.953868,3.40497 c -2.06052,3.59082 -2.804385,4.93949 -5.088538,9.2258 -0.775475,1.45521 -1.635969,2.97326 -1.91221,3.37344 l -0.502258,0.7276 -4.14917,8e-5 c -4.593814,9e-5 -3.698017,-0.21221 -11.954379,2.83313 -3.858996,1.42338 -6.39291,2.19031 -6.298224,1.90626 z"
           id="path807" /><path
           style="fill:#151a39;stroke-width:0.264583"
           d="m 117.20835,207.80052 c -1.89177,-0.13969 -3.47152,-0.28577 -3.51055,-0.32462 -0.039,-0.0389 0.29847,-0.95152 0.75002,-2.02815 0.45155,-1.07663 1.00377,-2.49661 1.22717,-3.15553 l 0.40618,-1.19804 -1.76312,-4.4905 c -0.96972,-2.46978 -2.1676,-5.50254 -2.66195,-6.73947 -3.17193,-7.93642 -2.90834,-7.40833 -3.69783,-7.40833 -0.58519,0 -9.66632,3.14244 -10.757375,3.72249 -0.374388,0.19904 -5.410305,10.07535 -6.883103,13.49896 l -0.535866,1.24566 0.824706,2.57457 c 0.453591,1.41601 0.790475,2.58896 0.748631,2.60654 -0.04184,0.0176 -1.721456,-0.0275 -3.732477,-0.10031 l -3.656401,-0.13229 -1.071682,-2.77812 c -1.793973,-4.65053 -1.772282,-4.34851 -0.465561,-6.4823 0.623816,-1.01864 3.501403,-5.78114 6.394643,-10.58333 2.893237,-4.80219 5.462738,-8.92445 5.710002,-9.16059 0.247261,-0.23614 2.144583,-0.81581 4.21627,-1.28816 l 3.766703,-0.85881 5.4844,1.09363 c 3.01642,0.60151 5.56788,1.18118 5.66991,1.28816 0.10204,0.10699 2.26204,3.82593 4.80001,8.26431 2.53798,4.43839 5.34595,9.33634 6.23995,10.88434 0.894,1.548 1.61988,3.03628 1.61308,3.30729 -0.007,0.27101 -0.92954,2.27868 -2.05052,4.4615 -2.35763,4.59084 -1.59881,4.18474 -7.06524,3.7811 z"
           id="path805" /></g></g></g></svg>
