<?xml version="1.0" encoding="UTF-8" standalone="no"?>
<!-- Created with Inkscape (http://www.inkscape.org/) -->

<svg
   width="270.95898mm"
   height="153.96397mm"
   viewBox="0 0 270.95898 153.96397"
   version="1.1"
   id="svg5"
   xml:space="preserve"
   xmlns:inkscape="http://www.inkscape.org/namespaces/inkscape"
   xmlns:sodipodi="http://sodipodi.sourceforge.net/DTD/sodipodi-0.dtd"
   xmlns="http://www.w3.org/2000/svg"
   xmlns:svg="http://www.w3.org/2000/svg"><sodipodi:namedview
     id="namedview7"
     pagecolor="#ffffff"
     bordercolor="#000000"
     borderopacity="0.25"
     inkscape:showpageshadow="2"
     inkscape:pageopacity="0.0"
     inkscape:pagecheckerboard="0"
     inkscape:deskcolor="#d1d1d1"
     inkscape:document-units="mm"
     showgrid="false" /><defs
     id="defs2" /><g
     inkscape:label="Layer 1"
     inkscape:groupmode="layer"
     id="layer1"
     transform="translate(-340.76868,96.725507)"><g
       id="g901"
       transform="translate(427.62133,-46.612752)"
       inkscape:export-filename="cave-entrance-day.svg"
       inkscape:export-xdpi="96"
       inkscape:export-ydpi="96"><path
         style="fill:#969b97;stroke-width:0.264583"
         d="m -86.496534,103.69951 c -0.262085,-0.10575 -0.330729,-6.936016 -0.330729,-32.908454 V 38.016051 l 0.859896,-0.671118 c 0.472942,-0.369115 4.90802,-3.550105 9.855728,-7.068868 9.797188,-6.967664 10.248822,-7.286905 19.579166,-13.839792 3.4925,-2.452852 6.923812,-4.934236 7.625138,-5.514187 l 1.275136,-1.054454 4.81028,0.456689 c 2.645654,0.251182 5.762779,0.558649 6.926945,0.683263 1.635694,0.175083 2.236909,0.145693 2.645833,-0.12935 0.291042,-0.195752 2.207321,-2.0158202 4.2584,-4.0445922 l 3.729236,-3.6886777 1.827014,-0.1667563 c 1.004858,-0.091712 2.766258,-0.2459011 3.914222,-0.3426354 l 2.087205,-0.1758818 4.527378,-3.8699147 c 2.490057,-2.1284537 5.9469199,-5.0573303 7.6819171,-6.5086174 1.7349972,-1.4512871 3.5569126,-2.9799145 4.0486989,-3.3969505 l 0.89416201,-0.758246 8.07458019,0.327179 8.0745798,0.327178 1.370468,-1.54845 c 0.753758,-0.851649 2.651577,-2.919857 4.217373,-4.596016 l 2.846904,-3.047566 3.826383,-7.408333 3.82638,-7.408333 5.876853,-5.291666 c 3.232266,-2.910417 6.8908,-6.214401 8.130071,-7.342187 1.239269,-1.127787 2.469833,-2.050521 2.734585,-2.050521 0.26475,0 1.461365,0.865798 2.659142,1.923997 1.197777,1.058198 4.618559,4.021158 7.601735,6.584354 2.983177,2.563196 5.792912,5.060913 6.243855,5.550482 0.450942,0.489569 1.449858,2.080749 2.219811,3.535958 0.769956,1.455208 2.715191,4.967551 4.322749,7.805208 l 2.922831,5.159374 4.382357,4.226264 c 2.410293,2.324444 6.654287,6.4618653 9.431094,9.1942701 2.776804,2.7324023 5.158054,4.9659697 5.291666,4.9634773 0.13361,-0.00238 2.624177,-0.2931504 5.534594,-0.6459088 2.910417,-0.352761 7.441917,-0.90211 10.070007,-1.2207768 l 4.77834,-0.5793951 5.14354,3.51066078 c 4.52682,3.08973262 8.95951,6.15409162 21.90866,15.14567752 l 3.33408,2.315104 h 6.15215 6.15214 l 1.26075,0.755299 c 0.69341,0.415414 3.28481,1.922565 5.75866,3.349225 5.16112,2.976388 10.3602,6.044604 14.55209,8.587858 1.60072,0.971175 3.53549,2.103486 4.29947,2.516246 l 1.38907,0.750472 v 35.119224 c 0,31.780063 -0.0398,35.134493 -0.41852,35.279823 -0.50094,0.19222 -269.707559,0.17765 -270.184074,-0.0146 z M 61.964755,53.198961 c 0.674698,-1.677932 1.226725,-3.230584 1.226725,-3.450341 0,-0.21976 -0.517128,-1.674643 -1.149176,-3.233073 -0.632047,-1.558433 -2.202963,-5.482654 -3.490925,-8.720492 -1.28796,-3.237838 -2.487152,-5.886979 -2.66487,-5.886979 -0.401532,0 -7.622931,2.485493 -9.259109,3.18684 l -1.202518,0.515459 -3.287535,6.752597 c -1.808142,3.713927 -3.287533,7.018036 -3.287533,7.342465 0,0.32443 0.363461,1.680853 0.807691,3.014274 l 0.807691,2.424403 2.433455,0.160433 c 1.3384,0.08824 4.814704,0.321069 7.725121,0.517403 2.910416,0.196331 6.376749,0.372904 7.702962,0.39238 l 2.411296,0.03541 z"
         id="path931" /><path
         style="fill:#998975;stroke-width:0.264583"
         d="m -86.813587,70.86797 0.01368,-32.742186 5.456559,-3.836458 c 3.001107,-2.110052 7.310968,-5.153538 9.577469,-6.763305 2.2665,-1.609765 7.216535,-5.111443 11.000076,-7.781507 3.783542,-2.670064 8.111976,-5.758296 9.618741,-6.862736 1.506768,-1.104442 2.95347,-2.163582 3.214894,-2.353645 0.394936,-0.287132 1.652966,-0.231551 7.438982,0.328652 l 6.963664,0.674227 1.198526,-1.118709 c 0.659188,-0.6152857 2.567744,-2.4490227 4.241233,-4.0749639 l 3.042708,-2.9562609 3.704167,-0.3063531 c 3.055958,-0.2527406 3.850748,-0.4074186 4.541803,-0.8838961 0.460697,-0.3176482 2.841947,-2.30512135 5.291666,-4.4166074 2.4497162,-2.111486 5.1088738,-4.3728347 5.9092383,-5.0252204 0.8003646,-0.6523857 2.3366041,-1.9475211 3.4138683,-2.8780762 l 1.95865745,-1.691921 2.93613405,0.162949 c 1.614871,0.08962 5.25785,0.236286 8.0955059,0.325922 l 5.159375,0.162967 3.836458,-4.150912 c 2.110052,-2.283005 4.091157,-4.467111 4.402455,-4.853572 0.311298,-0.386459 2.190988,-3.876673 4.177088,-7.756028 3.493137,-6.822971 3.673472,-7.112502 5.520676,-8.863541 3.516424,-3.333355 13.987079,-12.655383 14.473727,-12.885962 0.390331,-0.184941 1.715283,0.836999 7.032209,5.423958 3.603193,3.108511 7.284569,6.277073 8.180831,7.041253 1.423644,1.21384 1.916997,1.915978 3.904054,5.55625 1.250969,2.291757 3.384976,6.083286 4.742241,8.425621 l 2.467758,4.258789 9.471919,9.0629419 9.471916,9.06294176 4.418708,-0.54423726 c 2.43028,-0.2993284 6.99887,-0.860507 10.1524,-1.2470606 l 5.7337,-0.7028206 4.98192,3.38505517 c 2.74006,1.86178283 8.07756,5.54170823 11.8611,8.17761693 3.78354,2.6359087 8.40075,5.8372217 10.26047,7.1140287 l 3.38131,2.321468 6.04494,-0.02617 6.04495,-0.02614 1.68625,0.973286 c 4.87167,2.81188 8.47337,4.924367 15.31228,8.981035 4.14735,2.460096 8.22524,4.819499 9.06198,5.243115 l 1.52136,0.770213 v 35.019089 35.0191 H 48.639397 -86.827263 Z M 61.699997,54.526939 c 0.518483,-1.238583 1.149601,-2.834529 1.402487,-3.546546 l 0.459793,-1.29458 -1.552763,-3.927933 c -3.520773,-8.906289 -5.498419,-13.731911 -5.725786,-13.971388 -0.263369,-0.277394 -3.836747,0.8127 -8.332155,2.541802 l -2.672202,1.027829 -3.347069,6.871883 c -1.94528,3.993861 -3.339864,7.177891 -3.329863,7.602539 0.0095,0.40186 0.396418,1.802218 0.859896,3.111905 0.80862,2.284984 0.880123,2.388836 1.768729,2.568861 0.725879,0.147058 14.60106,1.062159 18.692806,1.232834 0.803831,0.03353 0.866921,-0.04523 1.776127,-2.217206 z"
         id="path929" /><path
         style="fill:#7c8a89;stroke-width:0.264583"
         d="m -86.813587,70.86797 0.01368,-32.742186 5.456559,-3.836458 c 3.001107,-2.110052 7.310968,-5.153538 9.577469,-6.763305 2.2665,-1.609765 7.216535,-5.111443 11.000076,-7.781507 3.783542,-2.670064 8.111976,-5.758296 9.618741,-6.862736 1.506768,-1.104442 2.935518,-2.146112 3.175,-2.314823 0.333664,-0.235059 1.486604,-0.194958 4.933342,0.171582 2.473854,0.263081 5.62901,0.561295 7.011457,0.662697 l 2.513542,0.184367 4.239908,-4.0927128 4.239905,-4.092715 3.697595,-0.3158993 c 3.037649,-0.2595192 3.847091,-0.4189782 4.535228,-0.8934449 0.460697,-0.3176482 2.841947,-2.30512135 5.291666,-4.4166074 2.4497162,-2.111486 5.1088738,-4.3728347 5.9092383,-5.0252204 0.8003646,-0.6523857 2.3160116,-1.9295585 3.3681034,-2.8381642 l 1.91289769,-1.652011 1.52668541,0.132165 c 3.583916,0.310258 13.8424962,0.632844 14.3347112,0.45076 0.468567,-0.173334 7.111683,-7.087957 8.660056,-9.013999 0.311298,-0.387226 2.190988,-3.878067 4.177088,-7.757422 3.493137,-6.822971 3.673472,-7.112502 5.520676,-8.863541 2.628273,-2.491443 13.923825,-12.611951 14.351074,-12.85817 0.191304,-0.110249 0.504917,-0.04486 0.698471,0.145627 0.388548,0.382397 10.430856,9.042595 13.869558,11.960709 2.007105,1.703249 2.326664,2.117857 3.976571,5.159374 0.986745,1.819011 3.078144,5.555533 4.647554,8.303384 l 2.853473,4.996095 4.435393,4.253497 c 2.439466,2.339422 6.69758,6.477 9.462475,9.194612 l 5.027083,4.94111732 2.248959,-0.34388692 c 1.236927,-0.1891347 5.912432,-0.7839974 10.390022,-1.3219138 l 8.14107,-0.9780296 1.11935,0.9785905 c 0.61564,0.5382234 4.04294,2.96257916 7.61622,5.3874562 3.57328,2.424877 8.55582,5.8376182 11.0723,7.5838683 2.51648,1.74625 5.84196,4.053075 7.38995,5.12628 l 2.81454,1.951279 6.36587,-0.04748 c 6.21796,-0.04638 6.37789,-0.0342 6.88296,0.524269 0.2844,0.314463 0.99334,0.812226 1.57542,1.106141 1.26342,0.637945 4.30663,2.418056 15.74271,9.208637 4.72942,2.808269 8.80731,5.093404 9.06198,5.078079 0.43878,-0.0264 0.46302,1.806525 0.46302,35.012986 v 35.04085 H 48.639397 -86.827263 Z M 61.699997,54.526939 c 0.518483,-1.238583 1.149601,-2.834529 1.402487,-3.546546 l 0.459793,-1.29458 -1.552763,-3.927933 c -3.520773,-8.906289 -5.498419,-13.731911 -5.725786,-13.971388 -0.263369,-0.277394 -3.836747,0.8127 -8.332155,2.541802 l -2.672202,1.027829 -3.347069,6.871883 c -1.94528,3.993861 -3.339864,7.177891 -3.329863,7.602539 0.02537,1.077238 1.638332,5.415061 2.099458,5.646185 0.218282,0.109405 3.194844,0.339047 6.614583,0.510315 3.41974,0.17127 6.991615,0.403211 7.9375,0.515429 0.945885,0.112218 2.571086,0.220321 3.611557,0.240234 l 1.891768,0.0362 z"
         id="path927" /><path
         style="fill:#897159;stroke-width:0.264583"
         d="m -86.827263,70.669533 c 0,-23.676046 0.08052,-32.676041 0.292341,-32.676041 0.296804,0 3.253669,-2.054344 14.656617,-10.182983 3.492499,-2.489645 9.802812,-6.957219 14.022916,-9.927944 4.220104,-2.970726 8.308466,-5.911485 9.085251,-6.535021 0.97641,-0.783777 1.588897,-1.095613 1.984375,-1.010303 0.748207,0.161398 8.111841,0.875006 11.155372,1.081064 l 2.38125,0.161218 4.169849,-4.0152793 4.169849,-4.0152794 3.795517,-0.3233923 c 3.362544,-0.2864988 3.885816,-0.3969041 4.587107,-0.9678378 0.435378,-0.3544464 2.804089,-2.3713942 5.263804,-4.482105 2.4597116,-2.1107134 5.1270501,-4.3720621 5.9274147,-5.0252204 0.8003645,-0.653161 2.3122253,-1.9276641 3.3596895,-2.8322348 1.85975355,-1.606042 1.93432372,-1.641803 3.1749999,-1.522547 2.6263916,0.252452 14.3061739,0.656836 14.6922539,0.508682 0.221316,-0.08493 1.101963,-0.949322 1.956995,-1.920877 0.855031,-0.971556 2.748249,-3.020552 4.207153,-4.553326 2.507983,-2.634975 2.781864,-3.038948 5.025271,-7.412257 1.304996,-2.543966 3.028381,-5.901112 3.82974,-7.460323 l 1.457021,-2.834931 6.989646,-6.293194 c 3.844305,-3.461258 7.435108,-6.680149 7.97956,-7.153092 0.960003,-0.833916 1.695027,-1.086411 1.875933,-0.644419 0.07808,0.190762 7.55737,6.689738 13.606475,11.823065 2.007105,1.703249 2.326664,2.117857 3.976571,5.159374 0.986745,1.819011 3.078144,5.555533 4.647554,8.303384 l 2.853473,4.996095 4.435393,4.253497 c 2.439466,2.339422 6.721749,6.5050908 9.516183,9.2570378 4.903142,4.82859267 5.111295,4.99799214 5.953125,4.84477459 0.479785,-0.0873231 1.943896,-0.27835489 3.253584,-0.42451069 1.309687,-0.1461585 5.26649,-0.624795 8.79289,-1.0636356 3.5264,-0.4388405 6.78615,-0.7978933 7.24388,-0.7978933 0.54541,0 1.16247,0.280633 1.79044,0.814279 0.52701,0.4478549 3.8818,2.79933915 7.45508,5.2255206 5.85771,3.9772614 9.17156,6.2603906 18.59747,12.8130296 l 2.95149,2.05179 6.31517,-0.01797 c 5.90134,-0.0168 6.35212,0.01577 6.87916,0.496949 0.3102,0.283207 0.98072,0.722889 1.49004,0.977074 1.12569,0.56179 4.38346,2.468086 15.61042,9.134496 4.72942,2.808269 8.80731,5.093403 9.06198,5.078079 0.43878,-0.02641 0.46302,1.800225 0.46302,34.880693 V 103.34557 H 48.639397 -86.827263 Z M 62.37488,53.264948 l 1.386425,-3.51396 -1.625558,-4.09281 C 58.050877,35.37334 56.709008,32.092634 56.432551,31.714555 c -0.266772,-0.364832 -0.44648,-0.358622 -1.730317,0.05979 -4.35859,1.420485 -8.89762,3.145391 -9.288946,3.529952 -0.416081,0.408887 -3.349445,6.190564 -6.020305,11.866059 l -1.14354,2.429989 0.874281,2.729386 c 0.480856,1.501164 1.002893,2.872793 1.160084,3.048066 0.184378,0.205589 2.069756,0.422516 5.312881,0.611291 2.764896,0.160938 6.217708,0.387167 7.672916,0.502732 1.455208,0.115567 3.787262,0.227438 5.182341,0.248605 l 2.53651,0.03849 z"
         id="path925" /><path
         style="fill:#5a8145;stroke-width:0.264583"
         d="m -86.827263,70.669533 c 0,-23.676046 0.08052,-32.676041 0.292341,-32.676041 0.297403,0 3.314013,-2.096164 14.656617,-10.184502 3.492499,-2.490481 10.100468,-7.179961 14.684374,-10.421067 4.583906,-3.241106 8.632031,-6.122452 8.995833,-6.40299 0.653195,-0.503701 0.724249,-0.503701 5.688541,-8.2e-5 2.764896,0.280495 5.88682,0.59033 6.937613,0.688522 l 1.91053,0.178531 1.661345,-1.53628 c 0.913738,-0.8449543 2.86332,-2.7114441 4.332401,-4.1477558 l 2.671056,-2.6114771 3.839101,-0.3271043 c 3.406198,-0.2902215 3.928361,-0.3997749 4.630692,-0.9715526 0.435378,-0.3544464 2.804089,-2.37463534 5.263804,-4.4893069 2.4597116,-2.1146717 5.1965165,-4.4363903 6.0817831,-5.1593748 0.8852667,-0.7229845 2.3517198,-1.9410573 3.2587855,-2.7068275 l 1.64920868,-1.392312 3.22350592,0.153644 c 1.7729278,0.0845 5.1692199,0.245957 7.5473128,0.358783 2.378097,0.112826 4.604496,0.151482 4.947558,0.0859 0.34784,-0.06649 1.36113,-0.952709 2.290773,-2.003491 0.916866,-1.036338 2.860675,-3.139133 4.319579,-4.672877 2.507073,-2.635689 2.782676,-3.042301 5.025271,-7.414025 1.304996,-2.543966 3.028381,-5.901112 3.82974,-7.460323 l 1.457021,-2.834931 6.980737,-6.293194 c 3.839403,-3.461258 7.470809,-6.691664 8.069791,-7.17868 1.082813,-0.880406 1.089494,-0.881922 1.165707,-0.264583 0.04216,0.341495 -0.107146,1.454338 -0.331782,2.472984 -1.136246,5.1524 -2.522996,12.114476 -2.522996,12.666497 0,0.464201 1.575877,2.17514 6.151563,6.678787 l 6.151562,6.054714 1.81334,7.408333 c 0.997336,4.0745835 1.868882,7.6176902 1.936763,7.8735713 0.06788,0.2558812 1.037815,1.1735408 2.15541,2.0392442 1.117592,0.8657034 3.98908,3.12440624 6.381085,5.0193414 2.392006,1.8949378 4.398426,3.3960142 4.458711,3.3357289 0.09315,-0.093146 -2.847708,-4.43894345 -5.979488,-8.8360828 -2.209115,-3.1016864 -2.076243,-2.7145746 -5.357484,-15.608762 -1.756151,-6.901085 -1.648047,-6.390748 -1.353746,-6.390748 0.119973,0 0.837925,1.101328 1.595453,2.447395 0.757526,1.346068 2.424565,4.292865 3.704535,6.548438 l 2.327214,4.101041 3.879524,3.2469109 c 4.005926,3.3526967 5.402881,4.9404982 13.416324,15.2492068 2.307117,2.9679396 3.869386,4.3327767 14.197594,12.4033833 1.62721,1.271526 3.58311,2.844969 4.34644,3.49654 0.76334,0.65157 1.44258,1.129982 1.50942,1.063135 0.0669,-0.06684 -0.35988,-0.869225 -0.94828,-1.783064 -1.26776,-1.968965 -3.54419,-5.7317 -8.688613,-14.3615296 -4.275759,-7.1726369 -4.216736,-6.82701435 -1.218197,-7.1333992 0.976841,-0.099811 5.10983,-0.5944896 9.18441,-1.0992828 4.07458,-0.5047959 7.76552,-0.8830125 8.20208,-0.8404807 0.75145,0.073208 0.95593,0.3964384 3.83646,6.0644137 1.67349,3.2928956 3.19412,6.1657148 3.37919,6.384041 0.18507,0.2183262 1.61382,1.3255386 3.175,2.4604766 1.56118,1.134936 2.89763,2.11138 2.96987,2.169877 0.0722,0.0585 0.73742,1.968937 1.47818,4.245419 l 1.34683,4.13906 3.40663,1.329936 3.40663,1.329938 7.27825,7.077604 c 4.00304,3.892682 7.36486,7.077604 7.4707,7.077604 0.10584,0 0.0863,-0.327422 -0.0434,-0.727604 -2.23215,-6.88722 -6.00722,-18.990338 -6.27196,-20.108332 l -0.14097,-0.595313 5.52094,-0.03135 c 5.89089,-0.03345 6.21334,-0.02093 6.50028,0.252267 0.10207,0.09718 0.38412,1.451488 0.62679,3.009572 l 0.44122,2.832878 4.19523,4.372652 4.19525,4.372649 1.67983,3.518406 1.67984,3.518402 2.49397,2.106332 c 1.37168,1.158483 4.60732,3.994282 7.19031,6.301774 l 4.69636,4.195442 V 77.839874 103.34557 H 48.639397 -86.827263 Z M 101.55606,58.214132 c 0,-0.254336 -2.100161,-3.796828 -3.831171,-6.462307 C 96.827103,50.369377 95.233144,47.795188 94.182762,46.031404 92.35379,42.960229 92.074718,42.639171 87.587956,38.44439 79.125552,30.532687 79.790596,31.383024 76.268021,23.970576 74.573724,20.405316 72.731658,16.510131 72.174544,15.314609 71.416962,13.6889 71.007419,13.105431 70.549981,13.000111 70.213587,12.922662 68.458889,12.552534 66.650655,12.177606 61.162036,11.039567 58.603457,10.287534 52.734329,8.0872244 49.641273,6.9276509 46.915457,5.9789107 46.676959,5.9789107 c -0.238501,0 -3.079441,0.6688481 -6.313204,1.4863312 -3.233762,0.8174804 -6.156026,1.5473759 -6.493923,1.6219857 -0.551593,0.1217957 -7.73536,7.5977274 -9.775565,10.1731364 -0.433626,0.547378 -1.982629,3.962849 -3.516498,7.753691 l -2.74148,6.775359 -2.136462,2.432767 c -1.175055,1.338025 -3.025214,3.460186 -4.111466,4.715917 -1.086252,1.255734 -3.3869976,3.846613 -5.1127688,5.757513 l -3.137765,3.474363 0.5959342,2.411801 0.5959343,2.411802 5.9101513,-0.116454 c 3.250583,-0.06405 5.989354,-0.195654 6.086157,-0.292457 0.0968,-0.09681 -0.139234,-1.439659 -0.524531,-2.984122 -0.385294,-1.544462 -0.619768,-2.945921 -0.521055,-3.114354 0.09872,-0.168431 0.678196,-0.961083 1.287733,-1.761448 0.609539,-0.800365 2.353728,-3.324532 3.875971,-5.609259 2.593414,-3.892436 2.908088,-4.515532 4.996603,-9.893905 l 2.228881,-5.739858 2.240034,-2.54151 c 1.232019,-1.397828 3.613269,-3.952661 5.291667,-5.677403 l 3.051632,-3.135894 1.190625,0.148349 c 0.654844,0.08159 3.631406,0.52279 6.614583,0.98044 2.983177,0.45765 8.935532,1.341975 13.227454,1.965163 9.113578,1.323298 7.724862,0.498565 11.114212,6.600521 1.236927,2.226881 3.1786,5.701522 4.314827,7.721428 l 2.065872,3.672554 6.136211,3.83795 c 5.862238,3.666588 6.150086,3.885136 6.446879,4.894791 0.274789,0.934797 2.760441,10.314286 3.522986,13.29382 l 0.287787,1.124479 h 4.090842 c 2.249963,0 4.090843,-0.06852 4.090843,-0.152276 z M 60.719621,56.840506 c 0.168447,-0.107186 0.922866,-1.740416 1.676484,-3.629403 l 1.370222,-3.434522 -1.521423,-3.841025 c -3.675012,-9.278024 -5.67032,-14.135626 -5.901179,-14.366485 -0.27427,-0.27427 -1.035418,-0.0512 -6.778286,1.986489 -3.280349,1.163936 -4.894792,2.020726 -4.894792,2.597679 0,0.101293 -1.42875,3.102692 -3.175,6.66977 -1.74625,3.56708 -3.174999,6.604346 -3.174999,6.74948 0,0.442677 1.651502,5.465741 1.904849,5.793616 0.132117,0.170987 1.315828,0.374353 2.671907,0.459044 13.027162,0.813588 17.119015,1.088943 17.383659,1.169813 0.07276,0.02222 0.270111,-0.04727 0.438558,-0.154456 z"
         id="path923" /><path
         style="fill:#4a6f42;stroke-width:0.264583"
         d="M -86.827263,83.766407 V 64.187241 l 0.727604,-0.0016 c 0.400182,-7.94e-4 4.83526,-0.176856 9.855729,-0.390967 15.359813,-0.655058 31.08546,-1.163593 48.815622,-1.578592 19.69907,-0.461084 24.3336755,-0.590822 34.3958321,-0.962853 11.6831629,-0.431964 32.6401889,0.317225 49.0802059,1.754563 24.784112,2.166853 46.3196,2.689186 70.51145,1.710214 10.11519,-0.409329 23.56423,-1.047446 27.91355,-1.324411 4.22789,-0.269232 18.11616,-0.944449 25.46614,-1.238107 l 4.16719,-0.166492 V 82.667333 103.34557 H 48.639397 -86.827263 Z m 0.330729,-25.030172 c -0.448574,-0.202555 -0.486587,-20.742743 -0.03839,-20.742743 0.297403,0 3.314013,-2.096164 14.656617,-10.184502 3.492499,-2.490481 10.100468,-7.179961 14.684374,-10.421067 4.583906,-3.241106 8.632031,-6.122452 8.995833,-6.40299 0.653195,-0.503701 0.724249,-0.503701 5.688541,-8.2e-5 2.764896,0.280495 5.88682,0.59033 6.937613,0.688522 l 1.91053,0.178531 1.661345,-1.53628 c 0.913738,-0.8449543 2.86332,-2.7114441 4.332401,-4.1477558 l 2.671056,-2.6114771 3.839101,-0.3271043 c 3.406198,-0.2902215 3.928361,-0.3997749 4.630692,-0.9715526 0.435378,-0.3544464 2.804089,-2.37463534 5.263804,-4.4893069 2.4597116,-2.1146717 5.1965165,-4.4363903 6.0817831,-5.1593748 0.8852667,-0.7229845 2.3517198,-1.9410573 3.2587855,-2.7068275 l 1.64920868,-1.392312 3.22350592,0.153644 c 1.7729278,0.0845 5.1692199,0.245957 7.5473128,0.358783 2.378097,0.112826 4.604496,0.151482 4.947558,0.0859 0.34784,-0.06649 1.36113,-0.952709 2.290773,-2.003491 0.916866,-1.036338 2.860675,-3.139133 4.319579,-4.672877 2.507073,-2.635689 2.782676,-3.042301 5.025271,-7.414025 1.304996,-2.543966 3.028381,-5.901112 3.82974,-7.460323 l 1.457021,-2.834931 6.980737,-6.293194 c 3.839403,-3.461258 7.470809,-6.691664 8.069791,-7.17868 1.082813,-0.880406 1.089494,-0.881922 1.165707,-0.264583 0.04216,0.341495 -0.107146,1.454338 -0.331782,2.472984 -1.136246,5.1524 -2.522996,12.114476 -2.522996,12.666497 0,0.464201 1.575877,2.17514 6.151563,6.678787 l 6.151562,6.054714 1.81334,7.408333 c 0.997336,4.0745835 1.868882,7.6176902 1.936763,7.8735713 0.06788,0.2558812 1.037815,1.1735408 2.15541,2.0392442 1.117592,0.8657034 3.98908,3.12440624 6.381085,5.0193414 2.392006,1.8949378 4.398426,3.3960142 4.458711,3.3357289 0.09315,-0.093146 -2.847708,-4.43894345 -5.979488,-8.8360828 -2.209115,-3.1016864 -2.076243,-2.7145746 -5.357484,-15.608762 -1.756151,-6.901085 -1.648047,-6.390748 -1.353746,-6.390748 0.119973,0 0.837925,1.101328 1.595453,2.447395 0.757526,1.346068 2.424565,4.292865 3.704535,6.548438 l 2.327214,4.101041 3.879524,3.2469109 c 4.005926,3.3526967 5.402881,4.9404982 13.416324,15.2492068 2.307117,2.9679396 3.869386,4.3327767 14.197596,12.4033833 1.62721,1.271526 3.58311,2.844969 4.34644,3.49654 0.76334,0.65157 1.44258,1.129982 1.50942,1.063135 0.0669,-0.06684 -0.35988,-0.869225 -0.94828,-1.783064 -1.26776,-1.968965 -3.54419,-5.7317 -8.688615,-14.3615296 -4.275759,-7.1726369 -4.216736,-6.82701435 -1.218197,-7.1333992 0.976841,-0.099811 5.109832,-0.5944896 9.184412,-1.0992828 4.07458,-0.5047959 7.76552,-0.8830125 8.20208,-0.8404807 0.75145,0.073208 0.95593,0.3964384 3.83646,6.0644137 1.67349,3.2928956 3.19412,6.1657148 3.37919,6.384041 0.18507,0.2183262 1.61382,1.3255386 3.175,2.4604766 1.56118,1.134936 2.89763,2.11138 2.96987,2.169877 0.0722,0.0585 0.73742,1.968937 1.47818,4.245419 l 1.34683,4.13906 3.40663,1.329936 3.40663,1.329938 7.27825,7.077604 c 4.00304,3.892682 7.36486,7.077604 7.4707,7.077604 0.10584,0 0.0863,-0.327422 -0.0434,-0.727604 -2.23215,-6.88722 -6.00722,-18.990338 -6.27196,-20.108332 l -0.14097,-0.595313 5.52094,-0.03135 c 5.89089,-0.03345 6.21334,-0.02093 6.50028,0.252267 0.10207,0.09718 0.38412,1.451488 0.62679,3.009572 l 0.44122,2.832878 4.19523,4.372652 4.19525,4.372649 1.67983,3.518406 1.67984,3.518402 2.49397,2.106332 c 1.37168,1.158483 4.60732,3.994282 7.19031,6.301774 l 4.69636,4.195442 v 1.42357 c 0,1.261922 -0.0676,1.438126 -0.59532,1.551768 -0.66484,0.143174 -20.77657,1.240805 -34.19739,1.866384 -4.80219,0.223842 -12.24359,0.581728 -16.53646,0.795303 -9.54978,0.475109 -26.77357,0.995484 -29.06554,0.878144 l -1.68117,-0.08607 -1.83405,-3.042708 c -1.008724,-1.67349 -2.347685,-3.816614 -2.975467,-4.7625 C 96.592883,50.01219 95.222831,47.795188 94.176107,46.031404 92.350059,42.954416 92.083208,42.647108 87.587956,38.44439 79.125552,30.532687 79.790596,31.383024 76.268021,23.970576 74.573724,20.405316 72.731658,16.510131 72.174544,15.314609 71.416962,13.6889 71.007419,13.105431 70.549981,13.000111 70.213587,12.922662 68.458889,12.552534 66.650655,12.177606 61.162036,11.039567 58.603457,10.287534 52.734329,8.0872244 49.641273,6.9276509 46.915457,5.9789107 46.676959,5.9789107 c -0.238501,0 -3.079441,0.6688481 -6.313204,1.4863312 -3.233762,0.8174804 -6.156026,1.5473759 -6.493923,1.6219857 -0.551593,0.1217957 -7.73536,7.5977274 -9.775565,10.1731364 -0.433626,0.547378 -1.982629,3.962849 -3.516498,7.753691 l -2.74148,6.775359 -2.136462,2.432767 c -1.175055,1.338025 -3.025214,3.460186 -4.111466,4.715917 -1.086252,1.255734 -3.3880903,3.847828 -5.1151977,5.760212 l -3.1401939,3.477062 0.5388928,2.145831 c 0.2963888,1.180206 0.4824094,2.293022 0.4133744,2.472923 -0.167558,0.436647 -2.1945679,0.657122 -6.0489621,0.657939 -1.7462499,2.65e-4 -5.9134372,0.120243 -9.2604165,0.266388 -8.432791,0.368215 -17.782523,0.751067 -26.061457,1.067168 -8.660939,0.330686 -22.796864,0.933159 -33.998956,1.449038 -12.874881,0.592915 -15.052736,0.663792 -15.411979,0.501576 z M 84.622729,58.195937 c -0.654844,-0.04291 -3.095625,-0.2033 -5.423959,-0.35642 -2.328333,-0.153122 -6.555051,-0.342035 -9.392707,-0.419807 -2.837656,-0.07777 -5.933281,-0.224006 -6.879167,-0.324958 -2.064096,-0.2203 -2.046594,-0.0122 -0.359859,-4.278447 l 1.200554,-3.036562 -1.522055,-3.842605 c -3.675935,-9.28032 -5.670941,-14.137197 -5.901811,-14.368067 -0.27427,-0.27427 -1.035418,-0.0512 -6.778286,1.986489 -3.280349,1.163936 -4.894792,2.020726 -4.894792,2.597679 0,0.101293 -1.440648,3.126996 -3.201442,6.723784 -2.181339,4.45584 -3.156611,6.721964 -3.060753,7.111894 0.07738,0.314756 0.468421,1.615937 0.868982,2.891515 0.523578,1.667324 0.647596,2.399927 0.441211,2.606312 -0.206386,0.206386 -1.428631,0.201673 -4.348268,-0.01677 -2.233652,-0.167111 -6.978219,-0.403466 -10.543479,-0.525233 -3.56526,-0.121764 -6.845516,-0.235138 -7.289456,-0.251941 -0.794847,-0.03009 -0.816075,-0.06791 -1.390877,-2.47795 -0.32104,-1.346068 -0.649295,-2.688455 -0.729454,-2.983084 -0.102129,-0.375375 0.255712,-1.066001 1.195734,-2.307744 0.737815,-0.974629 2.569422,-3.614922 4.070239,-5.867317 2.548779,-3.825161 2.875764,-4.473842 4.957641,-9.835123 l 2.228881,-5.739858 2.240034,-2.54151 c 1.232019,-1.397828 3.613269,-3.952661 5.291667,-5.677403 l 3.051632,-3.135894 1.190625,0.148349 c 0.654844,0.08159 3.631406,0.52279 6.614583,0.98044 2.983177,0.45765 8.935532,1.341975 13.227454,1.965163 9.113578,1.323298 7.724862,0.498565 11.114212,6.600521 1.236927,2.226881 3.177674,5.701522 4.312774,7.721428 l 2.063813,3.672554 5.726785,3.571874 c 3.149729,1.964532 5.944769,3.750469 6.211201,3.96875 0.296516,0.24293 0.776216,1.525807 1.236679,3.307292 0.413742,1.600729 1.292487,4.955569 1.952765,7.455201 0.660281,2.499632 1.132303,4.612992 1.04894,4.696354 -0.148492,0.148489 -6.179544,0.135125 -8.530041,-0.01889 z"
         id="path921" /><path
         style="fill:#665043;stroke-width:0.264583"
         d="m -86.827263,86.831163 c 0,-12.975373 0.07088,-16.538424 0.330729,-16.626469 0.241087,-0.08169 0.314138,-0.840658 0.269518,-2.800173 -0.04871,-2.139328 0.01337,-2.688113 0.304088,-2.688113 0.229762,0 0.421146,0.417213 0.51582,1.124479 0.08279,0.618463 0.226345,1.630495 0.319016,2.248958 0.162146,1.082119 0.440323,1.400395 0.764923,0.875184 0.08474,-0.137113 0.716845,-0.319014 1.404677,-0.40422 0.687832,-0.08521 1.875682,-0.289698 2.639666,-0.454419 1.279359,-0.275844 1.389063,-0.35885 1.389063,-1.050989 0,-0.646676 0.103331,-0.751493 0.740833,-0.751493 0.407458,0 0.883708,0.142875 1.058333,0.3175 0.246945,0.246943 0.3175,0.188148 0.3175,-0.264584 0,-0.505983 0.143198,-0.582083 1.095311,-0.582083 0.732866,0 1.211618,0.153218 1.446794,0.463021 0.665462,0.876636 0.441483,1.124265 -1.020751,1.12853 -0.994423,0.0029 -1.276308,0.07692 -0.992187,0.260532 0.218281,0.141066 1.85539,0.258305 3.63802,0.260533 2.414464,0.003 3.2411,0.08841 3.240966,0.33478 -1.39e-4,0.256566 1.186473,0.310531 5.291667,0.240657 3.435987,-0.05848 5.291846,0.0034 5.291846,0.17639 0,0.146552 -0.148828,0.326514 -0.330729,0.399912 -0.181901,0.0734 0.205052,0.133453 0.859896,0.133453 0.654843,0 1.041796,-0.06006 0.859895,-0.133453 -0.943898,-0.38087 -0.04838,-0.618522 2.33072,-0.618522 1.706922,0 2.602802,0.09489 2.497926,0.264584 -0.09566,0.154781 0.178845,0.264583 0.661458,0.264583 0.482613,0 0.757119,-0.109802 0.661459,-0.264583 -0.09876,-0.15979 0.261837,-0.264584 0.910425,-0.264584 0.590672,0 1.073949,-0.119062 1.073949,-0.264583 0,-0.146992 0.705557,-0.264583 1.5875,-0.264583 0.873125,0 1.5875,0.105627 1.5875,0.234725 0,0.795345 19.575814,0.840192 47.624998,0.109106 3.8563019,-0.100513 7.3686455,-0.173133 7.8052079,-0.161383 0.4365625,0.01175 5.5562501,0.09973 11.3770831,0.195512 5.820833,0.09578 12.428801,0.289419 14.684374,0.430313 8.047339,0.502671 27.185476,1.56638 30.956248,1.720569 2.110052,0.08628 7.430217,0.386331 11.822589,0.666782 14.557366,0.929476 33.302112,1.153414 43.078452,0.514649 2.32833,-0.152128 6.97177,-0.393071 10.31875,-0.535427 3.34698,-0.142354 8.64526,-0.384744 11.77396,-0.538644 3.12869,-0.153898 6.7601,-0.324358 8.06979,-0.378801 11.07723,-0.460468 19.2502,-1.089962 19.40277,-1.494433 0.0485,-0.12859 0.8879,-0.233802 1.86532,-0.233802 0.97741,0 1.89022,-0.09537 2.02847,-0.211926 0.34405,-0.290084 3.59783,-0.06551 3.4118,0.23548 -0.0819,0.132566 0.15571,0.24103 0.52811,0.24103 0.42545,0 0.67707,-0.14749 0.67707,-0.396875 0,-0.308682 0.35277,-0.396875 1.5875,-0.396875 0.88193,0 1.5875,0.117591 1.5875,0.264583 0,0.145521 0.18708,0.264583 0.41576,0.264583 1.18706,0 1.17174,-0.233323 1.17174,17.840475 V 103.34557 H 48.639397 -86.827263 Z m 18.722355,-17.798629 c -0.252965,-0.06622 -0.729215,-0.06862 -1.058334,-0.0053 -0.329118,0.06328 -0.122147,0.117469 0.459936,0.120406 0.582084,0.0029 0.851363,-0.04884 0.598398,-0.115067 z m -13.382117,-2.397897 c 0.06576,-0.571492 0.239832,-0.745567 0.811324,-0.811324 0.653764,-0.07522 0.727604,-0.0013 0.727604,0.727604 0,0.728988 -0.08234,0.811324 -0.811324,0.811324 -0.728988,0 -0.802828,-0.07384 -0.727604,-0.727604 z m 19.59674,0.07574 c 0,-0.619726 0.06033,-0.644705 1.223698,-0.506691 1.66778,0.197853 1.885156,0.284726 1.885156,0.753377 0,0.317871 -0.334944,0.405178 -1.554427,0.405178 -1.475565,0 -1.554427,-0.03307 -1.554427,-0.651864 z m 14.270362,-0.340323 c 0.05296,-0.279263 0.375674,-0.496248 0.813149,-0.546741 0.583735,-0.06738 0.725342,0.02302 0.725342,0.463021 0,0.433999 -0.167677,0.54674 -0.813149,0.54674 -0.631491,0 -0.793536,-0.103438 -0.725342,-0.46302 z m -33.783382,-1.389063 c -0.0954,-0.154363 0.173641,-0.264583 0.645843,-0.264583 0.445151,0 0.809365,0.119062 0.809365,0.264583 0,0.145521 -0.290629,0.264583 -0.645843,0.264583 -0.355214,0 -0.719428,-0.119062 -0.809365,-0.264583 z m 6.570486,-0.132292 c 0,-0.218281 0.205543,-0.396875 0.456762,-0.396875 0.251219,0 0.525295,0.178594 0.609057,0.396875 0.108193,0.281946 -0.02408,0.396875 -0.456762,0.396875 -0.364995,0 -0.609057,-0.159035 -0.609057,-0.396875 z m 3.534971,0.22768 c -0.299891,-0.299892 0.09418,-0.624555 0.758074,-0.624555 0.397694,0 0.645843,0.15249 0.645843,0.396875 0,0.396016 -1.063165,0.568431 -1.403917,0.22768 z m 3.256001,-0.09539 c 0,-0.145521 0.47625,-0.264583 1.058333,-0.264583 0.582083,0 1.058333,0.119062 1.058333,0.264583 0,0.145521 -0.47625,0.264583 -1.058333,0.264583 -0.582083,0 -1.058333,-0.119062 -1.058333,-0.264583 z m -10.186458,-0.264583 c 0.08994,-0.145521 0.573213,-0.264584 1.073948,-0.264584 0.500735,0 0.910427,0.119063 0.910427,0.264584 0,0.145521 -0.483277,0.264583 -1.073948,0.264583 -0.648591,0 -1.009183,-0.104793 -0.910427,-0.264583 z M -86.827263,48.31224 c 0,-7.355959 0.08394,-10.31875 0.292341,-10.31875 0.297403,0 3.314013,-2.096164 14.656617,-10.184502 3.492499,-2.490481 10.100468,-7.179961 14.684374,-10.421067 4.583906,-3.241106 8.632031,-6.122452 8.995833,-6.40299 0.653195,-0.503701 0.724249,-0.503701 5.688541,-8.2e-5 2.764896,0.280495 5.88682,0.59033 6.937613,0.688522 l 1.91053,0.178531 1.661345,-1.53628 c 0.913738,-0.8449543 2.86332,-2.7114441 4.332401,-4.1477558 l 2.671056,-2.6114771 3.839101,-0.3271043 c 3.406198,-0.2902215 3.928361,-0.3997749 4.630692,-0.9715526 0.435378,-0.3544464 2.804089,-2.37463534 5.263804,-4.4893069 2.4597116,-2.1146717 5.1965165,-4.4363903 6.0817831,-5.1593748 0.8852667,-0.7229845 2.3517198,-1.9410573 3.2587855,-2.7068275 l 1.64920868,-1.392312 3.22350592,0.153644 c 1.7729278,0.0845 5.1692199,0.245957 7.5473128,0.358783 2.378097,0.112826 4.604496,0.151482 4.947558,0.0859 0.34784,-0.06649 1.36113,-0.952709 2.290773,-2.003491 0.916866,-1.036338 2.860675,-3.139133 4.319579,-4.672877 2.507073,-2.635689 2.782676,-3.042301 5.025271,-7.414025 1.304996,-2.543966 3.028381,-5.901112 3.82974,-7.460323 l 1.457021,-2.834931 6.980737,-6.293194 c 3.839403,-3.461258 7.470809,-6.691664 8.069791,-7.17868 1.082813,-0.880406 1.089494,-0.881922 1.165707,-0.264583 0.04216,0.341495 -0.107146,1.454338 -0.331782,2.472984 -1.136246,5.1524 -2.522996,12.114476 -2.522996,12.666497 0,0.464201 1.575877,2.17514 6.151563,6.678787 l 6.151562,6.054714 1.81334,7.408333 c 0.997336,4.0745835 1.868882,7.6176902 1.936763,7.8735713 0.06788,0.2558812 1.037815,1.1735408 2.15541,2.0392442 1.117592,0.8657034 3.98908,3.12440624 6.381085,5.0193414 2.392006,1.8949378 4.398426,3.3960142 4.458711,3.3357289 0.09315,-0.093146 -2.847708,-4.43894345 -5.979488,-8.8360828 -2.209115,-3.1016864 -2.076243,-2.7145746 -5.357484,-15.608762 -1.756151,-6.901085 -1.648047,-6.390748 -1.353746,-6.390748 0.119973,0 0.837925,1.101328 1.595453,2.447395 0.757526,1.346068 2.424565,4.292865 3.704535,6.548438 l 2.327214,4.101041 3.879524,3.2469109 c 4.005926,3.3526967 5.402881,4.9404982 13.416324,15.2492068 2.307117,2.9679396 3.869386,4.3327767 14.197594,12.4033833 1.62721,1.271526 3.58311,2.844969 4.34644,3.49654 0.76334,0.65157 1.44258,1.129982 1.50942,1.063135 0.0669,-0.06684 -0.35988,-0.869225 -0.94828,-1.783064 -1.26776,-1.968965 -3.54419,-5.7317 -8.688613,-14.3615296 -4.275759,-7.1726369 -4.216736,-6.82701435 -1.218197,-7.1333992 0.976841,-0.099811 5.10983,-0.5944896 9.18441,-1.0992828 4.07458,-0.5047959 7.76552,-0.8830125 8.20208,-0.8404807 0.75145,0.073208 0.95593,0.3964384 3.83646,6.0644137 1.67349,3.2928956 3.19412,6.1657148 3.37919,6.384041 0.18507,0.2183262 1.61382,1.3255386 3.175,2.4604766 1.56118,1.134936 2.89763,2.11138 2.96987,2.169877 0.0722,0.0585 0.73742,1.968937 1.47818,4.245419 l 1.34683,4.13906 3.40663,1.329936 3.40663,1.329938 7.27825,7.077604 c 4.00304,3.892682 7.36486,7.077604 7.4707,7.077604 0.10584,0 0.0863,-0.327422 -0.0434,-0.727604 -2.23215,-6.88722 -6.00722,-18.990338 -6.27196,-20.108332 l -0.14097,-0.595313 5.52094,-0.03135 c 5.89089,-0.03345 6.21334,-0.02093 6.50028,0.252267 0.10207,0.09718 0.38412,1.451488 0.62679,3.009572 l 0.44122,2.832878 4.19523,4.372652 4.19525,4.372649 1.67983,3.518406 1.67984,3.518402 2.49397,2.106332 c 1.37168,1.158483 4.60732,3.994282 7.19031,6.301774 l 4.69636,4.195442 v 1.39164 1.391639 l -4.0349,0.18097 c -2.21919,0.09954 -7.07099,0.350554 -10.78177,0.557821 -31.981,1.786305 -65.92081,3.08275 -67.06429,2.561746 -0.34581,-0.157559 -1.13161,-1.155266 -1.74804,-2.219431 -0.615876,-1.063256 -1.854354,-3.064292 -2.752141,-4.44674 C 96.827103,50.369377 95.233144,47.795188 94.182762,46.031404 92.35379,42.960229 92.074718,42.639171 87.587956,38.44439 79.125552,30.532687 79.790596,31.383024 76.268021,23.970576 74.573724,20.405316 72.731658,16.510131 72.174544,15.314609 71.416962,13.6889 71.007419,13.105431 70.549981,13.000111 70.213587,12.922662 68.458889,12.552534 66.650655,12.177606 61.162036,11.039567 58.603457,10.287534 52.734329,8.0872244 49.641273,6.9276509 46.915457,5.9789107 46.676959,5.9789107 c -0.238501,0 -3.079441,0.6688481 -6.313204,1.4863312 -3.233762,0.8174804 -6.156026,1.5473759 -6.493923,1.6219857 -0.551593,0.1217957 -7.73536,7.5977274 -9.775565,10.1731364 -0.433626,0.547378 -1.982629,3.962849 -3.516498,7.753691 l -2.74148,6.775359 -2.136462,2.432767 c -1.175055,1.338025 -3.025214,3.460186 -4.111466,4.715917 -1.086252,1.255734 -3.3880903,3.847828 -5.1151977,5.760212 l -3.1401939,3.477062 0.5469599,2.17729 c 0.3008286,1.197507 0.4528846,2.271506 0.3379047,2.386661 -0.2288408,0.229187 -2.2449869,0.325501 -15.109684,0.721807 -4.729427,0.145693 -10.62302,0.380476 -13.096874,0.52174 -2.473854,0.141263 -7.950729,0.383288 -12.170833,0.537834 -7.946276,0.291005 -25.297847,1.03895 -39.876992,1.718911 -4.615367,0.215257 -8.931382,0.391376 -9.591145,0.391376 h -1.199569 z M 86.474812,58.084799 C 84.073718,57.973481 79.847,57.750601 77.082104,57.589512 c -2.764896,-0.161089 -6.753489,-0.343477 -8.863541,-0.405304 -5.310251,-0.155602 -6.879167,-0.364565 -6.879167,-0.916234 0,-0.240943 0.546762,-1.798323 1.215025,-3.460842 l 1.215025,-3.022762 -1.522984,-3.844919 c -3.67729,-9.283679 -5.671851,-14.139494 -5.902737,-14.37038 -0.27427,-0.27427 -1.035418,-0.0512 -6.778286,1.986489 -3.280349,1.163936 -4.894792,2.020726 -4.894792,2.597679 0,0.101293 -1.42875,3.102692 -3.175,6.66977 -1.74625,3.56708 -3.174999,6.60787 -3.174999,6.757307 0,0.149439 0.36115,1.376873 0.802557,2.727632 0.441407,1.350756 0.736362,2.628431 0.655453,2.839275 -0.157491,0.410414 -2.913385,0.356428 -10.586135,-0.20737 -1.891771,-0.139007 -5.469683,-0.258336 -7.950914,-0.265176 l -4.511333,-0.01244 -0.583711,-2.447396 c -0.32104,-1.346068 -0.649295,-2.688455 -0.729454,-2.983084 -0.102129,-0.375375 0.255712,-1.066001 1.195734,-2.307744 0.737815,-0.974629 2.569422,-3.614922 4.070239,-5.867317 2.548779,-3.825161 2.875764,-4.473842 4.957641,-9.835123 l 2.228881,-5.739858 2.240034,-2.54151 c 1.232019,-1.397828 3.613269,-3.952661 5.291667,-5.677403 l 3.051632,-3.135894 1.190625,0.148349 c 0.654844,0.08159 3.631406,0.52279 6.614583,0.98044 2.983177,0.45765 8.935532,1.341975 13.227454,1.965163 9.113578,1.323298 7.724862,0.498565 11.114212,6.600521 1.236927,2.226881 3.177674,5.701522 4.312774,7.721428 l 2.063813,3.672554 5.726785,3.571874 c 3.149729,1.964532 5.944769,3.750469 6.211201,3.96875 0.296516,0.24293 0.776216,1.525807 1.236679,3.307292 0.413742,1.600729 1.292487,4.955569 1.952765,7.455201 0.660281,2.499632 1.132303,4.612992 1.04894,4.696354 -0.166568,0.166566 -0.362704,0.162748 -6.677958,-0.13004 z"
         id="path919" /><path
         style="fill:#4d524f;stroke-width:0.264583"
         d="m -86.827263,86.831163 c 0,-12.975373 0.07088,-16.538424 0.330729,-16.626469 0.241087,-0.08169 0.314138,-0.840658 0.269518,-2.800173 -0.04871,-2.139328 0.01337,-2.688113 0.304088,-2.688113 0.229762,0 0.421146,0.417213 0.51582,1.124479 0.08279,0.618463 0.226345,1.630495 0.319016,2.248958 0.162146,1.082119 0.440323,1.400395 0.764923,0.875184 0.08474,-0.137113 0.716845,-0.319014 1.404677,-0.40422 0.687832,-0.08521 1.875682,-0.289698 2.639666,-0.454419 1.279359,-0.275844 1.389063,-0.35885 1.389063,-1.050989 0,-0.646676 0.103331,-0.751493 0.740833,-0.751493 0.407458,0 0.883708,0.142875 1.058333,0.3175 0.246945,0.246943 0.3175,0.188148 0.3175,-0.264584 0,-0.505983 0.143198,-0.582083 1.095311,-0.582083 0.732866,0 1.211618,0.153218 1.446794,0.463021 0.665462,0.876636 0.441483,1.124265 -1.020751,1.12853 -0.994423,0.0029 -1.276308,0.07692 -0.992187,0.260532 0.218281,0.141066 1.85539,0.258305 3.63802,0.260533 2.414464,0.003 3.2411,0.08841 3.240966,0.33478 -1.39e-4,0.256566 1.186473,0.310531 5.291667,0.240657 3.435987,-0.05848 5.291846,0.0034 5.291846,0.17639 0,0.146552 -0.148828,0.326514 -0.330729,0.399912 -0.181901,0.0734 0.205052,0.133453 0.859896,0.133453 0.654843,0 1.041796,-0.06006 0.859895,-0.133453 -0.943898,-0.38087 -0.04838,-0.618522 2.33072,-0.618522 1.706922,0 2.602802,0.09489 2.497926,0.264584 -0.09566,0.154781 0.178845,0.264583 0.661458,0.264583 0.482613,0 0.757119,-0.109802 0.661459,-0.264583 -0.09876,-0.15979 0.261837,-0.264584 0.910425,-0.264584 0.590672,0 1.073949,-0.119062 1.073949,-0.264583 0,-0.146992 0.705557,-0.264583 1.5875,-0.264583 0.873125,0 1.5875,0.105627 1.5875,0.234725 0,0.795345 19.575814,0.840192 47.624998,0.109106 3.8563019,-0.100513 7.3686455,-0.173133 7.8052079,-0.161383 0.4365625,0.01175 5.5562501,0.09973 11.3770831,0.195512 5.820833,0.09578 12.428801,0.289419 14.684374,0.430313 8.047339,0.502671 27.185476,1.56638 30.956248,1.720569 2.110052,0.08628 7.430217,0.386331 11.822589,0.666782 14.557366,0.929476 33.302112,1.153414 43.078452,0.514649 2.32833,-0.152128 6.97177,-0.393071 10.31875,-0.535427 3.34698,-0.142354 8.64526,-0.384744 11.77396,-0.538644 3.12869,-0.153898 6.7601,-0.324358 8.06979,-0.378801 11.07723,-0.460468 19.2502,-1.089962 19.40277,-1.494433 0.0485,-0.12859 0.8879,-0.233802 1.86532,-0.233802 0.97741,0 1.89022,-0.09537 2.02847,-0.211926 0.34405,-0.290084 3.59783,-0.06551 3.4118,0.23548 -0.0819,0.132566 0.15571,0.24103 0.52811,0.24103 0.42545,0 0.67707,-0.14749 0.67707,-0.396875 0,-0.308682 0.35277,-0.396875 1.5875,-0.396875 0.88193,0 1.5875,0.117591 1.5875,0.264583 0,0.145521 0.18708,0.264583 0.41576,0.264583 1.18706,0 1.17174,-0.233323 1.17174,17.840475 V 103.34557 H 48.639397 -86.827263 Z m 18.722355,-17.798629 c -0.252965,-0.06622 -0.729215,-0.06862 -1.058334,-0.0053 -0.329118,0.06328 -0.122147,0.117469 0.459936,0.120406 0.582084,0.0029 0.851363,-0.04884 0.598398,-0.115067 z m -13.382117,-2.397897 c 0.06576,-0.571492 0.239832,-0.745567 0.811324,-0.811324 0.653764,-0.07522 0.727604,-0.0013 0.727604,0.727604 0,0.728988 -0.08234,0.811324 -0.811324,0.811324 -0.728988,0 -0.802828,-0.07384 -0.727604,-0.727604 z m 19.59674,0.07574 c 0,-0.619726 0.06033,-0.644705 1.223698,-0.506691 1.66778,0.197853 1.885156,0.284726 1.885156,0.753377 0,0.317871 -0.334944,0.405178 -1.554427,0.405178 -1.475565,0 -1.554427,-0.03307 -1.554427,-0.651864 z m 14.270362,-0.340323 c 0.05296,-0.279263 0.375674,-0.496248 0.813149,-0.546741 0.583735,-0.06738 0.725342,0.02302 0.725342,0.463021 0,0.433999 -0.167677,0.54674 -0.813149,0.54674 -0.631491,0 -0.793536,-0.103438 -0.725342,-0.46302 z m -33.783382,-1.389063 c -0.0954,-0.154363 0.173641,-0.264583 0.645843,-0.264583 0.445151,0 0.809365,0.119062 0.809365,0.264583 0,0.145521 -0.290629,0.264583 -0.645843,0.264583 -0.355214,0 -0.719428,-0.119062 -0.809365,-0.264583 z m 6.570486,-0.132292 c 0,-0.218281 0.205543,-0.396875 0.456762,-0.396875 0.251219,0 0.525295,0.178594 0.609057,0.396875 0.108193,0.281946 -0.02408,0.396875 -0.456762,0.396875 -0.364995,0 -0.609057,-0.159035 -0.609057,-0.396875 z m 3.534971,0.22768 c -0.299891,-0.299892 0.09418,-0.624555 0.758074,-0.624555 0.397694,0 0.645843,0.15249 0.645843,0.396875 0,0.396016 -1.063165,0.568431 -1.403917,0.22768 z m 3.256001,-0.09539 c 0,-0.145521 0.47625,-0.264583 1.058333,-0.264583 0.582083,0 1.058333,0.119062 1.058333,0.264583 0,0.145521 -0.47625,0.264583 -1.058333,0.264583 -0.582083,0 -1.058333,-0.119062 -1.058333,-0.264583 z m -10.186458,-0.264583 c 0.08994,-0.145521 0.573213,-0.264584 1.073948,-0.264584 0.500735,0 0.910427,0.119063 0.910427,0.264584 0,0.145521 -0.483277,0.264583 -1.073948,0.264583 -0.648591,0 -1.009183,-0.104793 -0.910427,-0.264583 z M -86.827263,48.31224 c 0,-7.355959 0.08394,-10.31875 0.292341,-10.31875 0.297025,0 3.276203,-2.069959 14.656617,-10.183547 3.492499,-2.489954 10.040937,-7.128618 14.552082,-10.30814 4.511146,-3.179521 8.554752,-6.074412 8.985792,-6.433089 0.431038,-0.35868 0.825119,-0.527902 0.875737,-0.376052 0.123028,0.369088 -1.651548,5.447686 -2.154405,6.165614 -0.21835,0.31174 -1.937358,2.128832 -3.820022,4.037986 l -3.423023,3.471187 -0.792437,2.513542 c -0.435843,1.382448 -1.007002,3.32676 -1.269241,4.320693 l -0.4768,1.807155 -3.858336,3.510891 c -4.147595,3.774101 -4.745809,4.384177 -4.298935,4.384177 0.31612,0 4.523476,-1.802307 4.940004,-2.116151 0.145521,-0.109648 1.990989,-0.95002 4.101041,-1.867495 2.110052,-0.917474 4.084222,-1.856306 4.387048,-2.08629 0.302824,-0.229983 2.056921,-2.202785 3.897998,-4.384005 1.841074,-2.181217 4.850101,-5.692256 6.686722,-7.802308 1.836623,-2.110052 4.633875,-5.341099 6.216117,-7.180106 1.582243,-1.839005 3.266546,-3.579799 3.742897,-3.868431 0.47635,-0.288631 2.623034,-2.2179592 4.770408,-4.2873923 l 3.904318,-3.762605 3.796464,-0.3234717 c 3.363494,-0.2865808 3.886742,-0.3969676 4.588057,-0.9679198 0.435378,-0.3544464 2.804089,-2.37463534 5.263804,-4.4893069 2.4597116,-2.1146717 5.1965165,-4.4363903 6.0817831,-5.1593748 0.8852667,-0.7229845 2.3735479,-1.9593162 3.3072916,-2.7474065 2.03496848,-1.717535 2.14249778,-1.55824 1.17569446,1.7417227 -0.87494266,2.986418 -1.00508586,3.4838506 -1.99587106,7.62866734 C -4.3842275,6.3023883 -3.8617654,5.3333254 -8.4342705,9.8788721 -10.665163,12.096612 -12.591512,14.180206 -12.715049,14.50908 c -0.123534,0.328875 -0.602652,2.622016 -1.064707,5.09587 -0.462055,2.473854 -0.945385,5.033697 -1.074068,5.688541 -0.128685,0.654844 -0.141901,1.285153 -0.02937,1.400688 0.11253,0.115536 0.66067,-0.301183 1.218089,-0.926041 0.557419,-0.624859 4.1825646,-4.469855 8.0558819,-8.544438 C -1.7359099,13.149119 1.9724026,9.1009939 2.6314691,8.2278689 4.185359,6.1692837 11.386174,-4.7667228 14.035492,-9.0916309 c 0.540403,-0.8821895 1.254778,-1.7089831 1.5875,-1.8373221 0.332721,-0.128339 1.319323,-1.048009 2.192448,-2.043713 0.873125,-0.995701 2.781147,-3.064454 4.240051,-4.597228 2.507983,-2.634975 2.781864,-3.038948 5.025271,-7.412257 1.304996,-2.543966 3.028381,-5.901112 3.82974,-7.460323 l 1.457021,-2.834931 6.980737,-6.293194 c 7.830349,-7.05913 9.113887,-8.147864 9.222298,-7.82263 0.04154,0.12461 -0.165733,1.353147 -0.4606,2.730081 -2.529451,11.811759 -2.69516,12.764383 -2.336834,13.433919 0.192484,0.359657 2.932363,3.174101 6.08862,6.254316 3.156259,3.080216 5.860396,5.891085 6.009193,6.246379 0.148799,0.355293 1.078833,3.90876 2.066745,7.896597 l 1.7962,7.2506071 1.32411,1.1464475 c 2.7887,2.4145239 11.389621,9.0908765 11.711469,9.0908765 0.309509,0 -2.173293,-3.84895177 -5.888181,-9.1281245 -2.067774,-2.9384862 -2.171181,-3.1699358 -3.170345,-7.0960056 -0.48813,-1.918031 -1.433291,-5.588061 -2.100358,-8.155625 -0.667065,-2.567564 -1.212847,-4.885031 -1.212847,-5.149926 0,-0.795097 0.561774,-0.02656 2.535139,3.468224 5.032936,8.913198 4.635682,8.377298 8.57736,11.570951 3.87269,3.1377597 4.820819,4.2171776 13.758333,15.663486 1.727689,2.2126574 2.752227,3.1482213 7.920479,7.232644 3.264855,2.580188 7.249979,5.743469 8.855819,7.029513 1.60584,1.286047 2.96223,2.210726 3.01419,2.054845 0.052,-0.155882 -0.7308,-1.62482 -1.73948,-3.264308 C 101.2488,12.265101 94.841868,1.5437111 94.15007,0.19057643 93.727014,-0.6369132 94.001937,-0.79709723 96.23682,-1.0252712 c 0.961051,-0.098121 5.08112,-0.5914152 9.1557,-1.0962084 4.07458,-0.5047959 7.75982,-0.8830125 8.18942,-0.8404807 0.73856,0.07312 0.94972,0.417613 3.8788,6.3283144 l 3.09772,6.2509821 3.20793,2.3475998 3.20793,2.347601 1.22917,3.836833 c 0.67605,2.110256 1.39231,4.031422 1.59169,4.269256 0.19938,0.237834 1.10066,0.699175 2.00284,1.025202 4.48339,1.620195 4.49116,1.626002 12.11437,9.047617 3.93042,3.826492 7.27763,7.002968 7.43823,7.058837 0.19655,0.06837 0.23463,-0.185338 0.11648,-0.776076 -0.16728,-0.836382 -5.01155,-16.27408 -5.89068,-18.772379 -0.23043,-0.654844 -0.47882,-1.394315 -0.55198,-1.643269 -0.12207,-0.415417 0.32773,-0.458936 5.46929,-0.529167 3.08126,-0.04209 5.81601,0.0029 6.07721,0.09994 0.36875,0.137015 0.51639,0.597398 0.66045,2.05939 0.36579,3.712191 0.52848,3.993142 4.99859,8.632073 l 4.05998,4.213323 1.71791,3.578576 c 1.54102,3.210118 1.8657,3.695756 3.15336,4.716664 0.7895,0.625948 4.02109,3.420901 7.1813,6.211006 l 5.74588,5.072919 0.009,1.35209 0.009,1.352092 -4.03489,0.18097 c -2.2192,0.09954 -7.07099,0.350554 -10.78177,0.557821 -30.56408,1.707163 -66.16068,3.088859 -67.03094,2.601836 -0.24273,-0.135838 -1.31188,-1.67055 -2.375889,-3.410477 C 91.460919,41.276424 92.590168,42.895361 89.295217,39.869417 87.962175,38.645206 85.203386,36.02567 83.164575,34.048224 l -3.70674,-3.595356 -4.096597,-8.672264 C 70.711697,11.937787 71.663358,13.06855 67.292521,12.193364 61.647792,11.063101 58.306356,10.056817 50.688404,7.1929777 l -3.904117,-1.467686 -4.827132,1.1912785 c -2.654922,0.6552009 -5.751587,1.4493451 -6.881476,1.7647601 l -2.054342,0.5734817 -2.842172,3.058403 c -7.264228,7.816882 -6.762387,7.045444 -10.112515,15.545207 l -2.210213,5.607637 -2.908289,3.388196 c -4.884486,5.690491 -9.5961141,11.012524 -10.5996945,11.972911 -1.0737056,1.027496 -1.1468629,1.516811 -0.5559293,3.718409 0.6396064,2.382935 0.6889485,2.31448 -1.7859374,2.477749 -1.20054682,0.0792 -6.6476559,0.272103 -12.1046868,0.42867 -5.457031,0.156564 -11.767343,0.396396 -14.022916,0.532958 -2.255573,0.136565 -7.613385,0.375885 -11.90625,0.531828 -7.974977,0.2897 -24.999985,1.022811 -40.009283,1.722835 -4.615367,0.215257 -8.931382,0.391376 -9.591145,0.391376 h -1.199569 z m 152.929159,8.836951 c -0.363802,-0.04378 -1.584192,-0.15516 -2.711979,-0.247515 -1.691783,-0.138542 -2.050521,-0.246984 -2.050521,-0.61985 0,-0.248563 0.546762,-1.812177 1.215025,-3.474696 l 1.215025,-3.022762 -1.522984,-3.844919 c -3.67729,-9.283679 -5.671851,-14.139494 -5.902737,-14.37038 -0.27427,-0.27427 -1.035418,-0.0512 -6.778286,1.986489 -3.280349,1.163936 -4.894792,2.020726 -4.894792,2.597679 0,0.101293 -1.42875,3.102692 -3.175,6.66977 -1.74625,3.56708 -3.174999,6.60787 -3.174999,6.757307 0,0.149439 0.36115,1.376873 0.802557,2.727632 0.441407,1.350756 0.7428,2.611649 0.669764,2.801982 -0.144595,0.376804 -4.033874,0.446857 -6.743046,0.121457 -1.299588,-0.156094 -1.457931,-0.246804 -1.686282,-0.96602 -0.138607,-0.436563 -0.713576,-1.977504 -1.277713,-3.424312 -1.125601,-2.886784 -1.255133,-4.029749 -0.579998,-5.117808 0.245134,-0.395063 0.942917,-1.492203 1.550627,-2.438088 0.607714,-0.945886 1.78607,-2.910417 2.618574,-4.365625 0.832503,-1.455208 1.973085,-3.360208 2.534628,-4.233333 0.561542,-0.873125 1.972093,-3.194844 3.134559,-5.159375 2.462072,-4.160832 3.094902,-5.027083 3.672477,-5.027083 0.23241,0 2.012733,-0.380299 3.956272,-0.845108 3.975132,-0.950677 2.820818,-1.018289 10.871295,0.636775 l 4.04559,0.831715 1.275815,2.135704 c 0.701699,1.174638 1.848647,3.207268 2.548774,4.516955 0.700127,1.309688 1.586907,2.8575 1.970627,3.439584 0.383717,0.582083 1.39279,2.308489 2.242383,3.836458 0.849593,1.527968 1.810676,3.194843 2.135743,3.704166 1.528691,2.395188 2.770862,4.779632 2.780729,5.337828 0.006,0.338413 -0.976284,2.549994 -2.182813,4.914622 l -2.193689,4.299329 -1.852083,-0.03949 c -1.018646,-0.02172 -2.14974,-0.07531 -2.513542,-0.119086 z"
         id="path917" /><path
         style="fill:#45673e;stroke-width:0.264583"
         d="m -86.827263,86.765017 c 0,-12.922456 0.07089,-16.472283 0.330729,-16.560323 0.241087,-0.08169 0.314138,-0.840658 0.269518,-2.800173 -0.04871,-2.139328 0.01337,-2.688113 0.304088,-2.688113 0.229762,0 0.421146,0.417213 0.51582,1.124479 0.08279,0.618463 0.226345,1.630495 0.319016,2.248958 0.162146,1.082119 0.440323,1.400395 0.764923,0.875184 0.08474,-0.137113 0.716845,-0.319014 1.404677,-0.40422 0.687832,-0.08521 1.875682,-0.289698 2.639666,-0.454419 1.279359,-0.275844 1.389063,-0.35885 1.389063,-1.050989 0,-0.646676 0.103331,-0.751493 0.740833,-0.751493 0.407458,0 0.883708,0.142875 1.058333,0.3175 0.246945,0.246943 0.3175,0.188148 0.3175,-0.264584 0,-0.505983 0.143198,-0.582083 1.095311,-0.582083 0.732866,0 1.211618,0.153218 1.446794,0.463021 0.665462,0.876636 0.441483,1.124265 -1.020751,1.12853 -0.994423,0.0029 -1.276308,0.07692 -0.992187,0.260532 0.218281,0.141066 1.85539,0.258305 3.63802,0.260533 2.414464,0.003 3.2411,0.08841 3.240966,0.33478 -1.39e-4,0.256566 1.186473,0.310531 5.291667,0.240657 3.435987,-0.05848 5.291846,0.0034 5.291846,0.17639 0,0.146552 -0.148828,0.326514 -0.330729,0.399912 -0.181901,0.0734 0.205052,0.133453 0.859896,0.133453 0.654843,0 1.041796,-0.06006 0.859895,-0.133453 -0.943898,-0.38087 -0.04838,-0.618522 2.33072,-0.618522 1.706922,0 2.602802,0.09489 2.497926,0.264584 -0.09566,0.154781 0.178845,0.264583 0.661458,0.264583 0.482613,0 0.757119,-0.109802 0.661459,-0.264583 -0.09876,-0.15979 0.261837,-0.264584 0.910425,-0.264584 0.590672,0 1.073949,-0.119062 1.073949,-0.264583 0,-0.146992 0.705557,-0.264583 1.5875,-0.264583 0.873125,0 1.5875,0.105627 1.5875,0.234725 0,0.795345 19.575814,0.840192 47.624998,0.109106 3.8563019,-0.100513 7.3686455,-0.173133 7.8052079,-0.161383 0.4365625,0.01175 5.5562501,0.09973 11.3770831,0.195512 5.820833,0.09578 12.428801,0.289419 14.684374,0.430313 8.047339,0.502671 27.185476,1.56638 30.956248,1.720569 2.110052,0.08628 7.430217,0.386331 11.822589,0.666782 14.557366,0.929476 33.302112,1.153414 43.078452,0.514649 2.32833,-0.152128 6.97177,-0.393071 10.31875,-0.535427 3.34698,-0.142354 8.64526,-0.384744 11.77396,-0.538644 3.12869,-0.153898 6.7601,-0.324358 8.06979,-0.378801 11.07723,-0.460468 19.2502,-1.089962 19.40277,-1.494433 0.0485,-0.12859 0.8879,-0.233802 1.86532,-0.233802 0.97741,0 1.89022,-0.09537 2.02847,-0.211926 0.34405,-0.290084 3.59783,-0.06551 3.4118,0.23548 -0.0819,0.132566 0.15571,0.24103 0.52811,0.24103 0.42545,0 0.67707,-0.14749 0.67707,-0.396875 0,-0.308682 0.35277,-0.396875 1.5875,-0.396875 0.88193,0 1.5875,0.117591 1.5875,0.264583 0,0.145521 0.18708,0.264583 0.41576,0.264583 1.18682,0 1.17174,-0.228833 1.17174,17.774329 V 103.21328 H 48.639397 -86.827263 Z m 18.722355,-17.732483 c -0.252965,-0.06622 -0.729215,-0.06862 -1.058334,-0.0053 -0.329118,0.06328 -0.122147,0.117469 0.459936,0.120406 0.582084,0.0029 0.851363,-0.04884 0.598398,-0.115067 z m -13.382117,-2.397897 c 0.06576,-0.571492 0.239832,-0.745567 0.811324,-0.811324 0.653764,-0.07522 0.727604,-0.0013 0.727604,0.727604 0,0.728988 -0.08234,0.811324 -0.811324,0.811324 -0.728988,0 -0.802828,-0.07384 -0.727604,-0.727604 z m 19.59674,0.07574 c 0,-0.619726 0.06033,-0.644705 1.223698,-0.506691 1.66778,0.197853 1.885156,0.284726 1.885156,0.753377 0,0.317871 -0.334944,0.405178 -1.554427,0.405178 -1.475565,0 -1.554427,-0.03307 -1.554427,-0.651864 z m 14.270362,-0.340323 c 0.05296,-0.279263 0.375674,-0.496248 0.813149,-0.546741 0.583735,-0.06738 0.725342,0.02302 0.725342,0.463021 0,0.433999 -0.167677,0.54674 -0.813149,0.54674 -0.631491,0 -0.793536,-0.103438 -0.725342,-0.46302 z m -33.783382,-1.389063 c -0.0954,-0.154363 0.173641,-0.264583 0.645843,-0.264583 0.445151,0 0.809365,0.119062 0.809365,0.264583 0,0.145521 -0.290629,0.264583 -0.645843,0.264583 -0.355214,0 -0.719428,-0.119062 -0.809365,-0.264583 z m 6.570486,-0.132292 c 0,-0.218281 0.205543,-0.396875 0.456762,-0.396875 0.251219,0 0.525295,0.178594 0.609057,0.396875 0.108193,0.281946 -0.02408,0.396875 -0.456762,0.396875 -0.364995,0 -0.609057,-0.159035 -0.609057,-0.396875 z m 3.534971,0.22768 c -0.299891,-0.299892 0.09418,-0.624555 0.758074,-0.624555 0.397694,0 0.645843,0.15249 0.645843,0.396875 0,0.396016 -1.063165,0.568431 -1.403917,0.22768 z m 3.256001,-0.09539 c 0,-0.145521 0.47625,-0.264583 1.058333,-0.264583 0.582083,0 1.058333,0.119062 1.058333,0.264583 0,0.145521 -0.47625,0.264583 -1.058333,0.264583 -0.582083,0 -1.058333,-0.119062 -1.058333,-0.264583 z m -10.186458,-0.264583 c 0.08994,-0.145521 0.573213,-0.264584 1.073948,-0.264584 0.500735,0 0.910427,0.119063 0.910427,0.264584 0,0.145521 -0.483277,0.264583 -1.073948,0.264583 -0.648591,0 -1.009183,-0.104793 -0.910427,-0.264583 z m -8.535919,-16.33802 c 0.04474,-6.623918 0.163052,-10.252604 0.334275,-10.252604 0.280674,0 3.418,-2.191173 16.66831,-11.641483 4.511146,-3.217416 10.821458,-7.679171 14.022916,-9.915017 3.201458,-2.235843 6.28143,-4.423428 6.844382,-4.8613 l 1.023548,-0.796132 -0.176506,0.803625 c -0.09708,0.441994 -0.521745,1.729052 -0.943705,2.860129 -0.670063,1.796127 -1.047718,2.345198 -2.982788,4.336675 -5.392486,5.549672 -5.153004,5.232024 -6.007777,7.968712 -0.431792,1.382448 -1.002514,3.284813 -1.268267,4.227475 -0.46623,1.653773 -0.584896,1.806144 -3.38083,4.34113 -5.368154,4.867132 -6.780853,6.240116 -6.69113,6.503024 0.04913,0.143957 2.351511,-0.782262 5.116407,-2.058262 2.764896,-1.276001 6.257583,-2.850775 7.761525,-3.499496 2.712823,-1.17017 2.749624,-1.198324 4.654608,-3.560746 1.056092,-1.309688 4.171373,-4.955622 6.922849,-8.102076 2.751476,-3.146454 6.312371,-7.27217 7.9131,-9.168257 1.600729,-1.896086 3.11627,-3.548432 3.36787,-3.671882 0.251601,-0.123449 2.289953,-2.0276418 4.529672,-4.2315415 l 4.072215,-4.0070906 2.878664,-0.1884441 c 4.979315,-0.3259587 4.42627,-0.053829 10.308415,-5.0723348 9.10922,-7.7717699 11.08782439,-9.367726 11.16625747,-9.006787 0.0413491,0.190283 -0.41198267,2.06683 -1.00740627,4.1701086 -0.5954236,2.103276 -1.5205313,5.61007661 -2.0557939,7.792889 L -4.6666199,5.3174524 -8.6391321,9.3090516 C -10.824011,11.504432 -12.75367,13.472969 -12.92726,13.68358 c -0.309473,0.375472 -1.461159,5.759867 -2.331241,10.899084 -0.424643,2.508191 -0.403519,3.356662 0.08357,3.356662 0.127291,0 1.707221,-1.637109 3.510949,-3.63802 1.8037311,-2.000912 5.4216116,-5.881423 8.039735,-8.623361 C -1.0061282,12.93601 1.759847,9.8999164 2.5223602,8.9310705 3.9945706,7.0604903 8.4168109,0.41687983 12.412683,-5.9273387 c 1.329005,-2.110052 2.969247,-4.3743823 3.644982,-5.0318453 1.515496,-1.47452 8.379317,-8.955598 8.867224,-9.664647 0.195686,-0.284377 1.9465,-3.640431 3.890701,-7.457897 l 3.53491,-6.940852 5.942845,-5.362273 c 3.268567,-2.949252 6.764353,-6.106416 7.768418,-7.015921 1.004064,-0.909505 1.922785,-1.653646 2.041604,-1.653646 0.118816,0 -0.133858,1.637109 -0.561499,3.638021 -1.967081,9.203859 -2.390566,11.478505 -2.245005,12.058472 0.08596,0.342498 2.872867,3.292866 6.19312,6.556369 l 6.036826,5.933644 0.423979,1.847892 c 1.256133,5.474832 3.396726,13.3882731 3.779599,13.9726133 0.241739,0.3689403 0.73887,0.866939 1.104733,1.1066621 0.365863,0.2397231 3.185324,2.433214 6.265471,4.8744238 6.016207,4.7682227 6.657993,5.2097302 6.930966,4.7680534 0.162724,-0.2632975 -0.276574,-0.9507326 -4.303469,-6.7342779 -4.683627,-6.726761 -4.437149,-6.2533209 -5.647531,-10.8479157 -1.426638,-5.41551 -2.635453,-10.525083 -2.552358,-10.788629 0.0356,-0.112911 0.298691,0.244277 0.584644,0.79375 0.285957,0.549476 0.774724,1.356233 1.086149,1.792796 0.311428,0.436562 1.255199,2.103437 2.09727,3.704166 1.768613,3.362037 1.968082,3.610832 4.626467,5.770515 1.091406,0.8866608 2.639219,2.1433919 3.439583,2.7927322 0.800365,0.6493431 2.517997,2.5005955 3.816961,4.113895 1.298964,1.6132994 3.144433,3.90158793 4.101042,5.085085 0.956609,1.1834944 2.632257,3.3083313 3.723663,4.7218571 1.99431,2.5829153 3.022767,3.4721772 13.467612,11.6448627 0.93151,0.728871 2.81416,2.247952 4.18367,3.375739 3.56612,2.936684 4.17655,2.742882 1.9765,-0.62751 C 105.35359,18.540689 96.582374,3.9853971 94.984372,1.1706671 94.504495,0.32540809 94.243544,-0.39907661 94.38703,-0.487757 c 0.140137,-0.0866087 3.685731,-0.571709 7.8791,-1.0780024 4.19337,-0.5062934 8.49837,-1.0402384 9.56668,-1.1865424 1.0683,-0.1463067 2.0351,-0.2086954 2.14845,-0.1386443 0.11334,0.070048 0.48156,0.8740351 0.81827,1.7866306 0.3367,0.91259813 0.90937,2.1355181 1.2726,2.7176014 0.36323,0.5820833 1.39953,2.611702 2.30289,4.5102646 1.56382,3.2866275 1.72942,3.5217706 3.45811,4.9103435 0.9986,0.802127 2.37589,1.840442 3.06064,2.307365 1.67975,1.145416 1.89844,1.514755 2.99268,5.054354 1.50078,4.85468 1.10647,4.396284 5.23238,6.082747 l 3.61247,1.476591 6.29102,6.180093 c 9.23726,9.074369 8.77028,8.644408 9.06674,8.347942 0.17759,-0.177583 0.003,-1.04974 -0.52783,-2.634258 -0.43633,-1.302826 -2.01939,-6.252273 -3.51792,-10.998768 l -2.7246,-8.629991 2.12961,-0.165817 c 1.17129,-0.0912 3.70492,-0.166534 5.6303,-0.167407 3.41725,-0.0016 3.50369,0.01259 3.62655,0.593728 0.0692,0.327421 0.29985,1.759577 0.51249,3.182564 l 0.38662,2.587254 2.15306,2.35839 c 1.18418,1.297115 3.08346,3.26381 4.22062,4.370432 1.65248,1.608106 2.21618,2.368106 2.80782,3.785608 1.65998,3.977122 2.67988,5.490104 4.97094,7.374226 1.18959,0.978283 4.32789,3.719983 6.97401,6.092663 2.64612,2.37268 4.93808,4.313965 5.09323,4.313965 0.15795,0 0.2821,0.523989 0.2821,1.190625 v 1.190625 l -2.57969,0.004 c -1.76932,0.0028 -2.45502,0.08495 -2.18281,0.26157 0.26347,0.17095 -0.41746,0.201334 -2.02565,0.09038 -1.33238,-0.09192 -2.64207,-0.07425 -2.91041,0.03927 -0.26835,0.113522 -1.45717,0.180435 -2.64184,0.148693 -1.21697,-0.0326 -2.2251,0.05743 -2.31752,0.206979 -0.10161,0.164401 -1.1306,0.206994 -2.71587,0.112413 -1.50011,-0.0895 -2.49084,-0.05343 -2.40326,0.0875 0.0865,0.139102 -0.90742,0.204105 -2.36732,0.154823 -1.64296,-0.05546 -2.45917,0.0076 -2.35162,0.181595 0.10854,0.175619 -0.64104,0.214331 -2.19752,0.11349 -1.29924,-0.08417 -2.5815,-0.06513 -2.84947,0.04233 -0.26798,0.107458 -1.64809,0.17711 -3.06692,0.154784 -1.5305,-0.02408 -2.57968,0.06453 -2.57968,0.21789 0,0.160464 -0.94412,0.202155 -2.48972,0.109942 -1.36934,-0.0817 -2.70879,-0.05506 -2.97656,0.05919 -0.26777,0.114249 -1.9156,0.185737 -3.66185,0.158858 -2.29402,-0.03531 -3.06488,0.02877 -2.77812,0.230926 0.28409,0.200284 -0.29264,0.230634 -2.0295,0.106802 -1.3345,-0.09515 -2.64419,-0.07797 -2.91042,0.03817 -0.26622,0.116139 -1.57812,0.18053 -2.91532,0.143092 -1.33721,-0.03744 -2.54474,0.0021 -2.68339,0.08774 -0.2492,0.154014 -7.31598,0.358664 -13.8848,0.402096 -2.32762,0.0154 -3.33444,0.110775 -3.21467,0.304559 0.12094,0.195694 -0.92058,0.261869 -3.399,0.215958 l -3.57337,-0.06619 -1.12919,-2.001896 c -0.62105,-1.10104 -1.563793,-2.656737 -2.094981,-3.457101 -0.531185,-0.800365 -2.143231,-3.41974 -3.582321,-5.820833 C 92.74002,42.493317 93.023593,42.812597 84.901094,35.215368 L 80.375071,30.982034 77.768396,25.690368 C 76.334727,22.779952 74.323622,18.652991 73.299274,16.519347 L 71.436827,12.639992 69.893841,12.33375 C 62.384085,10.843262 58.680403,9.7850741 51.724243,7.1424688 49.273564,6.2114715 47.052032,5.4497441 46.787504,5.4497441 c -0.569166,0 -9.689171,2.1863578 -12.191449,2.9226799 -1.674082,0.4926171 -1.85058,0.6303195 -4.644247,3.623344 -1.597215,1.711198 -3.83242,4.160425 -4.96712,5.44273 l -2.063094,2.331464 -2.728418,6.729102 c -1.500629,3.701008 -2.947169,7.012546 -3.214533,7.358973 -0.685922,0.888759 -7.9695993,9.216982 -11.3390124,12.965127 -3.0926006,3.440221 -2.9207379,2.972123 -2.2192084,6.044443 0.1899708,0.831961 0.2524257,1.605868 0.1387898,1.719792 -0.1136359,0.113924 -2.84606458,0.249833 -6.0720655,0.302017 -3.2260009,0.05219 -5.6643849,0.171248 -5.4186347,0.264583 0.245753,0.09334 -2.6662488,0.205417 -6.4711158,0.249071 -3.804864,0.04365 -7.045176,0.184972 -7.200693,0.314039 -0.155517,0.129066 -3.613356,0.362849 -7.684092,0.519517 -17.269962,0.66466 -35.035154,1.428105 -49.602374,2.131621 -2.983177,0.144071 -5.990903,0.262125 -6.683836,0.262345 l -1.259878,3.99e-4 z M 64.136399,57.00395 c -1.444826,-0.127262 -2.68724,-0.291669 -2.760921,-0.36535 -0.07368,-0.07368 0.426603,-1.530768 1.111739,-3.237974 0.685139,-1.707205 1.242944,-3.328423 1.239568,-3.602709 -0.0062,-0.504698 -0.975747,-3.037379 -4.923989,-12.862758 -1.94229,-4.833477 -2.249738,-5.432652 -2.824114,-5.503809 -0.85484,-0.105908 -10.219301,3.228104 -10.777942,3.837252 -0.240062,0.261763 -1.946593,3.571557 -3.792291,7.355099 l -3.355819,6.879166 0.795467,2.447409 c 1.175859,3.617759 1.220076,3.506081 -1.387345,3.503834 -1.200547,-0.0011 -2.956719,-0.07739 -3.902604,-0.169677 L 31.838356,55.11664 31.13884,53.103502 c -0.384733,-1.107223 -1.03074,-2.906104 -1.435573,-3.99751 l -0.736058,-1.984375 1.067551,-1.719792 c 0.587156,-0.945885 1.917957,-3.148541 2.957336,-4.894791 1.039378,-1.74625 3.586236,-5.958199 5.659685,-9.359889 l 3.769908,-6.184892 3.571875,-0.882454 c 1.964531,-0.485349 3.973337,-0.887071 4.464013,-0.892712 0.98952,-0.01138 9.838234,1.720662 10.881819,2.129999 0.470665,0.184616 1.224196,1.267992 2.612409,3.755951 1.82636,3.273208 3.698941,6.519222 8.58036,14.87358 1.105355,1.891771 2.085512,3.641445 2.178124,3.888163 0.107511,0.286404 -0.651991,2.017107 -2.100776,4.787109 -1.248039,2.386192 -2.19094,4.416753 -2.095333,4.512357 0.228172,0.228174 -3.07391,0.160713 -6.377781,-0.130296 z"
         id="path915" /><path
         style="fill:#3c603b;stroke-width:0.264583"
         d="m -86.827263,86.880301 v -16.33298 l 0.595312,-0.120657 c 0.327422,-0.06636 4.167188,-0.183627 8.532813,-0.260583 4.365624,-0.07696 14.128749,-0.270209 21.695832,-0.429443 36.449183,-0.766995 84.457845,-0.916514 94.323954,-0.293761 2.546614,0.160742 8.321145,0.477779 12.832291,0.704527 7.119098,0.357836 15.141516,0.813514 23.15104,1.315 14.886865,0.932085 26.017081,1.201219 37.984361,0.918475 5.22959,-0.123558 11.65147,-0.34874 14.27084,-0.500409 2.61938,-0.151668 7.91766,-0.400154 11.77396,-0.552191 3.8563,-0.152038 11.29771,-0.509701 16.53646,-0.794811 8.40659,-0.457515 12.29304,-0.643125 25.99531,-1.241489 l 3.24115,-0.141536 V 86.181862 103.21328 H 48.639397 -86.827263 Z m 0.06302,-38.480487 c 0.04476,-6.638211 0.16306,-10.27403 0.334295,-10.27403 0.280674,0 3.418,-2.191173 16.66831,-11.641483 4.511146,-3.217416 10.821458,-7.679171 14.022916,-9.915017 3.201458,-2.235843 6.28143,-4.423428 6.844382,-4.8613 l 1.023548,-0.796132 -0.176506,0.803625 c -0.09708,0.441994 -0.521745,1.729052 -0.943705,2.860129 -0.670063,1.796127 -1.047718,2.345198 -2.982788,4.336675 -5.392486,5.549672 -5.153004,5.232024 -6.007777,7.968712 -0.431792,1.382448 -1.002514,3.284813 -1.268267,4.227475 -0.46623,1.653773 -0.584896,1.806144 -3.38083,4.34113 -5.368154,4.867132 -6.780853,6.240116 -6.69113,6.503024 0.04913,0.143957 2.351511,-0.782262 5.116407,-2.058262 2.764896,-1.276001 6.257583,-2.850775 7.761525,-3.499496 2.712823,-1.17017 2.749624,-1.198324 4.654608,-3.560746 1.056092,-1.309688 4.171373,-4.955622 6.922849,-8.102076 2.751476,-3.146454 6.312371,-7.27217 7.9131,-9.168257 1.600729,-1.896086 3.11627,-3.548432 3.36787,-3.671882 0.251601,-0.123449 2.289953,-2.0276418 4.529672,-4.2315415 l 4.072215,-4.0070906 2.878664,-0.1884441 c 4.979315,-0.3259587 4.42627,-0.053829 10.308415,-5.0723348 9.10922,-7.7717699 11.08782439,-9.367726 11.16625747,-9.006787 0.0413491,0.190283 -0.41198267,2.06683 -1.00740627,4.1701086 -0.5954236,2.103276 -1.5205313,5.61007661 -2.0557939,7.792889 L -4.6666199,5.3174524 -8.6391321,9.3090516 C -10.824011,11.504432 -12.75367,13.472969 -12.92726,13.68358 c -0.309473,0.375472 -1.461159,5.759867 -2.331241,10.899084 -0.424643,2.508191 -0.403519,3.356662 0.08357,3.356662 0.127291,0 1.707221,-1.637109 3.510949,-3.63802 1.8037311,-2.000912 5.4216116,-5.881423 8.039735,-8.623361 C -1.0061282,12.93601 1.759847,9.8999164 2.5223602,8.9310705 3.9945706,7.0604903 8.4168109,0.41687983 12.412683,-5.9273387 c 1.329005,-2.110052 2.969247,-4.3743823 3.644982,-5.0318453 1.515496,-1.47452 8.379317,-8.955598 8.867224,-9.664647 0.195686,-0.284377 1.9465,-3.640431 3.890701,-7.457897 l 3.53491,-6.940852 5.942845,-5.362273 c 3.268567,-2.949252 6.764353,-6.106416 7.768418,-7.015921 1.004064,-0.909505 1.922785,-1.653646 2.041604,-1.653646 0.118816,0 -0.133858,1.637109 -0.561499,3.638021 -1.967081,9.203859 -2.390566,11.478505 -2.245005,12.058472 0.08596,0.342498 2.872867,3.292866 6.19312,6.556369 l 6.036826,5.933644 0.423979,1.847892 c 1.256133,5.474832 3.396726,13.3882731 3.779599,13.9726133 0.241739,0.3689403 0.73887,0.866939 1.104733,1.1066621 0.365863,0.2397231 3.185324,2.433214 6.265471,4.8744238 6.016207,4.7682227 6.657993,5.2097302 6.930966,4.7680534 0.162724,-0.2632975 -0.276574,-0.9507326 -4.303469,-6.7342779 -4.683627,-6.726761 -4.437149,-6.2533209 -5.647531,-10.8479157 -1.426638,-5.41551 -2.635453,-10.525083 -2.552358,-10.788629 0.0356,-0.112911 0.298691,0.244277 0.584644,0.79375 0.285957,0.549476 0.774724,1.356233 1.086149,1.792796 0.311428,0.436562 1.255199,2.103437 2.09727,3.704166 1.768613,3.362037 1.968082,3.610832 4.626467,5.770515 1.091406,0.8866608 2.639219,2.1433919 3.439583,2.7927322 0.800365,0.6493431 2.517997,2.5005955 3.816961,4.113895 1.298964,1.6132994 3.144433,3.90158793 4.101042,5.085085 0.956609,1.1834944 2.632257,3.3083313 3.723663,4.7218571 1.99431,2.5829153 3.022767,3.4721772 13.467612,11.6448627 0.93151,0.728871 2.81416,2.247952 4.18367,3.375739 3.56612,2.936684 4.17655,2.742882 1.9765,-0.62751 C 105.35359,18.540689 96.582374,3.9853971 94.984372,1.1706671 94.504495,0.32540809 94.243544,-0.39907661 94.38703,-0.487757 c 0.140137,-0.0866087 3.685731,-0.571709 7.8791,-1.0780024 4.19337,-0.5062934 8.49837,-1.0402384 9.56668,-1.1865424 1.0683,-0.1463067 2.0351,-0.2086954 2.14845,-0.1386443 0.11334,0.070048 0.48156,0.8740351 0.81827,1.7866306 0.3367,0.91259813 0.90937,2.1355181 1.2726,2.7176014 0.36323,0.5820833 1.39953,2.611702 2.30289,4.5102646 1.56382,3.2866275 1.72942,3.5217706 3.45811,4.9103435 0.9986,0.802127 2.37589,1.840442 3.06064,2.307365 1.67975,1.145416 1.89844,1.514755 2.99268,5.054354 1.50078,4.85468 1.10647,4.396284 5.23238,6.082747 l 3.61247,1.476591 6.29102,6.180093 c 9.23726,9.074369 8.77028,8.644408 9.06674,8.347942 0.17759,-0.177583 0.003,-1.04974 -0.52783,-2.634258 -0.43633,-1.302826 -2.01939,-6.252273 -3.51792,-10.998768 l -2.7246,-8.629991 2.12961,-0.165817 c 1.17129,-0.0912 3.70492,-0.166534 5.6303,-0.167407 3.41725,-0.0016 3.50369,0.01259 3.62655,0.593728 0.0692,0.327421 0.29985,1.759577 0.51249,3.182564 l 0.38662,2.587254 2.15306,2.35839 c 1.18418,1.297115 3.08346,3.26381 4.22062,4.370432 1.65248,1.608106 2.21618,2.368106 2.80782,3.785608 1.65998,3.977122 2.67988,5.490104 4.97094,7.374226 1.18959,0.978283 4.32789,3.719983 6.97401,6.092663 2.64612,2.37268 4.93808,4.313965 5.09323,4.313965 0.15645,0 0.2821,0.511993 0.2821,1.149533 v 1.149535 l -3.77032,0.173069 c -2.07367,0.09519 -9.18765,0.463534 -15.80885,0.818544 -6.6212,0.35501 -15.0151,0.776129 -18.65312,0.935821 -3.63802,0.159689 -8.69818,0.40359 -11.24479,0.541999 -6.94892,0.377674 -19.19491,0.776575 -26.17296,0.852561 l -6.19692,0.06748 -0.91422,-1.587499 C 100.84207,55.773492 99.750484,53.987554 98.919147,52.677867 98.087808,51.368179 96.410511,48.629742 95.191819,46.59245 92.789124,42.575853 92.891555,42.689098 84.901094,35.215368 L 80.375071,30.982034 77.768396,25.690368 C 76.334727,22.779952 74.323622,18.652991 73.299274,16.519347 L 71.436827,12.639992 69.893841,12.33375 C 62.384085,10.843262 58.680403,9.7850741 51.724243,7.1424688 49.273564,6.2114715 47.052032,5.4497441 46.787504,5.4497441 c -0.569166,0 -9.689171,2.1863578 -12.191449,2.9226799 -1.674082,0.4926171 -1.85058,0.6303195 -4.644247,3.623344 -1.597215,1.711198 -3.83242,4.160425 -4.96712,5.44273 l -2.063094,2.331464 -2.728418,6.729102 c -1.500629,3.701008 -2.947169,7.012546 -3.214533,7.358973 -0.685922,0.888759 -7.9695993,9.216982 -11.3390124,12.965127 -3.0926006,3.440221 -2.9207379,2.972123 -2.2192084,6.044443 0.1899708,0.831961 0.2533993,1.604659 0.1409514,1.717104 -0.1124479,0.112448 -3.55925152,0.296415 -7.6595654,0.408818 -7.2423492,0.198533 -12.5803942,0.430734 -22.1394912,0.963041 -2.546614,0.141811 -8.142551,0.38694 -12.435416,0.544732 -4.292864,0.157792 -11.615207,0.460105 -16.271874,0.671806 -4.656666,0.211704 -12.574322,0.56469 -17.594791,0.784416 -5.020468,0.219726 -10.290391,0.470786 -11.710939,0.557911 l -2.582814,0.158408 z m 151.940099,8.585467 c -1.891771,-0.134877 -3.537884,-0.340741 -3.658029,-0.457476 -0.120142,-0.116734 0.326342,-1.542372 0.992188,-3.168089 0.665847,-1.625713 1.210632,-3.204392 1.210632,-3.508173 0,-0.555141 -0.891685,-2.897087 -4.91785,-12.916384 -1.94229,-4.833477 -2.249738,-5.432652 -2.824114,-5.503809 -0.85484,-0.105908 -10.219301,3.228104 -10.777942,3.837252 -0.240062,0.261763 -1.946593,3.571557 -3.792291,7.355099 l -3.355819,6.879166 0.795467,2.447409 c 1.230365,3.78546 1.463032,3.524882 -2.974845,3.331694 -2.073672,-0.09027 -3.818805,-0.205991 -3.878077,-0.257157 -0.129956,-0.112188 -2.031577,-5.034761 -2.599817,-6.729938 l -0.404932,-1.20799 1.055944,-1.702427 c 0.580769,-0.936334 1.906347,-3.131174 2.945726,-4.877424 1.039378,-1.74625 3.586236,-5.958199 5.659685,-9.359889 l 3.769908,-6.184892 3.571875,-0.882454 c 1.964531,-0.485349 3.973337,-0.887071 4.464013,-0.892712 0.98952,-0.01138 9.838234,1.720662 10.881819,2.129999 0.470665,0.184616 1.224196,1.267992 2.612409,3.755951 1.82636,3.273208 3.698941,6.519222 8.58036,14.87358 1.105355,1.891771 2.08488,3.639799 2.176722,3.884507 0.105584,0.281326 -0.69214,2.103556 -2.169483,4.955727 -2.258406,4.360098 -2.362986,4.50968 -3.130216,4.477232 -0.436563,-0.01847 -2.341563,-0.143926 -4.233333,-0.278802 z"
         id="path913" /><path
         style="fill:#364957;stroke-width:0.264583"
         d="m -86.827263,90.849051 v -12.36423 l 0.727604,-0.19645 c 0.400182,-0.108048 25.790259,-0.199613 56.422393,-0.203478 50.818513,-0.0064 56.297084,0.03443 62.573955,0.466468 8.500293,0.585076 14.210427,1.062802 22.754166,1.903682 3.638021,0.358056 8.102864,0.770893 9.921874,0.917414 1.819011,0.146518 3.902604,0.328097 4.630209,0.403503 0.727604,0.07541 1.918229,0.198683 2.645833,0.273949 9.961734,1.03047 34.082129,1.675072 43.920829,1.173755 2.47386,-0.12605 9.14136,-0.414747 14.81667,-0.641548 18.78653,-0.75076 22.93417,-0.941909 37.43854,-1.725403 2.54661,-0.137562 6.98169,-0.328862 9.85573,-0.425106 l 5.22552,-0.174993 V 91.734947 103.21328 H 48.639397 -86.827263 Z m 0.06306,-42.495426 c 0.04472,-6.607396 0.163042,-10.227841 0.334252,-10.227841 0.280674,0 3.418,-2.191173 16.66831,-11.641483 4.511146,-3.217416 10.821458,-7.679171 14.022916,-9.915017 3.201458,-2.235843 6.28143,-4.423428 6.844382,-4.8613 l 1.023548,-0.796132 -0.176506,0.803625 c -0.09708,0.441994 -0.521745,1.729052 -0.943705,2.860129 -0.670063,1.796127 -1.047718,2.345198 -2.982788,4.336675 -5.392486,5.549672 -5.153004,5.232024 -6.007777,7.968712 -0.431792,1.382448 -1.002514,3.284813 -1.268267,4.227475 -0.46623,1.653773 -0.584896,1.806144 -3.38083,4.34113 -5.368154,4.867132 -6.780853,6.240116 -6.69113,6.503024 0.04913,0.143957 2.351511,-0.782262 5.116407,-2.058262 2.764896,-1.276001 6.257583,-2.850775 7.761525,-3.499496 2.712823,-1.17017 2.749624,-1.198324 4.654608,-3.560746 1.056092,-1.309688 4.171373,-4.955622 6.922849,-8.102076 2.751476,-3.146454 6.312371,-7.27217 7.9131,-9.168257 1.600729,-1.896086 3.11627,-3.548432 3.36787,-3.671882 0.251601,-0.123449 2.289953,-2.0276418 4.529672,-4.2315415 l 4.072215,-4.0070906 2.878664,-0.1884441 c 4.979315,-0.3259587 4.42627,-0.053829 10.308415,-5.0723348 9.10922,-7.7717699 11.08782439,-9.367726 11.16625747,-9.006787 0.0413491,0.190283 -0.41198267,2.06683 -1.00740627,4.1701086 -0.5954236,2.103276 -1.5205313,5.61007661 -2.0557939,7.792889 L -4.6666199,5.3174524 -8.6391321,9.3090516 C -10.824011,11.504432 -12.75367,13.472969 -12.92726,13.68358 c -0.309473,0.375472 -1.461159,5.759867 -2.331241,10.899084 -0.424643,2.508191 -0.403519,3.356662 0.08357,3.356662 0.127291,0 1.707221,-1.637109 3.510949,-3.63802 1.8037311,-2.000912 5.4216116,-5.881423 8.039735,-8.623361 C -1.0061282,12.93601 1.759847,9.8999164 2.5223602,8.9310705 3.9945706,7.0604903 8.4168109,0.41687983 12.412683,-5.9273387 c 1.329005,-2.110052 2.969247,-4.3743823 3.644982,-5.0318453 1.515496,-1.47452 8.379317,-8.955598 8.867224,-9.664647 0.195686,-0.284377 1.9465,-3.640431 3.890701,-7.457897 l 3.53491,-6.940852 5.942845,-5.362273 c 3.268567,-2.949252 6.764353,-6.106416 7.768418,-7.015921 1.004064,-0.909505 1.922785,-1.653646 2.041604,-1.653646 0.118816,0 -0.133858,1.637109 -0.561499,3.638021 -1.967081,9.203859 -2.390566,11.478505 -2.245005,12.058472 0.08596,0.342498 2.872867,3.292866 6.19312,6.556369 l 6.036826,5.933644 0.423979,1.847892 c 1.256133,5.474832 3.396726,13.3882731 3.779599,13.9726133 0.241739,0.3689403 0.73887,0.866939 1.104733,1.1066621 0.365863,0.2397231 3.185324,2.433214 6.265471,4.8744238 6.016207,4.7682227 6.657993,5.2097302 6.930966,4.7680534 0.162724,-0.2632975 -0.276574,-0.9507326 -4.303469,-6.7342779 -4.683627,-6.726761 -4.437149,-6.2533209 -5.647531,-10.8479157 -1.426638,-5.41551 -2.635453,-10.525083 -2.552358,-10.788629 0.0356,-0.112911 0.298691,0.244277 0.584644,0.79375 0.285957,0.549476 0.774724,1.356233 1.086149,1.792796 0.311428,0.436562 1.255199,2.103437 2.09727,3.704166 1.768613,3.362037 1.968082,3.610832 4.626467,5.770515 1.091406,0.8866608 2.639219,2.1433919 3.439583,2.7927322 0.800365,0.6493431 2.517997,2.5005955 3.816961,4.113895 1.298964,1.6132994 3.144433,3.90158793 4.101042,5.085085 0.956609,1.1834944 2.632257,3.3083313 3.723663,4.7218571 1.99431,2.5829153 3.022767,3.4721772 13.467612,11.6448627 0.93151,0.728871 2.81416,2.247952 4.18367,3.375739 3.56612,2.936684 4.17655,2.742882 1.9765,-0.62751 C 105.35359,18.540689 96.582374,3.9853971 94.984372,1.1706671 94.504495,0.32540809 94.243544,-0.39907661 94.38703,-0.487757 c 0.140137,-0.0866087 3.685731,-0.571709 7.8791,-1.0780024 4.19337,-0.5062934 8.49837,-1.0402384 9.56668,-1.1865424 1.0683,-0.1463067 2.0351,-0.2086954 2.14845,-0.1386443 0.11334,0.070048 0.48156,0.8740351 0.81827,1.7866306 0.3367,0.91259813 0.90937,2.1355181 1.2726,2.7176014 0.36323,0.5820833 1.39953,2.611702 2.30289,4.5102646 1.56382,3.2866275 1.72942,3.5217706 3.45811,4.9103435 0.9986,0.802127 2.37589,1.840442 3.06064,2.307365 1.67975,1.145416 1.89844,1.514755 2.99268,5.054354 1.50078,4.85468 1.10647,4.396284 5.23238,6.082747 l 3.61247,1.476591 6.29102,6.180093 c 9.23726,9.074369 8.77028,8.644408 9.06674,8.347942 0.17759,-0.177583 0.003,-1.04974 -0.52783,-2.634258 -0.43633,-1.302826 -2.01939,-6.252273 -3.51792,-10.998768 l -2.7246,-8.629991 2.12961,-0.165817 c 1.17129,-0.0912 3.70492,-0.166534 5.6303,-0.167407 3.41725,-0.0016 3.50369,0.01259 3.62655,0.593728 0.0692,0.327421 0.29985,1.759577 0.51249,3.182564 l 0.38662,2.587254 2.15306,2.35839 c 1.18418,1.297115 3.08346,3.26381 4.22062,4.370432 1.65248,1.608106 2.21618,2.368106 2.80782,3.785608 1.65998,3.977122 2.67988,5.490104 4.97094,7.374226 1.18959,0.978283 4.32789,3.719983 6.97401,6.092663 2.64612,2.37268 4.93808,4.313965 5.09323,4.313965 0.15645,0 0.2821,0.511993 0.2821,1.149533 v 1.149535 l -3.77032,0.173069 c -2.07367,0.09519 -9.18765,0.463534 -15.80885,0.818544 -6.6212,0.35501 -15.0151,0.776129 -18.65312,0.935821 -3.63802,0.159689 -8.69818,0.40359 -11.24479,0.541999 -6.94892,0.377674 -19.19491,0.776575 -26.17296,0.852561 l -6.19692,0.06748 -0.91422,-1.587499 C 100.84207,55.773492 99.750484,53.987554 98.919147,52.677867 98.087808,51.368179 96.410511,48.629742 95.191819,46.59245 92.789124,42.575853 92.891555,42.689098 84.901094,35.215368 L 80.375071,30.982034 77.768396,25.690368 C 76.334727,22.779952 74.323622,18.652991 73.299274,16.519347 L 71.436827,12.639992 69.893841,12.33375 C 62.384085,10.843262 58.680403,9.7850741 51.724243,7.1424688 49.273564,6.2114715 47.052032,5.4497441 46.787504,5.4497441 c -0.569166,0 -9.689171,2.1863578 -12.191449,2.9226799 -1.674082,0.4926171 -1.85058,0.6303195 -4.644247,3.623344 -1.597215,1.711198 -3.83242,4.160425 -4.96712,5.44273 l -2.063094,2.331464 -2.728418,6.729102 c -1.500629,3.701008 -2.947169,7.012546 -3.214533,7.358973 -0.685922,0.888759 -7.9695993,9.216982 -11.3390124,12.965127 -3.0926006,3.440221 -2.9207379,2.972123 -2.2192084,6.044443 0.1899708,0.831961 0.2537962,1.604262 0.1418351,1.716223 -0.111961,0.111961 -1.5347049,0.232246 -3.16164893,0.267303 -5.90611357,0.127262 -19.73011037,0.637786 -23.99245737,0.88605 -2.401094,0.139853 -9.306719,0.429286 -15.345833,0.643186 -12.223659,0.432951 -45.349328,1.906159 -46.900478,2.085819 l -0.995271,0.115276 z m 150.796431,8.41253 c -1.356598,-0.111059 -2.525307,-0.260694 -2.597131,-0.332517 -0.07182,-0.07182 0.413041,-1.457905 1.077478,-3.080179 0.664438,-1.622271 1.208069,-3.198135 1.208069,-3.501916 0,-0.555141 -0.891685,-2.897087 -4.91785,-12.916384 -1.94229,-4.833477 -2.249738,-5.432652 -2.824114,-5.503809 -0.85484,-0.105908 -10.219301,3.228104 -10.777942,3.837252 -0.240062,0.261763 -1.946593,3.571557 -3.792291,7.355099 l -3.355819,6.879166 0.795467,2.447409 c 0.437507,1.346075 0.795467,2.625997 0.795467,2.844271 0,0.331483 -0.542001,0.396861 -3.290067,0.396861 -1.809538,0 -3.568483,-0.105852 -3.908766,-0.235228 -0.490027,-0.186309 -0.906304,-0.9839 -2.001599,-3.835106 -0.760595,-1.97993 -1.382901,-3.722465 -1.382901,-3.872296 0,-0.149833 0.45947,-1.013645 1.021043,-1.919583 0.561573,-0.905939 1.871443,-3.075911 2.910822,-4.822161 1.039378,-1.74625 3.586236,-5.958199 5.659685,-9.359889 l 3.769908,-6.184892 3.571875,-0.882454 c 1.964531,-0.485349 3.973337,-0.887071 4.464013,-0.892712 0.98952,-0.01138 9.838234,1.720662 10.881819,2.129999 0.470665,0.184616 1.224196,1.267992 2.612409,3.755951 1.82636,3.273208 3.698941,6.519222 8.58036,14.87358 1.105355,1.891771 2.085512,3.641445 2.178124,3.888163 0.107556,0.286523 -0.65923,2.03095 -2.122501,4.828646 l -2.290886,4.380066 -1.899066,-0.0377 c -1.044485,-0.02074 -3.009008,-0.128571 -4.365606,-0.239633 z"
         id="path911" /><path
         style="fill:#2e5035;stroke-width:0.264583"
         d="m -86.827263,90.849051 v -12.36423 l 0.727604,-0.19645 c 0.400182,-0.108048 25.790259,-0.199613 56.422393,-0.203478 50.818513,-0.0064 56.297084,0.03443 62.573955,0.466468 8.500293,0.585076 14.210427,1.062802 22.754166,1.903682 3.638021,0.358056 8.102864,0.770893 9.921874,0.917414 1.819011,0.146518 3.902604,0.328097 4.630209,0.403503 0.727604,0.07541 1.918229,0.198683 2.645833,0.273949 9.961734,1.03047 34.082129,1.675072 43.920829,1.173755 2.47386,-0.12605 9.14136,-0.414747 14.81667,-0.641548 18.78653,-0.75076 22.93417,-0.941909 37.43854,-1.725403 2.54661,-0.137562 6.98169,-0.328862 9.85573,-0.425106 l 5.22552,-0.174993 V 91.734947 103.21328 H 48.639397 -86.827263 Z m 0.0014,-39.928814 c 0.0016,-9.280098 0.191246,-12.868645 0.677641,-12.824941 0.287029,0.02579 7.273013,-4.81956 16.459947,-11.416315 1.269354,-0.911471 4.867761,-3.464002 7.996458,-5.672291 3.128698,-2.208291 7.41082,-5.236982 9.515827,-6.730425 2.105006,-1.493446 3.873471,-2.66917 3.929919,-2.612718 0.05645,0.05645 -0.211634,1.046305 -0.595743,2.199679 -0.792848,2.380708 -1.30591,3.063476 -5.560063,7.399181 l -2.924315,2.980373 -1.099576,3.63421 c -0.604769,1.998816 -1.162497,3.931867 -1.239399,4.295669 -0.09208,0.435626 -1.749155,2.087774 -4.853547,4.839129 -6.841165,6.06317 -7.035206,6.505466 -1.752544,3.994753 4.304488,-2.045814 6.324186,-2.964876 9.78184,-4.451207 0.605745,-0.26039 1.221653,-0.430281 1.368684,-0.377534 0.147029,0.05275 -0.968827,1.524651 -2.479683,3.270901 -1.510855,1.74625 -2.751843,3.27248 -2.757746,3.391625 -0.0059,0.119144 2.638404,0.176889 5.876242,0.128322 6.531872,-0.09797 5.085712,0.16528 15.805975,-2.877266 l 3.568996,-1.012926 0.62679,0.581999 c 0.344736,0.320098 1.52468,1.653558 2.622095,2.963246 1.097417,1.309687 2.161087,2.479248 2.36371,2.599023 0.202623,0.119777 2.635919,0.506071 5.407327,0.858432 2.771407,0.352362 5.14768,0.707877 5.280606,0.79003 0.132927,0.08215 0.241687,0.300607 0.241687,0.48545 0,0.488942 -3.134172,7.642923 -3.514543,8.0222 -0.219995,0.219366 -1.938144,0.363003 -5.426778,0.453679 -2.807674,0.07298 -5.96283,0.201575 -7.011458,0.285774 -1.048626,0.0842 -3.692533,0.195775 -5.875345,0.247954 -2.182813,0.05218 -9.088437,0.338582 -15.345833,0.636455 -6.257395,0.297873 -13.282083,0.6125 -15.610416,0.699169 -8.172889,0.304232 -14.646782,0.666724 -15.114804,0.84632 -0.302972,0.116261 -0.363093,-1.150749 -0.361951,-7.62795 z M 64.03223,56.766155 c -1.356598,-0.111059 -2.505749,-0.242922 -2.553671,-0.293026 -0.04792,-0.0501 0.504058,-1.57068 1.226619,-3.379059 l 1.313746,-3.287964 -1.621305,-4.120369 c -3.637733,-9.244896 -5.646738,-14.052642 -5.991842,-14.339051 -0.281956,-0.234003 -1.248994,0.0045 -4.263956,1.051523 -6.20129,2.153607 -7.037067,2.517896 -7.408849,3.229305 -0.185734,0.355402 -1.779301,3.60788 -3.541257,7.227726 l -3.203556,6.581542 0.83304,2.678874 c 0.458171,1.473383 0.830636,2.768174 0.827702,2.877315 -0.0075,0.280664 -6.455815,0.247732 -7.20417,-0.03679 -0.490027,-0.186309 -0.906304,-0.9839 -2.001599,-3.835106 -0.760595,-1.97993 -1.382901,-3.722465 -1.382901,-3.872296 0,-0.149833 0.45947,-1.013645 1.021043,-1.919583 0.561573,-0.905939 1.871443,-3.075911 2.910822,-4.822161 1.039378,-1.74625 3.586236,-5.958199 5.659685,-9.359889 l 3.769908,-6.184892 3.571875,-0.882454 c 1.964531,-0.485349 3.973337,-0.887071 4.464013,-0.892712 0.98952,-0.01138 9.838234,1.720662 10.881819,2.129999 0.470665,0.184616 1.224196,1.267992 2.612409,3.755951 1.82636,3.273208 3.698941,6.519222 8.58036,14.87358 1.105355,1.891771 2.085512,3.641445 2.178124,3.888163 0.107556,0.286523 -0.65923,2.03095 -2.122501,4.828646 l -2.290886,4.380066 -1.899066,-0.0377 C 67.353351,56.985053 65.388828,56.877222 64.03223,56.76616 Z m 88.10253,-17.648183 c -0.13196,-0.254662 -1.33668,-3.975365 -2.67717,-8.268229 -1.34048,-4.292865 -2.77321,-8.838467 -3.18385,-10.101339 -0.41063,-1.262869 -0.67853,-2.364197 -0.59534,-2.447396 0.0832,-0.08319 2.55161,-0.151265 5.48535,-0.151265 h 5.33409 l 0.31211,2.050521 c 0.38279,2.514912 0.39567,3.949859 0.0374,4.171259 -0.14915,0.09218 -0.68508,0.989492 -1.19096,1.994038 -0.92801,1.842796 -1.44684,3.89654 -2.51973,9.974286 -0.31468,1.78263 -0.61487,3.241145 -0.66709,3.241145 -0.0522,0 -0.2029,-0.208359 -0.33485,-0.46302 z m -36.30129,-5.918774 c -4.72248,-5.917083 -7.39824,-9.509254 -7.39824,-9.932024 0,-0.176816 -0.5143,-1.07315 -1.1429,-1.991852 -0.62859,-0.918705 -3.49513,-5.599433 -6.37009,-10.40162 C 98.047279,6.0715149 95.354302,1.5809115 94.937845,0.89458237 l -0.757195,-1.24787019 0.843436,-0.14951074 c 0.838015,-0.14855295 14.569384,-1.84962794 17.409484,-2.15672974 0.88088,-0.09525 1.55101,-0.05343 1.64758,0.1028197 0.0895,0.1448541 0.23904,1.73767476 0.33225,3.5395983 0.1292,2.4976374 0.0291,4.628102 -0.42129,8.9647708 -0.32493,3.1286975 -0.60682,6.8791665 -0.62643,8.3343745 l -0.0357,2.645833 2.70772,6.928133 c 1.48924,3.810471 3.00729,7.605519 3.37343,8.433443 0.36615,0.82792 0.66572,1.550027 0.66572,1.604679 0,0.482872 -0.9487,-0.566772 -4.24342,-4.694925 z m -168.264901,0.804653 c 0,-0.294478 0.804428,-1.269569 5.556249,-6.735021 1.527969,-1.757439 4.273235,-4.915141 6.100591,-7.017112 1.827358,-2.101972 4.133241,-4.797983 5.124187,-5.99114 0.990944,-1.193155 1.964801,-2.205186 2.164125,-2.248959 0.199321,-0.04377 2.18939,-1.890514 4.42237,-4.1038721 l 4.059968,-4.0242911 3.682608,-0.3002862 c 2.025436,-0.1651582 3.936857,-0.4378193 4.247605,-0.605917 0.310748,-0.1680977 4.106576,-3.31621323 8.43517,-6.9958079 4.3285964,-3.6795972 7.91068412,-6.6496667 7.96019824,-6.6001527 0.0495115,0.04951 -0.25201297,1.3336852 -0.67005724,2.8537164 -0.4180443,1.5200312 -0.8371205,3.1339154 -0.9312804,3.5864058 -0.2063538,0.991653 -0.8682487,1.6456632 -3.9819446,3.93449946 -2.7145587,1.99543714 -6.645177,5.78752204 -11.418554,11.01610934 -3.107171,3.403488 -5.856998,6.880084 -10.40957,13.160787 -4.964144,6.848506 -5.878176,8.022722 -6.077788,7.807856 -0.117248,-0.126206 0.0095,-1.301027 0.281704,-2.610715 0.592492,-2.850938 0.9164,-5.688541 0.649338,-5.688541 -0.304345,0 -7.066984,3.834445 -10.992836,6.232985 -3.284749,2.006851 -7.863504,4.614931 -8.101991,4.614931 -0.05505,0 -0.100092,-0.128463 -0.100092,-0.285475 z M -9.942578,22.581514 c 0.2761641,-0.327422 1.4608703,-1.607344 2.6326781,-2.844271 4.1748946,-4.406897 6.64931749,-7.038712 8.4167103,-8.952081 C 2.7674729,8.9873368 8.7112313,0.27182732 13.472363,-7.346815 c 1.102236,-1.7637706 2.208358,-3.23356 2.524482,-3.354472 0.30946,-0.118361 1.247923,-1.027409 2.085478,-2.020107 0.837551,-0.992695 2.666603,-2.995528 4.064558,-4.450736 2.384486,-2.482143 2.706163,-2.956843 5.199559,-7.672916 1.461805,-2.764896 3.174495,-6.117804 3.805984,-7.450907 1.140653,-2.407989 1.178629,-2.451378 5.811834,-6.64042 2.565025,-2.319125 5.199462,-4.674065 5.854306,-5.233201 0.654844,-0.559134 2.050346,-1.850755 3.101115,-2.870271 1.050769,-1.019514 1.980919,-1.783234 2.067002,-1.697154 0.08608,0.08608 -0.09572,1.210736 -0.404009,2.499233 -0.308284,1.288497 -0.963736,4.332631 -1.45656,6.764744 -1.220393,6.022721 -1.157824,5.842614 -3.403624,9.797417 -1.54201,2.715451 -2.347936,4.553363 -3.568459,8.13785 -2.034283,5.974392 -2.113515,6.149126 -4.105092,9.053126 -2.111383,3.0786943 -2.742816,4.3211194 -3.092833,6.0855303 -0.447726,2.2569513 -0.599432,2.4434296 -3.07227,3.7765088 -1.285431,0.6929623 -3.415102,1.95638468 -4.732605,2.80761008 l -2.395461,1.54768012 -2.275289,4.041333 c -1.251408,2.2227353 -3.254812,5.8595917 -4.452006,8.0819067 -1.197197,2.222314 -2.303177,4.118726 -2.457738,4.214249 -0.154559,0.09552 -2.014292,0.144869 -4.1327389,0.109659 l -3.8517219,-0.06402 -3.83645818,1.35831 C -6.0544997,21.88323 -9.8655023,23.176826 -10.158504,23.176826 c -0.157406,0 -0.06024,-0.267891 0.215926,-0.595313 z"
         id="path909" /><path
         style="fill:#233645;stroke-width:0.264583"
         d="m -86.771407,95.93724 0.07644,-7.276042 2.248958,-0.173712 c 1.236927,-0.09554 24.989894,-0.188698 52.784372,-0.207015 53.821928,-0.03547 59.947723,0.06568 72.231247,1.192694 2.328333,0.213622 6.197864,0.568698 8.598958,0.789056 4.702928,0.431604 7.148663,0.706469 11.906249,1.338096 1.67349,0.222173 3.935677,0.510643 5.027083,0.641043 1.091406,0.130397 2.936875,0.35987 4.101042,0.509937 3.054863,0.393787 13.222427,1.496067 16.933332,1.835766 1.74625,0.159853 5.437187,0.354322 8.202083,0.432155 2.764896,0.07783 5.443793,0.190537 5.953123,0.250457 1.26464,0.14878 20.45307,-0.291079 27.78125,-0.636836 14.65175,-0.691293 17.89861,-0.846225 22.62187,-1.079455 2.7649,-0.136528 8.24177,-0.436402 12.17083,-0.666385 8.94695,-0.523703 19.42756,-0.90931 19.89013,-0.731806 0.27528,0.10563 0.3505,1.306714 0.3505,5.596292 v 5.461795 H 48.629107 -86.847843 Z m -0.05449,-45.172562 c 0.0016,-9.1309 0.193231,-12.712906 0.677641,-12.669382 0.287029,0.02579 7.273013,-4.81956 16.459947,-11.416315 1.269354,-0.911471 4.867761,-3.464002 7.996458,-5.672291 3.128698,-2.208291 7.41082,-5.236982 9.515827,-6.730425 2.105006,-1.493446 3.873471,-2.66917 3.929919,-2.612718 0.05645,0.05645 -0.211634,1.046305 -0.595743,2.199679 -0.792848,2.380708 -1.30591,3.063476 -5.560063,7.399181 l -2.924315,2.980373 -1.099576,3.63421 c -0.604769,1.998816 -1.162497,3.931867 -1.239399,4.295669 -0.09208,0.435626 -1.749155,2.087774 -4.853547,4.839129 -6.914479,6.128146 -7.068685,6.53026 -1.482525,3.865882 5.240332,-2.499431 10.474814,-4.761013 10.828708,-4.678587 0.17621,0.04104 -0.916059,1.503368 -2.427258,3.249618 -1.511202,1.74625 -2.752471,3.27248 -2.758374,3.391625 -0.0059,0.119144 2.638404,0.176889 5.876242,0.128322 6.531872,-0.09797 5.085712,0.16528 15.805975,-2.877266 l 3.568996,-1.012926 0.62679,0.581999 c 0.344736,0.320098 1.52468,1.653558 2.622095,2.963246 1.097417,1.309687 2.161087,2.479248 2.36371,2.599023 0.202623,0.119777 2.635919,0.506071 5.407327,0.858432 2.771407,0.352362 5.14768,0.707877 5.280606,0.79003 0.132927,0.08215 0.241687,0.300607 0.241687,0.48545 0,0.406315 -3.096498,7.59752 -3.403762,7.904784 -0.224321,0.224321 -4.245043,0.431096 -21.863945,1.124407 -12.591658,0.495488 -27.081274,1.132253 -29.765624,1.30809 -1.091406,0.07149 -4.246562,0.199189 -7.011458,0.283773 -2.764896,0.08458 -5.294974,0.208915 -5.622396,0.276294 l -0.595312,0.122505 z M 65.39368,56.677861 c -1.917485,-0.162705 -3.569115,-0.379799 -3.670284,-0.48243 -0.101171,-0.102635 0.374238,-1.581455 1.056463,-3.286273 L 64.020271,49.80949 62.398293,45.68743 C 58.759709,36.440412 56.7509,31.633111 56.405777,31.346686 c -0.281956,-0.234003 -1.248994,0.0045 -4.263956,1.051523 -6.20129,2.153607 -7.037067,2.517896 -7.408849,3.229305 -0.185734,0.355402 -1.78195,3.613285 -3.547146,7.239741 l -3.209446,6.593554 0.679283,2.137695 c 0.373605,1.175732 0.756745,2.405587 0.851421,2.733008 l 0.172141,0.595313 h -3.689602 c -2.630804,0 -3.767341,-0.09491 -3.960508,-0.330729 -0.403505,-0.492607 -2.704803,-6.660152 -2.701112,-7.239063 0.0038,-0.592188 -0.114438,-0.38634 6.212784,-10.818749 2.735995,-4.511145 5.273773,-8.737864 5.639506,-9.392708 0.365736,-0.654843 0.833559,-1.388678 1.039614,-1.630746 0.226047,-0.265557 1.966947,-0.82623 4.389252,-1.4136 l 4.014613,-0.973478 5.551395,1.156679 5.551392,1.156678 1.953905,3.431921 c 1.074647,1.887556 3.964098,6.897201 6.421003,11.132542 2.456902,4.235341 4.46487,7.926279 4.46215,8.202083 -0.0027,0.275804 -0.984983,2.346931 -2.182812,4.602503 -2.50762,4.721982 -1.764861,4.31083 -6.987122,3.867703 z m 86.74108,-17.559889 c -0.13196,-0.254662 -1.33668,-3.975365 -2.67717,-8.268229 -1.34048,-4.292865 -2.77321,-8.838467 -3.18385,-10.101339 -0.41063,-1.262869 -0.67853,-2.364197 -0.59534,-2.447396 0.0832,-0.08319 2.55161,-0.151265 5.48535,-0.151265 h 5.33409 l 0.31211,2.050521 c 0.38279,2.514912 0.39567,3.949859 0.0374,4.171259 -0.14915,0.09218 -0.68508,0.989492 -1.19096,1.994038 -0.92801,1.842796 -1.44684,3.89654 -2.51973,9.974286 -0.31468,1.78263 -0.61487,3.241145 -0.66709,3.241145 -0.0522,0 -0.2029,-0.208359 -0.33485,-0.46302 z m -36.30129,-5.918774 c -4.688,-5.873888 -7.39824,-9.508728 -7.39824,-9.922161 0,-0.171391 -0.43212,-0.94866 -0.96026,-1.727268 -1.19837,-1.766695 -6.47375,-10.429557 -10.265328,-16.857011 -2.048935,-3.4733467 -2.772568,-4.91563005 -2.538788,-5.06011371 0.179838,-0.11114616 0.998908,-0.27721982 1.820156,-0.36905669 0.821246,-0.0918342 5.0399,-0.6021837 9.37478,-1.1341126 4.87836,-0.5986145 7.97569,-0.8730562 8.12852,-0.7202275 0.59792,0.5979212 0.59684,6.7702162 -0.002,12.538413 -0.32493,3.1286975 -0.60682,6.8791665 -0.62643,8.3343745 l -0.0357,2.645833 2.70772,6.928133 c 1.48924,3.810471 3.00729,7.605519 3.37343,8.433443 0.36615,0.82792 0.66572,1.550027 0.66572,1.604679 0,0.482872 -0.9487,-0.566772 -4.24342,-4.694925 z m -168.264901,0.804653 c 0,-0.294478 0.804428,-1.269569 5.556249,-6.735021 1.527969,-1.757439 4.273235,-4.915141 6.100591,-7.017112 1.827358,-2.101972 4.133241,-4.797983 5.124187,-5.99114 0.990944,-1.193155 1.964801,-2.205186 2.164125,-2.248959 0.199321,-0.04377 2.18939,-1.890514 4.42237,-4.1038721 l 4.059968,-4.0242911 3.682608,-0.3002862 c 2.025436,-0.1651582 3.936857,-0.4378193 4.247605,-0.605917 0.310748,-0.1680977 4.106576,-3.31621323 8.43517,-6.9958079 4.3285964,-3.6795972 7.91068412,-6.6496667 7.96019824,-6.6001527 0.0495115,0.04951 -0.25201297,1.3336852 -0.67005724,2.8537164 -0.4180443,1.5200312 -0.8371205,3.1339154 -0.9312804,3.5864058 -0.2063538,0.991653 -0.8682487,1.6456632 -3.9819446,3.93449946 -2.7145587,1.99543714 -6.645177,5.78752204 -11.418554,11.01610934 -3.107171,3.403488 -5.856998,6.880084 -10.40957,13.160787 -4.964144,6.848506 -5.878176,8.022722 -6.077788,7.807856 -0.117248,-0.126206 0.0095,-1.301027 0.281704,-2.610715 0.592492,-2.850938 0.9164,-5.688541 0.649338,-5.688541 -0.304345,0 -7.066984,3.834445 -10.992836,6.232985 -3.284749,2.006851 -7.863504,4.614931 -8.101991,4.614931 -0.05505,0 -0.100092,-0.128463 -0.100092,-0.285475 z M -9.942578,22.581514 c 0.2761641,-0.327422 1.4608703,-1.607344 2.6326781,-2.844271 4.1748946,-4.406897 6.64931749,-7.038712 8.4167103,-8.952081 C 2.7674729,8.9873368 8.7112313,0.27182732 13.472363,-7.346815 c 1.102236,-1.7637706 2.208358,-3.23356 2.524482,-3.354472 0.30946,-0.118361 1.247923,-1.027409 2.085478,-2.020107 0.837551,-0.992695 2.666603,-2.995528 4.064558,-4.450736 2.384486,-2.482143 2.706163,-2.956843 5.199559,-7.672916 1.461805,-2.764896 3.174495,-6.117804 3.805984,-7.450907 1.140653,-2.407989 1.178629,-2.451378 5.811834,-6.64042 2.565025,-2.319125 5.199462,-4.674065 5.854306,-5.233201 0.654844,-0.559134 2.050346,-1.850755 3.101115,-2.870271 1.050769,-1.019514 1.980919,-1.783234 2.067002,-1.697154 0.08608,0.08608 -0.09572,1.210736 -0.404009,2.499233 -0.308284,1.288497 -0.963736,4.332631 -1.45656,6.764744 -1.220393,6.022721 -1.157824,5.842614 -3.403624,9.797417 -1.54201,2.715451 -2.347936,4.553363 -3.568459,8.13785 -2.034283,5.974392 -2.113515,6.149126 -4.105092,9.053126 -2.111383,3.0786943 -2.742816,4.3211194 -3.092833,6.0855303 -0.447726,2.2569513 -0.599432,2.4434296 -3.07227,3.7765088 -1.285431,0.6929623 -3.415102,1.95638468 -4.732605,2.80761008 l -2.395461,1.54768012 -2.275289,4.041333 c -1.251408,2.2227353 -3.254812,5.8595917 -4.452006,8.0819067 -1.197197,2.222314 -2.303177,4.118726 -2.457738,4.214249 -0.154559,0.09552 -2.014292,0.144869 -4.1327389,0.109659 l -3.8517219,-0.06402 -3.83645818,1.35831 C -6.0544997,21.88323 -9.8655023,23.176826 -10.158504,23.176826 c -0.157406,0 -0.06024,-0.267891 0.215926,-0.595313 z"
         id="path907" /><path
         style="fill:#203c2f;stroke-width:0.264583"
         d="m -86.771407,95.93724 0.07644,-7.276042 2.248958,-0.173712 c 1.236927,-0.09554 24.989894,-0.188698 52.784372,-0.207015 53.821928,-0.03547 59.947723,0.06568 72.231247,1.192694 2.328333,0.213622 6.197864,0.568698 8.598958,0.789056 4.702928,0.431604 7.148663,0.706469 11.906249,1.338096 1.67349,0.222173 3.935677,0.510643 5.027083,0.641043 1.091406,0.130397 2.936875,0.35987 4.101042,0.509937 3.054863,0.393787 13.222427,1.496067 16.933332,1.835766 1.74625,0.159853 5.437187,0.354322 8.202083,0.432155 2.764896,0.07783 5.443793,0.190537 5.953123,0.250457 1.26464,0.14878 20.45307,-0.291079 27.78125,-0.636836 14.65175,-0.691293 17.89861,-0.846225 22.62187,-1.079455 2.7649,-0.136528 8.24177,-0.436402 12.17083,-0.666385 8.94695,-0.523703 19.42756,-0.90931 19.89013,-0.731806 0.27528,0.10563 0.3505,1.306714 0.3505,5.596292 v 5.461795 H 48.629107 -86.847843 Z M 65.308146,56.677861 c -2.938457,-0.243366 -3.556545,-0.366207 -3.48543,-0.692703 0.04755,-0.218281 0.553561,-1.638596 1.124479,-3.156254 0.570921,-1.517658 1.038035,-2.929025 1.038035,-3.136371 0,-0.376946 -1.791396,-5.057724 -4.224229,-11.037582 -0.710441,-1.74625 -1.614464,-4.008438 -2.008936,-5.027083 -0.871887,-2.251462 -1.06638,-2.513542 -1.865318,-2.513542 -0.483259,0 -7.721364,2.467184 -10.480712,3.57246 -0.257114,0.102989 -1.919663,3.136439 -3.820088,6.970048 -3.816681,7.699157 -3.832892,7.767039 -2.680726,11.226572 l 0.685273,2.057624 -3.715374,-0.07325 c -2.981354,-0.05878 -3.756255,-0.151654 -3.922321,-0.470123 -0.538004,-1.031753 -2.627984,-6.608233 -2.627984,-7.011979 0,-0.251166 0.519408,-1.306301 1.154239,-2.34474 0.634833,-1.038439 1.845228,-3.062647 2.689767,-4.498237 0.844537,-1.435592 2.021769,-3.354376 2.616071,-4.263963 0.594301,-0.90959 1.409898,-2.235327 1.812435,-2.946085 0.707906,-1.249937 2.901048,-4.904873 4.288938,-7.147639 0.658704,-1.064435 0.743265,-1.108049 3.251689,-1.677112 1.416471,-0.321342 3.091987,-0.75447 3.72337,-0.962504 1.236771,-0.407503 1.736992,-0.349493 8.112448,0.940771 5.237125,1.059892 4.560083,0.562703 7.1781,5.271267 1.264515,2.274258 2.922135,5.154829 3.683603,6.401271 0.761468,1.246441 1.756669,2.972847 2.21156,3.836458 0.819687,1.556181 1.221567,2.251199 3.397048,5.874898 0.618464,1.030174 1.124479,2.010563 1.124479,2.178642 0,0.288113 -0.996635,2.32019 -3.373384,6.878119 -1.201663,2.304447 -0.766805,2.1751 -5.887032,1.751036 z"
         id="path905" /><path
         style="fill:#1d3730;stroke-width:0.264583"
         d="m 183.57689,103.08099 c 0,-0.14552 -0.50602,-0.28242 -1.12448,-0.30423 -0.84725,-0.0299 -0.93721,-0.0676 -0.36491,-0.15295 0.93003,-0.13873 2.01856,0.11052 2.01856,0.46222 0,0.14275 -0.11907,0.25954 -0.26459,0.25954 -0.14552,0 -0.26458,-0.11906 -0.26458,-0.26458 z m -199.958844,-0.44697 c 0.254661,-0.0666 0.67138,-0.0666 0.926042,0 0.254661,0.0665 0.0463,0.121 -0.463021,0.121 -0.509323,0 -0.717682,-0.0545 -0.463021,-0.121 z m 31.36966,0.002 c 0.190995,-0.0764 0.4192,-0.067 0.507119,0.0209 0.08792,0.0879 -0.06835,0.15046 -0.347266,0.13897 -0.308226,-0.0127 -0.370919,-0.0754 -0.159853,-0.15985 z m 2.89388,0.005 c 0.181901,-0.0734 0.479557,-0.0734 0.661458,0 0.181901,0.0734 0.03307,0.13345 -0.330729,0.13345 -0.363802,0 -0.51263,-0.06 -0.330729,-0.13345 z m 25.006762,-0.0146 c 0.402182,-0.0608 0.997495,-0.0592 1.322916,0.004 0.325422,0.0628 -0.0037,0.11256 -0.731242,0.11057 -0.727604,-0.002 -0.993857,-0.0534 -0.591674,-0.11418 z m 15.616438,-0.006 c 0.842057,-0.0527 2.151745,-0.0522 2.910416,0.001 0.758672,0.0533 0.06972,0.0964 -1.531014,0.0957 -1.600729,-5.3e-4 -2.22146,-0.0442 -1.379402,-0.0968 z m 37.966915,5.3e-4 c 0.768863,-0.0536 1.959488,-0.0531 2.645833,0.001 0.686345,0.0543 0.05728,0.0982 -1.397931,0.0975 -1.455208,-7.9e-4 -2.016765,-0.0451 -1.247902,-0.0987 z m 70.899459,0.0201 c 0.1819,-0.0734 0.47956,-0.0734 0.66146,0 0.1819,0.0734 0.0331,0.13345 -0.33073,0.13345 -0.3638,0 -0.51263,-0.0601 -0.33073,-0.13345 z m 2.64584,-0.0162 c 0.47294,-0.0587 1.24684,-0.0587 1.71979,0 0.47294,0.0587 0.086,0.10672 -0.8599,0.10672 -0.94588,0 -1.33284,-0.048 -0.85989,-0.10672 z m 6.09015,-2.6e-4 c 0.47555,-0.0589 1.18992,-0.0577 1.5875,0.003 0.39759,0.0604 0.008,0.10855 -0.86463,0.10707 -0.87313,-0.002 -1.19842,-0.0509 -0.72287,-0.10977 z m 3.17026,0.0165 c 0.1819,-0.0734 0.47956,-0.0734 0.66146,0 0.1819,0.0734 0.0331,0.13345 -0.33073,0.13345 -0.3638,0 -0.51263,-0.0601 -0.33073,-0.13345 z M 65.969604,56.603966 c -0.582083,-0.04729 -1.787252,-0.154189 -2.678152,-0.237543 l -1.619816,-0.151554 0.925679,-2.429959 c 1.654662,-4.343585 1.657499,-3.784783 -0.0412,-8.11902 -0.826874,-2.109766 -2.084674,-5.264689 -2.795114,-7.010939 -0.710441,-1.74625 -1.614464,-4.008438 -2.008936,-5.027083 -0.871887,-2.251462 -1.06638,-2.513542 -1.865318,-2.513542 -0.483259,0 -7.721364,2.467184 -10.480712,3.57246 -0.522062,0.209116 -7.069846,13.316846 -7.265365,14.544222 -0.07489,0.470095 0.154551,1.662117 0.555355,2.885318 0.375626,1.146362 0.682956,2.247691 0.682956,2.447395 0,0.28026 -0.528209,0.36258 -2.315104,0.360805 -3.692597,-0.0037 -5.050494,-0.234871 -5.248849,-0.893697 -0.0926,-0.307567 -0.706557,-1.954828 -1.364351,-3.660579 l -1.195988,-3.101366 5.238398,-8.672591 c 2.88112,-4.769927 5.753836,-9.561692 6.383814,-10.648368 0.629978,-1.086678 1.354336,-2.169094 1.609685,-2.405366 0.46827,-0.433293 6.887816,-2.101149 8.087278,-2.101149 0.756189,0 10.624684,1.998387 10.993198,2.226143 0.137478,0.08496 1.169789,1.791732 2.294025,3.792815 2.209231,3.932314 4.474403,7.857987 8.343498,14.459767 l 2.465503,4.206851 -2.075325,3.995232 c -1.141431,2.197378 -2.190885,4.14406 -2.33212,4.325961 -0.245789,0.316561 -1.675627,0.368448 -4.293039,0.155787 z"
         id="path903" /></g></g></svg>
