<?xml version="1.0" encoding="UTF-8" standalone="no"?>
<!-- Created with Inkscape (http://www.inkscape.org/) -->

<svg
   width="97.031227mm"
   height="96.620491mm"
   viewBox="0 0 97.031227 96.620491"
   version="1.1"
   id="svg5"
   xml:space="preserve"
   xmlns="http://www.w3.org/2000/svg"
   xmlns:svg="http://www.w3.org/2000/svg"><defs
     id="defs2" /><g
     id="layer1"
     transform="translate(-14.444155,-46.557254)"><g
       id="g401"
       transform="translate(-112.4786,-19.253093)"><path
         style="fill:#000000;stroke-width:0.264583"
         d="m 129.05993,162.14595 c -0.3468,-0.13877 -0.96998,-0.63724 -1.38484,-1.1077 -0.7321,-0.83024 -0.75422,-0.94096 -0.75224,-3.76581 0.001,-1.60073 0.12345,-4.33916 0.27183,-6.08541 0.14839,-1.74625 0.39415,-4.72281 0.54613,-6.61459 0.15198,-1.89177 0.37997,-4.68974 0.50664,-6.2177 0.12667,-1.52797 0.34311,-4.20688 0.48097,-5.95313 0.59325,-7.51425 0.88238,-9.02052 1.88811,-9.83638 14.23578,-3.48939 28.14023,-7.22812 41.34124,-10.23473 10.17806,-0.86959 10.33982,10.31982 47.71599,29.99299 2.35478,1.82586 3.19507,3.52074 3.37425,6.08541 0.1187,1.78906 0.26092,3.35923 0.85201,9.40631 0.21455,2.19498 -0.1922,3.269 -1.55206,4.09815 -0.79299,0.48352 -1.38241,0.51654 -9.23513,0.51747 -6.09906,7.9e-4 -8.59002,-0.0885 -9.12813,-0.3269 -1.19254,-0.52837 -2.68433,-2.24335 -3.00774,-3.45773 -1.9248,-3.61609 -1.20181,-6.73035 -3.26914,-9.90657 -0.47684,-0.64939 -1.2251,-1.72692 -3.59129,-3.52066 -7.61501,-4.55686 -14.30891,-10.70508 -21.69584,-14.68786 -0.6536,-0.34931 -2.0996,-0.65727 -3.05905,-0.25639 -8.93374,7.89235 -20.10067,11.97061 -21.68032,24.2196 -0.33078,2.06741 -0.5208,4.73882 -1.60246,6.26192 -1.20338,1.57772 -1.7733,1.67749 -9.47537,1.65881 -3.80215,-0.009 -7.19675,-0.13032 -7.54356,-0.2691 z m 27.61805,0.0334 c -0.29104,-0.12038 -0.81467,-0.52621 -1.16361,-0.90184 -0.62498,-0.67276 -0.63215,-0.73938 -0.47995,-4.4607 0.14218,-3.47641 0.7779,-5.05421 1.04011,-5.49754 2.40124,-5.53913 9.94308,-10.05456 13.70033,-12.45482 0.82858,-0.35224 1.85548,-0.34613 2.64583,-0.0223 4.8148,3.3173 10.42648,7.50705 15.39242,10.47814 3.15438,1.86333 4.08259,4.30184 4.71592,7.36439 0.27212,2.13432 1.13275,4.45974 -1.45251,5.48144 -0.85323,0.32439 -33.61578,0.33696 -34.39854,0.0132 z m 61.11876,-29.56887 c -26.14643,-12.73445 -28.83107,-29.8147 -43.33136,-28.04329 -3.66838,0.84796 -26.96168,7.45924 -39.96268,9.18125 -1.13456,0 -1.52594,-0.12056 -1.98797,-0.61237 -1.16312,-1.23808 -0.51671,-2.56607 2.99659,-6.1562 0.58208,-0.59481 1.49394,-1.60717 2.02636,-2.24968 1.09704,-1.3239 5.13548,-5.493416 5.85907,-6.049256 9.56711,-1.230267 20.29722,-5.068109 29.68255,-5.88949 2.64052,-0.218972 3.13295,-1.187863 2.48749,-4.894354 -1.38376,-3.423646 -17.37186,0.441745 -17.55266,0.477004 -0.13507,0.04254 -1.90111,0.09314 -2.48355,-1.000446 -0.69765,-1.309886 -0.42204,-1.853676 2.36403,-4.664247 1.46951,-1.482434 2.90767,-2.99299 3.19592,-3.356792 0.28826,-0.363802 3.38202,-3.556323 6.87504,-7.09449 6.11321,-6.192229 6.38977,-6.433567 7.38826,-6.447347 1.02705,-0.01417 1.24879,0.197471 22.40157,21.381989 11.75034,11.767963 21.52117,21.675519 21.71296,22.016799 0.72299,1.28654 0.9323,3.27427 1.60629,15.2545 -0.0691,1.55973 0.5459,7.40449 -0.19288,8.28558 -0.66659,0.76859 -1.76072,0.71923 -3.08503,-0.13916 z"
         id="path248" /></g></g></svg>
